<svg xmlns="http://www.w3.org/2000/svg" xmlns:xlink="http://www.w3.org/1999/xlink" width="1080" zoomAndPan="magnify" viewBox="0 0 810 809.999993" height="1080" preserveAspectRatio="xMidYMid meet" version="1.0"><path fill="#d9a604" d="M 367.921875 56.1875 C 371.621094 51.042969 376.617188 47.605469 381.761719 44.410156 C 396.628906 35.179688 411.617188 35.179688 426.515625 44.308594 C 431.699219 47.488281 436.738281 50.925781 440.433594 56.109375 L 444.378906 54.445312 C 449.535156 52.246094 454.898438 50.828125 460.46875 50.195312 C 462.15625 49.984375 463.847656 49.960938 465.539062 50.125 C 467.230469 50.292969 468.882812 50.644531 470.496094 51.179688 C 472.109375 51.71875 473.640625 52.425781 475.09375 53.308594 C 476.550781 54.1875 477.886719 55.21875 479.109375 56.398438 C 482.277344 59.351562 482.414062 60.175781 480.332031 64.09375 C 473.394531 77.136719 466.457031 90.171875 458.199219 102.472656 C 455.570312 106.410156 452.324219 107.992188 447.863281 108.21875 C 433.96875 108.929688 420.066406 109.257812 406.15625 109.199219 C 391.171875 109.160156 376.246094 109.160156 361.3125 108.214844 C 360.269531 108.148438 359.230469 108.101562 358.191406 107.996094 C 357.453125 107.945312 356.730469 107.804688 356.023438 107.574219 C 355.320312 107.34375 354.652344 107.035156 354.023438 106.640625 C 353.394531 106.246094 352.824219 105.785156 352.308594 105.25 C 351.792969 104.714844 351.351562 104.128906 350.980469 103.484375 C 348.441406 99.335938 345.511719 95.417969 343.097656 91.195312 C 337.925781 82.148438 332.917969 73 327.964844 63.820312 C 326.046875 60.265625 326.300781 59.382812 329.144531 56.507812 C 334.308594 51.328125 340.714844 49.652344 347.761719 50.222656 C 353.53125 50.742188 359.050781 52.203125 364.324219 54.59375 Z M 367.921875 56.1875 " fill-opacity="1" fill-rule="nonzero"/><path fill="#d9a604" d="M 405.574219 656.375 C 408.292969 660.089844 412.347656 661.695312 413.863281 666.511719 C 410.078125 664.941406 409.089844 661.101562 405.90625 660.164062 C 404.796875 661.863281 406.625 664.519531 404.050781 665.578125 C 402.214844 664.042969 403.496094 662.066406 402.652344 660.136719 C 401.953125 660.414062 401.300781 660.773438 400.695312 661.21875 C 398.964844 662.882812 397.320312 664.625 394.996094 665.984375 C 395.167969 665.261719 395.125 664.320312 395.550781 663.863281 C 397.175781 662.050781 398.910156 660.347656 400.753906 658.753906 C 402.355469 657.40625 402.976562 655.953125 402.929688 653.804688 C 402.625 629.125 402.390625 604.4375 402.238281 579.746094 C 402.183594 578.007812 402.300781 576.277344 402.582031 574.558594 C 402.699219 573.949219 403.625 573.289062 404.316406 573.066406 C 404.65625 572.960938 405.617188 573.734375 405.746094 574.25 C 406.066406 575.597656 406.226562 576.96875 406.226562 578.355469 C 406.226562 588.441406 406.277344 598.527344 406.175781 608.609375 C 406.027344 623.035156 405.773438 637.460938 405.566406 651.886719 C 405.554688 653.457031 405.574219 655.015625 405.574219 656.375 Z M 405.574219 656.375 " fill-opacity="1" fill-rule="nonzero"/><path fill="#ffd2c3" d="M 404.144531 103.046875 C 425.234375 103.441406 446.242188 104.601562 467.179688 106.835938 C 479.28125 108.128906 491.363281 109.488281 503.433594 111.054688 C 540.085938 115.804688 575.046875 126.371094 609.011719 140.679688 C 631.9375 150.265625 653.105469 162.8125 672.515625 178.328125 C 702.265625 202.183594 722.964844 232.421875 732.875 269.367188 C 744.8125 313.875 738.480469 356.199219 715.554688 396.0625 C 710.796875 404.339844 705.65625 412.40625 700.472656 420.429688 C 687.925781 439.847656 671.523438 455.476562 652.507812 468.464844 C 629.25 484.34375 604.128906 496.480469 577.625 505.902344 C 559.917969 512.230469 541.8125 517.074219 523.308594 520.4375 C 508.941406 523.027344 494.648438 525.984375 480.308594 528.679688 C 465.386719 531.457031 451.832031 537.464844 439.132812 545.652344 C 429.027344 552.171875 421.121094 560.878906 413.902344 570.308594 C 412.671875 572 411.328125 573.589844 409.863281 575.082031 C 406.820312 578.023438 401.632812 577.984375 398.535156 575.082031 C 397.542969 574.101562 396.617188 573.058594 395.761719 571.953125 C 393.542969 569.265625 391.320312 566.597656 389.191406 563.847656 C 380.382812 552.433594 368.902344 544.425781 356.132812 538.152344 C 345.753906 533.097656 334.871094 529.621094 323.484375 527.722656 C 309.609375 525.324219 295.890625 522.128906 282.03125 519.742188 C 259.640625 515.894531 238.152344 509.039062 217.105469 500.730469 C 195.472656 492.289062 175.066406 481.53125 155.878906 468.449219 C 141.617188 458.652344 128.644531 447.40625 117.75 433.882812 C 112.511719 427.375 107.570312 420.667969 103.730469 413.199219 C 102.703125 411.382812 101.574219 409.636719 100.332031 407.957031 C 87.253906 388.808594 77.847656 368.058594 73.226562 345.234375 C 65.304688 306.023438 71 268.816406 89.804688 233.625 C 103.597656 207.847656 122.734375 186.796875 146.703125 170.113281 C 165.890625 156.753906 186.207031 145.519531 208.105469 137.125 C 222.226562 131.710938 236.40625 126.476562 250.90625 122.144531 C 267.941406 117.097656 285.410156 114.105469 302.929688 111.335938 C 318.738281 108.839844 334.671875 107.453125 350.585938 105.910156 C 368.421875 104.183594 386.300781 103.402344 404.144531 103.046875 Z M 404.144531 103.046875 " fill-opacity="1" fill-rule="nonzero"/><path fill="#749868" d="M 389.296875 765.019531 C 389.5 752.132812 390.765625 739.335938 392.441406 726.578125 C 393.6875 717.101562 394.746094 707.601562 396.082031 698.140625 C 397.097656 690.929688 398.410156 683.714844 399.613281 676.542969 C 400.128906 673.457031 400.601562 670.363281 401.277344 667.320312 C 401.875 664.730469 403.109375 663.480469 404.394531 663.714844 C 406.304688 664.0625 406.761719 665.761719 407.058594 667.210938 C 408.023438 671.792969 408.890625 676.410156 409.5625 681.046875 C 411.921875 697.382812 414.375 713.703125 416.4375 730.078125 C 418.398438 745.613281 419.660156 761.203125 418.773438 776.886719 C 418.40625 783.324219 417.664062 789.710938 415.539062 795.847656 C 414.117188 799.992188 412.210938 803.875 408.839844 806.859375 C 405.667969 809.671875 402.738281 809.707031 399.625 806.941406 C 396.25 803.972656 394.324219 800.101562 392.882812 795.957031 C 391.117188 790.648438 390.089844 785.199219 389.808594 779.613281 C 389.511719 774.757812 389.464844 769.886719 389.296875 765.019531 Z M 389.296875 765.019531 " fill-opacity="1" fill-rule="nonzero"/><path fill="#749868" d="M 334.59375 770.984375 C 335.332031 767.800781 335.847656 763.773438 337.210938 760.082031 C 339.910156 752.765625 342.722656 745.453125 346.117188 738.445312 C 355.972656 718.109375 367.6875 698.828125 380.375 680.136719 C 383.847656 674.90625 387.875 670.148438 392.464844 665.863281 C 393.167969 665.089844 393.957031 664.421875 394.835938 663.851562 C 395.507812 663.503906 396.648438 663.296875 397.191406 663.675781 C 397.5 663.957031 397.726562 664.296875 397.871094 664.6875 C 398.015625 665.078125 398.066406 665.480469 398.019531 665.894531 C 397.652344 667.585938 397.191406 669.25 396.636719 670.886719 C 391.882812 687.582031 385.863281 703.855469 379.933594 720.15625 C 376.964844 728.308594 374.21875 736.558594 370.769531 744.496094 C 367.664062 751.636719 363.84375 758.472656 360.136719 765.335938 C 357.847656 769.488281 354.90625 773.113281 351.3125 776.210938 C 349.378906 777.96875 347.246094 779.433594 344.914062 780.605469 C 340.476562 782.707031 336.589844 780.660156 335.351562 775.871094 C 334.996094 774.539062 334.914062 773.144531 334.59375 770.984375 Z M 334.59375 770.984375 " fill-opacity="1" fill-rule="nonzero"/><path fill="#749868" d="M 473.675781 771.328125 C 473.429688 773.160156 473.40625 774.757812 472.984375 776.246094 C 471.71875 780.683594 467.839844 782.625 463.613281 780.65625 C 461.261719 779.503906 459.121094 778.046875 457.183594 776.289062 C 453.554688 772.988281 450.496094 769.222656 448.011719 764.992188 C 442.640625 756.210938 438.1875 746.984375 434.65625 737.3125 C 428.738281 721.164062 422.964844 704.960938 417.335938 688.703125 C 414.945312 681.820312 412.984375 674.777344 410.84375 667.804688 C 410.566406 667.160156 410.425781 666.484375 410.421875 665.785156 C 410.523438 665 410.789062 663.914062 411.34375 663.605469 C 411.898438 663.292969 413.007812 663.566406 413.714844 663.910156 C 414.472656 664.351562 415.125 664.917969 415.667969 665.613281 C 419.246094 669.628906 423.203125 673.378906 426.269531 677.769531 C 440.859375 698.585938 453.871094 720.363281 464.6875 743.398438 C 467.863281 750.160156 470.792969 757.046875 472.457031 764.375 C 473 766.757812 473.304688 769.175781 473.675781 771.328125 Z M 473.675781 771.328125 " fill-opacity="1" fill-rule="nonzero"/><path fill="#749868" d="M 425.207031 606.273438 C 425.121094 620.144531 409.230469 630.164062 395.984375 624.355469 C 388.734375 621.183594 382.726562 613.257812 383.21875 605.148438 C 383.304688 603.050781 383.726562 601.023438 384.488281 599.066406 C 385.246094 597.113281 386.304688 595.332031 387.660156 593.730469 C 388.101562 593.195312 388.578125 592.691406 389.085938 592.214844 C 400.257812 581.984375 411.835938 583.664062 421.316406 594.371094 C 424.117188 597.597656 425.316406 601.601562 425.207031 606.273438 Z M 425.207031 606.273438 " fill-opacity="1" fill-rule="nonzero"/><path fill="#ffd2c3" d="M 418.023438 645.609375 C 418.0625 646.527344 417.976562 647.429688 417.765625 648.324219 C 417.558594 649.214844 417.234375 650.066406 416.792969 650.867188 C 416.355469 651.671875 415.8125 652.40625 415.175781 653.0625 C 414.535156 653.71875 413.820312 654.28125 413.03125 654.742188 C 407.1875 658.433594 401.273438 658.449219 395.417969 654.742188 C 391.703125 652.402344 390.101562 648.945312 390.421875 644.589844 C 390.933594 637.144531 397.011719 632.226562 404.988281 632.160156 C 411.542969 632.117188 418.308594 638.355469 418.023438 645.609375 Z M 418.023438 645.609375 " fill-opacity="1" fill-rule="nonzero"/><path fill="#d9a604" d="M 413.28125 38.304688 C 412.308594 36.15625 413.050781 34.5 413.28125 32.808594 C 414.101562 26.625 415.195312 20.46875 413.835938 14.191406 C 412.84375 9.621094 410.683594 6.113281 406.066406 4.671875 C 404.910156 4.320312 403.753906 4.300781 402.585938 4.617188 C 398.628906 5.808594 396.140625 8.539062 395.050781 12.527344 C 393.707031 17.292969 393.785156 22.144531 394.375 26.988281 C 394.695312 29.761719 395.230469 32.464844 395.601562 35.214844 C 395.660156 36.269531 395.660156 37.324219 395.601562 38.378906 C 394.71875 37.679688 394.007812 37.402344 393.890625 36.96875 C 393.175781 34.300781 392.289062 31.625 392.039062 28.894531 C 391.65625 24.746094 391.546875 20.589844 391.710938 16.429688 C 391.898438 14.003906 392.390625 11.640625 393.191406 9.34375 C 394.617188 4.734375 398.1875 2.40625 402.625 1.25 C 406.273438 0.289062 412 3.085938 414.058594 6.890625 C 415.167969 8.871094 415.941406 10.972656 416.375 13.199219 C 417.011719 17.0625 417.203125 20.949219 416.941406 24.859375 C 416.679688 28.769531 415.976562 32.59375 414.832031 36.339844 C 414.613281 37.019531 413.894531 37.535156 413.28125 38.304688 Z M 413.28125 38.304688 " fill-opacity="1" fill-rule="nonzero"/><path fill="#f5edd5" d="M 427.027344 62.75 C 427.160156 65.015625 427.453125 66.355469 427.273438 67.640625 C 426.46875 73.304688 425.578125 78.953125 424.628906 84.59375 C 424.167969 87.328125 423.617188 90.058594 422.902344 92.738281 C 422.691406 93.527344 421.792969 94.121094 421.039062 94.957031 C 419.433594 91.335938 419.539062 88.417969 421.421875 78.425781 C 423.785156 65.972656 423.785156 65.972656 427.027344 62.75 Z M 427.027344 62.75 " fill-opacity="1" fill-rule="nonzero"/><path fill="#f5edd5" d="M 381.261719 63.285156 C 383.796875 63.925781 384.152344 65.335938 384.425781 66.613281 C 385.535156 71.859375 386.644531 77.117188 387.605469 82.390625 C 388.125 85.289062 388.335938 88.234375 388.601562 91.164062 C 388.679688 92.03125 388.605469 92.882812 388.375 93.722656 C 388.160156 94.207031 387.789062 94.5 387.265625 94.59375 C 386.734375 94.550781 386.316406 94.3125 386.011719 93.875 C 385.648438 93.28125 385.414062 92.644531 385.304688 91.957031 C 383.9375 84.289062 382.53125 76.621094 381.292969 68.9375 C 381.054688 67.273438 381.261719 65.535156 381.261719 63.285156 Z M 381.261719 63.285156 " fill-opacity="1" fill-rule="nonzero"/><path fill="#f5edd5" d="M 461.585938 67.882812 C 461.378906 69.113281 461.390625 70.324219 460.964844 71.351562 C 458.964844 76.160156 456.890625 80.921875 454.742188 85.636719 C 453.460938 88.476562 452.03125 91.253906 450.605469 94.019531 C 450.167969 94.957031 449.585938 95.792969 448.855469 96.523438 C 448.496094 96.851562 447.558594 96.765625 446.992188 96.5625 C 446.546875 96.246094 446.335938 95.8125 446.359375 95.269531 C 446.492188 94.40625 446.757812 93.589844 447.15625 92.816406 C 450.777344 85.527344 454.371094 78.234375 458.09375 70.980469 C 458.746094 69.675781 459.199219 67.964844 461.585938 67.882812 Z M 461.585938 67.882812 " fill-opacity="1" fill-rule="nonzero"/><path fill="#f5edd5" d="M 347.601562 67.605469 C 348.425781 68.527344 349.402344 69.269531 349.898438 70.222656 C 353.835938 77.921875 357.722656 85.648438 361.550781 93.410156 C 362.0625 94.441406 362.710938 95.683594 361.371094 96.671875 C 360.417969 97.378906 359.121094 96.71875 358.253906 94.871094 C 354.734375 87.355469 351.261719 79.824219 347.828125 72.273438 C 347.207031 70.933594 346.222656 69.515625 347.601562 67.605469 Z M 347.601562 67.605469 " fill-opacity="1" fill-rule="nonzero"/><path fill="#f5edd5" d="M 515.167969 204.230469 C 514.402344 205.691406 514.058594 206.261719 513.796875 206.871094 C 508.433594 219.933594 500.453125 231.222656 490.492188 241.164062 C 486.636719 245.0625 482.554688 248.707031 478.253906 252.105469 C 473.953125 255.503906 469.464844 258.632812 464.78125 261.484375 C 460.101562 264.335938 455.261719 266.890625 450.269531 269.15625 C 445.277344 271.417969 440.164062 273.371094 434.933594 275.011719 C 414.429688 281.496094 393.867188 281.523438 373.375 274.980469 C 349.125 267.214844 328.550781 253.804688 311.820312 234.585938 C 304.789062 226.542969 299.179688 217.609375 294.988281 207.789062 C 294.589844 206.851562 294.140625 205.941406 293.523438 204.613281 C 292.949219 205.058594 292.40625 205.535156 291.890625 206.050781 C 280.433594 219.417969 265.703125 227.222656 248.609375 230.28125 C 216.75 235.988281 188.386719 227.429688 163.09375 207.828125 C 157.847656 203.746094 153.0625 199.183594 148.734375 194.136719 C 144.40625 189.09375 140.621094 183.671875 137.386719 177.867188 C 138.449219 175.695312 140.464844 174.597656 142.25 173.316406 C 162.785156 158.542969 184.636719 146.128906 208.34375 137.046875 C 228.640625 129.253906 249.023438 121.757812 270.355469 117.339844 C 283.449219 114.628906 296.636719 112.175781 309.894531 110.503906 C 329.371094 108.050781 348.902344 106.058594 368.492188 104.519531 C 384.585938 103.238281 400.789062 102.539062 416.953125 103.296875 C 433.789062 104.085938 450.644531 104.796875 467.394531 106.914062 C 479.605469 108.460938 491.90625 109.726562 504.144531 111.257812 C 539.054688 115.632812 572.398438 125.683594 604.871094 138.945312 C 626.753906 147.867188 646.945312 159.613281 666.113281 173.28125 C 667.777344 174.476562 669.371094 175.8125 671.191406 177.238281 C 670.519531 178.554688 670.082031 179.648438 669.441406 180.628906 C 652.046875 207.921875 627.269531 224.394531 595.605469 230.445312 C 579.234375 233.570312 563.046875 232.550781 547.289062 226.929688 C 535.453125 222.710938 525.15625 216.097656 516.910156 206.5 C 516.457031 205.949219 516.058594 205.386719 515.167969 204.230469 Z M 515.167969 204.230469 " fill-opacity="1" fill-rule="nonzero"/><path fill="#d9a604" d="M 404.140625 297.042969 C 417.21875 318.085938 426.808594 385.414062 422.820312 425.5 C 419.394531 459.898438 410.292969 499.359375 404 506.195312 C 403.398438 505.355469 402.625 504.664062 402.308594 503.804688 C 395.785156 486.332031 391.179688 468.367188 388.488281 449.914062 C 385.824219 431.652344 384.308594 413.292969 384.757812 394.875 C 385.445312 366.789062 389.195312 339.164062 397.964844 312.355469 C 399.257812 308.394531 400.667969 304.472656 402.113281 300.566406 C 402.503906 299.554688 403.253906 298.601562 404.140625 297.042969 Z M 404.140625 297.042969 " fill-opacity="1" fill-rule="nonzero"/><path fill="#d9a604" d="M 317.5 480.589844 C 316.433594 480.484375 315.371094 480.617188 314.519531 480.246094 C 311.777344 479.148438 309.125 477.867188 306.5625 476.398438 C 271.765625 455.078125 249.449219 424.613281 240.472656 384.78125 C 234.300781 357.402344 236.664062 330.558594 247.621094 304.617188 C 250.84375 296.980469 254.828125 289.769531 259.578125 282.980469 C 264.324219 276.1875 269.734375 269.96875 275.796875 264.324219 C 277.128906 263.074219 278.261719 261.390625 280.460938 261.117188 C 280.675781 261.714844 281.058594 262.226562 280.964844 262.621094 C 280.734375 263.457031 280.390625 264.246094 279.933594 264.984375 C 271.160156 279.964844 266.902344 296.335938 265.320312 313.476562 C 261.75 352.082031 267.242188 389.355469 282.164062 425.167969 C 289.933594 443.789062 300.375 460.675781 314.699219 475.070312 C 316.128906 476.476562 317.945312 477.753906 317.5 480.589844 Z M 317.5 480.589844 " fill-opacity="1" fill-rule="nonzero"/><path fill="#d9a604" d="M 527.800781 260.207031 C 530.136719 262.195312 531.753906 263.4375 533.21875 264.847656 C 551.273438 282.210938 562.835938 303.210938 568.148438 327.644531 C 579.363281 379.246094 558.820312 432.445312 518 465.308594 C 511.914062 470.257812 505.414062 474.578125 498.492188 478.269531 C 496.273438 479.457031 493.949219 480.667969 490.726562 480.753906 C 491.046875 479.394531 491.085938 478.402344 491.511719 477.617188 C 492.070312 476.726562 492.738281 475.933594 493.515625 475.234375 C 510.085938 458.730469 521.316406 438.90625 529.453125 417.199219 C 536.957031 397.0625 541.582031 376.285156 543.324219 354.867188 C 544.617188 340.640625 544.523438 326.421875 543.046875 312.210938 C 541.25 295.84375 537.222656 280.113281 528.910156 265.699219 C 527.90625 263.964844 527.933594 263.945312 527.800781 260.207031 Z M 527.800781 260.207031 " fill-opacity="1" fill-rule="nonzero"/><path fill="#749868" d="M 452.351562 463.421875 C 457.789062 457.976562 468.6875 438.726562 472.929688 427.308594 C 470.265625 422.617188 467.511719 417.804688 464.804688 412.972656 C 461.476562 407.035156 458.746094 400.84375 457.148438 394.207031 C 456.625 392.011719 456.242188 389.792969 456.003906 387.550781 C 455.886719 386.335938 456 385.140625 456.34375 383.964844 C 457.089844 381.351562 459.578125 380.25 462.109375 381.242188 C 463.171875 381.667969 464.125 382.273438 464.960938 383.058594 C 465.800781 383.839844 466.46875 384.746094 466.96875 385.78125 C 468.765625 389.335938 470.714844 392.898438 471.859375 396.683594 C 473.457031 401.988281 474.375 407.484375 475.570312 412.910156 C 475.890625 414.386719 476.125 415.890625 476.617188 418.558594 C 481.601562 405.800781 485.128906 392.652344 487.199219 379.113281 C 486.046875 378.003906 484.980469 376.949219 483.816406 375.925781 C 478.113281 370.800781 472.667969 365.417969 468.445312 358.972656 C 466.890625 356.664062 465.609375 354.210938 464.597656 351.613281 C 463.8125 349.480469 463.429688 347.28125 463.457031 345.007812 C 463.515625 340.136719 467.222656 338.214844 471.292969 341.023438 C 473.398438 342.574219 475.230469 344.402344 476.78125 346.511719 C 480.664062 351.503906 483.234375 357.203125 485.503906 363.054688 C 486.1875 365.128906 487.199219 367.027344 488.53125 368.753906 C 488.71875 367.175781 488.902344 365.601562 489.085938 364.027344 C 489.261719 362.472656 489.554688 360.917969 489.578125 359.367188 C 489.648438 353.628906 489.578125 347.890625 489.660156 342.167969 C 489.703125 339.449219 488.832031 337.171875 487.402344 334.855469 C 481.929688 326.066406 478.058594 316.625 475.785156 306.53125 C 474.761719 301.964844 474.003906 297.28125 475.09375 292.582031 C 475.386719 291.042969 475.933594 289.597656 476.722656 288.25 C 479.261719 284.320312 484.609375 284.03125 487.207031 287.933594 C 488.976562 290.542969 490.179688 293.390625 490.808594 296.480469 C 491.769531 301.949219 492.367188 307.453125 492.59375 313 C 492.816406 317.5 492.183594 322.03125 492.257812 326.542969 C 492.355469 332.789062 492.8125 339.027344 493.023438 345.265625 C 493.15625 348.644531 493.175781 352.019531 493.953125 355.542969 C 494.585938 354.390625 495.160156 353.195312 495.851562 352.082031 C 498.328125 348.101562 500.753906 344.089844 503.378906 340.21875 C 504.390625 338.785156 505.613281 337.566406 507.046875 336.558594 C 511.039062 333.660156 514.859375 335.339844 515.058594 340.195312 C 515.171875 342.644531 514.804688 345.015625 513.949219 347.308594 C 512.726562 350.574219 511.113281 353.636719 509.105469 356.484375 C 504.125 363.359375 498.871094 370.066406 493.484375 376.675781 C 491.808594 378.695312 490.679688 380.984375 490.097656 383.539062 C 487.910156 392.65625 485.582031 401.738281 483.316406 410.835938 C 482.878906 412.207031 482.878906 413.574219 483.316406 414.941406 C 484.464844 413.25 485.601562 411.550781 486.761719 409.871094 C 490.027344 405.15625 493.207031 400.378906 496.597656 395.757812 C 497.980469 393.964844 499.5625 392.363281 501.335938 390.953125 C 503 389.570312 505.019531 388.925781 507.15625 390.03125 C 508.992188 390.972656 509.804688 393.210938 509.304688 395.960938 C 508.5625 399.585938 507.148438 402.925781 505.058594 405.980469 C 502.25 410.414062 498.910156 414.40625 495.042969 417.957031 C 491.175781 421.503906 486.910156 424.488281 482.25 426.90625 C 477.8125 429.195312 475.074219 432.179688 473.074219 436.714844 C 470.121094 443.371094 466.347656 449.652344 462.90625 456.082031 C 462.273438 457.257812 461.558594 458.390625 461.363281 460.050781 C 462.152344 459.535156 462.929688 459.007812 463.726562 458.511719 C 468.460938 455.601562 473.121094 452.578125 477.960938 449.863281 C 479.96875 448.78125 482.105469 448.089844 484.367188 447.78125 C 488.570312 447.160156 491.023438 450.316406 489.539062 454.320312 C 488.941406 455.773438 488.125 457.097656 487.09375 458.285156 C 484.609375 461.265625 481.621094 463.613281 478.140625 465.324219 C 470.527344 469.210938 462.601562 472.394531 454.121094 473.6875 C 452.652344 473.859375 451.277344 474.320312 449.996094 475.066406 C 448.714844 475.8125 447.640625 476.78125 446.765625 477.976562 C 445.117188 480 443.335938 481.898438 441.421875 483.675781 C 440.761719 484.246094 440.023438 484.675781 439.199219 484.960938 C 438.480469 485.261719 437.4375 484.140625 437.714844 483.378906 C 437.929688 482.722656 438.238281 482.113281 438.644531 481.554688 C 439.390625 480.601562 440.238281 479.71875 441.054688 478.8125 C 447.074219 472.1875 447.269531 471.335938 445.058594 462.414062 C 444.105469 458.53125 442.953125 454.644531 442.4375 450.730469 C 441.90625 446.59375 441.757812 442.441406 441.992188 438.277344 C 442.183594 435.828125 442.894531 433.539062 444.128906 431.410156 C 446.121094 427.902344 450.019531 427.917969 452.035156 431.449219 C 453.210938 433.59375 453.953125 435.882812 454.253906 438.3125 C 455.148438 444.75 454.910156 451.144531 453.550781 457.496094 C 453.140625 459.3125 452.800781 461.160156 452.351562 463.421875 Z M 452.351562 463.421875 " fill-opacity="1" fill-rule="nonzero"/><path fill="#749868" d="M 315.351562 355.253906 C 315.351562 352.148438 315.097656 349.023438 315.398438 345.945312 C 316.277344 336.066406 316.390625 326.183594 315.734375 316.289062 C 315.324219 309.464844 315.964844 302.742188 317.652344 296.117188 C 318.34375 293.613281 319.292969 291.207031 320.492188 288.902344 C 320.761719 288.296875 321.117188 287.75 321.558594 287.261719 C 322.003906 286.769531 322.511719 286.363281 323.085938 286.035156 C 323.664062 285.710938 324.273438 285.480469 324.921875 285.351562 C 325.570312 285.21875 326.222656 285.195312 326.878906 285.273438 C 329.824219 285.519531 331.664062 287.304688 332.601562 289.921875 C 333.15625 291.570312 333.484375 293.261719 333.582031 294.996094 C 334.039062 301.515625 332.8125 307.816406 330.640625 313.925781 C 327.910156 321.632812 324.871094 329.199219 320.34375 336.085938 C 319.570312 337.25 319.125 338.53125 319.003906 339.925781 C 318.398438 349.46875 318.40625 359.003906 319.914062 368.832031 C 321.847656 367.394531 322.0625 365.375 322.6875 363.683594 C 324.859375 357.972656 327.367188 352.441406 330.933594 347.464844 C 332.253906 345.628906 333.722656 343.921875 335.339844 342.34375 C 336.347656 341.359375 337.511719 340.617188 338.832031 340.125 C 341.902344 339.015625 344.597656 340.566406 344.871094 343.820312 C 345.121094 346.085938 344.898438 348.304688 344.203125 350.476562 C 343.042969 353.570312 341.554688 356.496094 339.738281 359.253906 C 335.535156 365.71875 330.03125 371.042969 324.316406 376.15625 C 323.289062 377.070312 322.289062 378.007812 321.167969 379.035156 C 323.265625 392.550781 326.792969 405.679688 331.75 418.425781 C 332.183594 416.207031 332.402344 415.171875 332.582031 414.136719 C 332.765625 413.105469 332.832031 412.058594 333.082031 411.046875 C 334.460938 405.5 335.722656 399.914062 337.339844 394.402344 C 338.117188 391.765625 339.496094 389.292969 340.757812 386.824219 C 341.402344 385.582031 342.207031 384.457031 343.183594 383.449219 C 344.902344 381.664062 346.84375 380.082031 349.585938 381.164062 C 352.445312 382.273438 352.421875 384.808594 352.359375 387.300781 C 352.265625 391.890625 350.816406 396.179688 349.320312 400.445312 C 346.421875 408.695312 341.851562 416.109375 337.523438 423.636719 C 336.835938 424.835938 336.117188 426.015625 335.304688 427.386719 C 340.664062 440.039062 347.285156 451.964844 355.917969 463.007812 C 355.675781 461.660156 355.5 460.292969 355.167969 458.96875 C 353.449219 452.121094 353.503906 445.179688 354.191406 438.246094 C 354.421875 435.996094 355.054688 433.863281 356.085938 431.847656 C 358.226562 427.785156 362.515625 427.753906 364.523438 431.847656 C 365.699219 434.386719 366.402344 437.050781 366.628906 439.835938 C 367.277344 446.496094 365.816406 452.964844 364.1875 459.390625 C 363.503906 462.074219 362.976562 464.804688 362.433594 467.523438 C 361.777344 470.8125 362.488281 473.691406 364.964844 476.105469 C 366.328125 477.445312 367.554688 478.917969 368.796875 480.371094 C 369.523438 481.121094 370.125 481.960938 370.605469 482.886719 C 370.816406 483.351562 370.527344 484.203125 370.191406 484.683594 C 369.75 484.992188 369.277344 485.039062 368.78125 484.832031 C 367.867188 484.335938 367.042969 483.71875 366.304688 482.984375 C 364.417969 481.183594 362.660156 479.261719 361.027344 477.222656 C 359.4375 475.074219 357.398438 474.203125 354.886719 473.816406 C 346.390625 472.484375 338.460938 469.433594 330.8125 465.585938 C 327.046875 463.695312 323.628906 461.292969 321.0625 457.914062 C 319.984375 456.542969 319.207031 455.019531 318.738281 453.34375 C 317.902344 449.875 319.996094 447.378906 323.539062 447.734375 C 325.808594 447.945312 327.957031 448.582031 329.980469 449.636719 C 334.851562 452.292969 339.542969 455.277344 344.285156 458.15625 C 345.261719 458.75 346.171875 459.457031 347.332031 460.265625 C 347.273438 459.5 347.332031 459.15625 347.210938 458.914062 C 341.878906 450.339844 337.203125 441.421875 333.1875 432.160156 C 332.882812 431.441406 332.453125 430.8125 331.894531 430.273438 C 331.339844 429.730469 330.699219 429.316406 329.976562 429.03125 C 323.324219 425.859375 317.363281 421.703125 312.085938 416.5625 C 307.902344 412.578125 304.234375 408.140625 301.707031 402.941406 C 300.363281 400.300781 299.507812 397.511719 299.136719 394.574219 C 298.710938 390.300781 302.328125 388.144531 306.058594 390.332031 C 308.015625 391.503906 309.679688 393.003906 311.050781 394.824219 C 314.519531 399.390625 317.746094 404.132812 321.011719 408.84375 C 322.679688 411.253906 324.242188 413.742188 326.507812 415.992188 C 326.34375 414.980469 326.125 413.984375 325.859375 412.996094 C 322.636719 403.425781 320.132812 393.671875 318.351562 383.734375 C 317.824219 380.964844 316.625 378.535156 314.742188 376.4375 C 308.714844 369.226562 302.535156 362.160156 297.671875 354.074219 C 295.597656 350.628906 293.652344 347.09375 293.3125 343.019531 C 293.160156 341.117188 293.410156 339.265625 294.066406 337.472656 C 294.15625 337.222656 294.269531 336.988281 294.410156 336.761719 C 294.550781 336.539062 294.714844 336.332031 294.902344 336.144531 C 295.085938 335.953125 295.289062 335.789062 295.511719 335.644531 C 295.730469 335.5 295.964844 335.378906 296.214844 335.285156 C 296.460938 335.191406 296.714844 335.125 296.976562 335.085938 C 297.238281 335.046875 297.5 335.035156 297.765625 335.054688 C 298.027344 335.070312 298.289062 335.117188 298.542969 335.191406 C 298.796875 335.265625 299.039062 335.363281 299.273438 335.492188 C 301.082031 336.40625 302.984375 337.621094 304.15625 339.214844 C 307.128906 343.253906 309.75 347.566406 312.441406 351.804688 C 313.105469 352.984375 313.703125 354.199219 314.234375 355.449219 Z M 315.351562 355.253906 " fill-opacity="1" fill-rule="nonzero"/><path fill="#749868" d="M 626.582031 332.652344 C 628.335938 323.050781 628.054688 313.566406 627.214844 304.0625 C 627.027344 301.8125 626.542969 299.632812 625.769531 297.515625 C 624.992188 295.398438 623.949219 293.421875 622.640625 291.589844 C 618.828125 285.976562 615.367188 280.160156 612.253906 274.132812 C 610.742188 271.277344 609.949219 267.953125 609.34375 264.746094 C 609.085938 262.835938 609.320312 260.984375 610.042969 259.199219 C 610.164062 258.867188 610.316406 258.554688 610.5 258.253906 C 610.679688 257.953125 610.886719 257.671875 611.125 257.414062 C 611.359375 257.152344 611.613281 256.914062 611.894531 256.703125 C 612.175781 256.492188 612.472656 256.308594 612.785156 256.152344 C 613.101562 255.996094 613.425781 255.871094 613.765625 255.777344 C 614.101562 255.683594 614.445312 255.625 614.796875 255.59375 C 615.144531 255.566406 615.496094 255.570312 615.84375 255.609375 C 616.191406 255.644531 616.535156 255.714844 616.871094 255.820312 C 618.640625 256.339844 620.578125 257.183594 621.808594 258.488281 C 623.726562 260.507812 625.285156 262.769531 626.492188 265.277344 C 628.542969 269.585938 629.601562 274.125 629.671875 278.894531 C 629.75 284.441406 629.671875 289.992188 629.671875 295.539062 C 629.613281 297.277344 629.667969 299.015625 629.84375 300.75 C 631.175781 310.824219 631.730469 320.941406 631.507812 331.101562 C 632.035156 330.152344 632.617188 329.234375 633.078125 328.25 C 634.792969 324.449219 636.199219 320.484375 638.210938 316.855469 C 639.792969 314.015625 642 311.484375 644.144531 309 C 644.417969 308.652344 644.738281 308.351562 645.105469 308.105469 C 645.476562 307.859375 645.871094 307.675781 646.296875 307.558594 C 646.722656 307.4375 647.160156 307.386719 647.601562 307.402344 C 648.042969 307.421875 648.472656 307.507812 648.886719 307.660156 C 650.957031 308.4375 651.496094 310.28125 651.664062 312.285156 C 651.96875 315.316406 651.414062 318.1875 650 320.886719 C 648.015625 324.75 645.738281 328.429688 643.171875 331.929688 C 639.734375 336.582031 635.6875 340.625 631.03125 344.058594 C 630.035156 344.777344 629.390625 345.734375 629.101562 346.925781 C 626.851562 360.382812 622.441406 373.167969 617.246094 385.707031 C 617.191406 385.835938 617.296875 386.03125 617.433594 386.730469 C 618.375 385.9375 619.210938 385.320312 619.9375 384.589844 C 624.859375 379.683594 629.65625 374.640625 634.722656 369.886719 C 636.667969 368.132812 638.847656 366.75 641.265625 365.734375 C 644.632812 364.253906 646.8125 365.800781 646.691406 369.417969 C 646.566406 371.332031 646.132812 373.167969 645.386719 374.933594 C 644.011719 378.191406 641.980469 380.96875 639.28125 383.257812 C 631.515625 390.085938 622.992188 395.722656 612.761719 398.238281 C 612.078125 398.355469 611.441406 398.605469 610.863281 398.992188 C 610.28125 399.378906 609.804688 399.867188 609.433594 400.457031 C 604.363281 408.300781 599.140625 416.070312 593.730469 424.261719 C 594.929688 423.707031 595.949219 423.191406 596.929688 422.742188 C 601.519531 420.691406 606.039062 418.4375 610.75 416.71875 C 612.96875 415.914062 615.539062 415.886719 617.921875 416.003906 C 620.585938 416.128906 622.011719 418.136719 621.359375 420.722656 C 620.882812 422.394531 620.101562 423.90625 619.011719 425.261719 C 617.046875 427.785156 614.277344 429.328125 611.359375 430.539062 C 607.816406 432.035156 604.148438 433.070312 600.347656 433.652344 C 596.546875 434.230469 592.734375 434.332031 588.90625 433.957031 C 587.535156 433.824219 586.164062 433.617188 584.75 433.445312 C 581.15625 436.558594 577.648438 439.660156 574.058594 442.660156 C 572.582031 443.882812 571.023438 444.980469 569.375 445.953125 C 569.066406 446.101562 568.746094 446.140625 568.410156 446.070312 C 568.074219 445.996094 567.800781 445.828125 567.582031 445.566406 C 567.363281 445.300781 567.25 445 567.242188 444.65625 C 567.234375 444.3125 567.332031 444.007812 567.535156 443.730469 C 568.460938 442.695312 569.46875 441.753906 570.5625 440.898438 C 574.445312 437.679688 578.167969 434.351562 581.714844 430.75 C 579.074219 422.992188 578.066406 415.027344 578.695312 406.859375 C 579.019531 403.398438 579.695312 400.003906 580.714844 396.683594 C 581.730469 393.265625 583.574219 391.761719 585.59375 392.078125 C 588.519531 392.542969 589.449219 394.964844 589.945312 397.332031 C 590.5 399.894531 590.71875 402.480469 590.597656 405.101562 C 590.332031 410.125 589.707031 415.132812 589.25 420.148438 C 589.257812 420.648438 589.316406 421.148438 589.421875 421.640625 C 594.261719 417.972656 603.957031 404.527344 607.867188 396.117188 C 604.859375 390.617188 601.648438 385.257812 598.945312 379.65625 C 596.871094 375.4375 595.226562 371.0625 594.007812 366.523438 C 593.117188 363.066406 593.183594 359.308594 593.140625 355.699219 C 593.210938 354.113281 593.644531 352.632812 594.441406 351.257812 C 595.859375 348.609375 598.519531 348.015625 601.097656 349.59375 C 602.359375 350.398438 603.457031 351.386719 604.386719 352.558594 C 605.316406 353.730469 606.03125 355.023438 606.527344 356.4375 C 607.9375 360.171875 609.035156 364 609.816406 367.914062 C 610.625 372.171875 610.859375 376.539062 611.320312 380.855469 C 611.457031 382.921875 611.789062 384.953125 612.3125 386.957031 C 619.609375 372.953125 624.09375 358.160156 626.476562 342.570312 C 623.734375 340.191406 621.097656 337.949219 618.507812 335.65625 C 613.144531 330.914062 608.210938 325.753906 604.285156 319.761719 C 602.460938 317.003906 600.980469 314.074219 599.84375 310.96875 C 598.914062 308.382812 598.394531 305.28125 601.046875 303.261719 C 603.699219 301.242188 606.554688 302.636719 608.683594 304.371094 C 611.34375 306.546875 614.042969 308.953125 615.84375 311.816406 C 619.0625 316.949219 621.636719 322.488281 624.4375 327.875 C 625.222656 329.484375 625.871094 331.085938 626.582031 332.652344 Z M 626.582031 332.652344 " fill-opacity="1" fill-rule="nonzero"/><path fill="#749868" d="M 200.285156 396.09375 C 205.597656 405.738281 211.933594 414.652344 219.296875 422.835938 C 218.773438 417.699219 218.335938 413.847656 218.003906 409.988281 C 217.652344 405.832031 217.117188 401.664062 218.425781 397.566406 C 218.855469 396.0625 219.519531 394.675781 220.417969 393.398438 C 221.867188 391.488281 224.414062 391.390625 225.757812 393.367188 C 227.117188 395.378906 228.109375 397.566406 228.726562 399.917969 C 230.179688 405.734375 230.460938 411.609375 229.5625 417.539062 C 228.957031 421.824219 228.019531 426.0625 227.121094 430.949219 C 229.625 434.011719 233.148438 436.808594 236.519531 439.753906 C 237.957031 441.007812 239.46875 442.195312 240.804688 443.554688 C 241.171875 443.925781 241.28125 445.21875 241.0625 445.363281 C 240.4375 445.746094 239.394531 446.101562 238.839844 445.820312 C 237.320312 444.96875 235.902344 443.972656 234.585938 442.832031 C 231 439.816406 227.480469 436.730469 223.753906 433.496094 L 219.808594 433.921875 C 215.984375 434.355469 212.171875 434.292969 208.367188 433.726562 C 204.5625 433.164062 200.890625 432.117188 197.359375 430.59375 C 194.84375 429.414062 192.507812 427.945312 190.351562 426.1875 C 189.132812 425.171875 188.207031 423.933594 187.578125 422.476562 C 185.828125 418.671875 187.609375 415.890625 191.839844 415.886719 C 193.921875 415.832031 195.953125 416.132812 197.933594 416.785156 C 202.148438 418.359375 206.257812 420.285156 210.351562 422.128906 C 211.722656 422.738281 213.003906 423.53125 214.789062 423.738281 C 214.363281 423.09375 213.941406 422.445312 213.503906 421.804688 C 208.871094 415.082031 204.167969 408.40625 199.628906 401.609375 C 198.410156 399.769531 197.183594 398.679688 194.90625 398.074219 C 184.425781 395.273438 175.597656 389.480469 167.851562 382.019531 C 166.4375 380.707031 165.234375 379.226562 164.238281 377.574219 C 163.242188 375.925781 162.492188 374.171875 161.988281 372.308594 C 161.675781 371.3125 161.5 370.292969 161.460938 369.246094 C 161.511719 366.089844 163.804688 364.382812 166.734375 365.613281 C 169.164062 366.589844 171.367188 367.9375 173.347656 369.648438 C 177.855469 373.730469 182.09375 378.101562 186.402344 382.40625 C 187.859375 383.859375 189.175781 385.441406 191.191406 386.640625 C 191.027344 385.722656 190.789062 384.824219 190.480469 383.945312 C 185.574219 372.570312 181.777344 360.863281 179.675781 348.640625 C 179.511719 347.53125 179.132812 346.5 178.539062 345.542969 C 177.949219 344.589844 177.191406 343.792969 176.269531 343.152344 C 169.859375 338.207031 164.59375 332.25 160.46875 325.28125 C 158.28125 321.6875 156.71875 317.808594 156.707031 313.5 C 156.707031 311.203125 156.863281 308.789062 159.386719 307.761719 C 161.914062 306.734375 163.882812 308.195312 165.292969 309.980469 C 167.472656 312.679688 169.402344 315.550781 171.085938 318.585938 C 172.878906 321.949219 174.132812 325.59375 175.648438 329.128906 C 175.988281 330.015625 176.554688 330.71875 177.351562 331.242188 C 177.285156 330.132812 177.15625 329.0625 177.15625 327.972656 C 177.15625 323.457031 176.871094 318.90625 177.289062 314.425781 C 178.1875 304.738281 179.027344 295.066406 178.566406 285.3125 C 178.175781 279.15625 178.996094 273.164062 181.03125 267.335938 C 182.226562 264.007812 183.710938 260.851562 186.460938 258.582031 C 187.921875 257.34375 189.566406 256.4375 191.394531 255.863281 C 194.851562 254.863281 198.054688 256.972656 198.847656 260.535156 C 199.167969 262.078125 199.253906 263.636719 199.113281 265.210938 C 198.972656 266.78125 198.605469 268.296875 198.015625 269.761719 C 196.949219 272.707031 195.640625 275.539062 194.09375 278.261719 C 190.921875 283.65625 187.554688 288.929688 184.105469 294.164062 C 182.800781 296.039062 182.003906 298.109375 181.71875 300.375 C 180.46875 311.085938 179.285156 321.78125 181.101562 333.332031 C 181.976562 331.828125 182.566406 330.929688 183.042969 330.003906 C 185.691406 324.722656 188.039062 319.289062 191.035156 314.203125 C 192.957031 311.089844 195.261719 308.292969 197.949219 305.808594 C 199.496094 304.316406 201.726562 303.300781 203.832031 302.671875 C 206.5 301.878906 208.742188 303.5625 208.980469 306.351562 C 209.179688 308.097656 208.980469 309.796875 208.386719 311.449219 C 207.167969 314.515625 205.667969 317.429688 203.882812 320.199219 C 198.816406 327.789062 192.226562 333.976562 185.261719 339.808594 L 182.226562 342.371094 C 182.738281 353.839844 190.601562 379.0625 196.351562 387.3125 C 196.792969 382.875 197.210938 378.808594 197.597656 374.757812 C 198.121094 369.378906 198.859375 364.015625 200.882812 358.988281 C 202.054688 356.277344 203.535156 353.75 205.324219 351.402344 C 206.679688 349.550781 208.691406 348.285156 211.21875 349.011719 C 213.742188 349.738281 214.683594 351.902344 215.101562 354.148438 C 215.8125 358.144531 215.671875 362.109375 214.675781 366.039062 C 212.875 373.347656 209.585938 380.003906 205.980469 386.585938 C 204.3125 389.632812 202.425781 392.550781 200.285156 396.09375 Z M 200.285156 396.09375 " fill-opacity="1" fill-rule="nonzero"/><path fill="#d9a604" d="M 187.605469 439.953125 C 185.179688 440.652344 183.542969 439.472656 181.90625 438.683594 C 175.621094 435.628906 169.792969 431.863281 164.433594 427.382812 C 146.359375 412.472656 134.261719 393.480469 126.746094 371.488281 C 118.976562 348.742188 117.023438 325.398438 120.089844 301.582031 C 122.078125 286.890625 125.792969 272.648438 131.238281 258.859375 C 131.765625 257.582031 132.378906 256.34375 133.074219 255.148438 C 133.199219 254.921875 133.660156 254.875 134.042969 254.714844 C 135.621094 255.320312 135.105469 256.683594 134.925781 257.761719 C 132.917969 269.964844 132.867188 282.328125 132.707031 294.660156 C 132.515625 313.363281 134.796875 331.757812 139.550781 349.84375 C 141.511719 357.558594 143.914062 365.132812 146.753906 372.5625 C 149.597656 379.996094 152.863281 387.242188 156.550781 394.292969 C 160.238281 401.347656 164.324219 408.160156 168.804688 414.738281 C 173.285156 421.316406 178.132812 427.609375 183.347656 433.625 C 184.457031 434.945312 185.675781 436.21875 186.679688 437.613281 C 187.167969 438.167969 187.277344 439.03125 187.605469 439.953125 Z M 187.605469 439.953125 " fill-opacity="1" fill-rule="nonzero"/><path fill="#d9a604" d="M 621.152344 440.199219 C 620.6875 437.980469 622.128906 437.007812 623.074219 435.859375 C 625.609375 432.773438 628.324219 429.828125 630.78125 426.683594 C 636.191406 419.820312 641.152344 412.648438 645.660156 405.164062 C 650.167969 397.679688 654.191406 389.941406 657.726562 381.953125 C 661.257812 373.960938 664.277344 365.78125 666.78125 357.410156 C 669.285156 349.039062 671.253906 340.542969 672.6875 331.925781 C 676.019531 312.433594 676.277344 292.871094 675.003906 273.230469 C 674.675781 268.234375 674.015625 263.214844 673.570312 258.199219 C 673.546875 257.054688 673.59375 255.914062 673.710938 254.777344 C 675.96875 254.71875 676.144531 256.339844 676.628906 257.523438 C 680.066406 266.074219 682.882812 274.828125 685.070312 283.78125 C 687.21875 292.488281 688.625 301.316406 689.289062 310.261719 C 689.953125 319.207031 689.863281 328.144531 689.019531 337.074219 C 686.894531 360.820312 679.585938 382.941406 666.21875 402.832031 C 656.972656 416.566406 645.46875 428.015625 631.015625 436.296875 C 628.742188 437.578125 626.414062 438.738281 624.023438 439.777344 C 623.164062 440.152344 622.101562 440.070312 621.152344 440.199219 Z M 621.152344 440.199219 " fill-opacity="1" fill-rule="nonzero"/><path fill="#d9a604" d="M 449.5625 121.613281 C 450.316406 121.550781 451.171875 121.234375 451.78125 121.472656 C 455.019531 122.699219 458.316406 123.847656 461.386719 125.429688 C 471 130.359375 479.878906 136.378906 488.023438 143.484375 C 493.570312 148.300781 498.410156 153.703125 502.101562 160.082031 C 504.121094 163.574219 505.65625 167.257812 505.890625 171.324219 C 506.011719 173.054688 505.878906 174.765625 505.492188 176.457031 C 504.269531 181.359375 499.992188 183.515625 495.476562 181.34375 C 493.261719 180.304688 491.324219 178.886719 489.664062 177.089844 C 486.441406 173.457031 483.449219 169.644531 480.6875 165.652344 C 478.222656 162.097656 476.246094 158.203125 474.027344 154.496094 C 470.976562 149.453125 468.015625 144.335938 464.738281 139.445312 C 460.453125 132.84375 455.394531 126.898438 449.5625 121.613281 Z M 449.5625 121.613281 " fill-opacity="1" fill-rule="nonzero"/><path fill="#d9a604" d="M 359.886719 121.824219 C 348.132812 130.894531 341.402344 142.453125 334.605469 153.96875 C 331.519531 159.191406 328.4375 164.433594 325.054688 169.460938 C 322.988281 172.472656 320.640625 175.246094 318.011719 177.78125 C 316.25 179.472656 314.238281 180.777344 311.980469 181.699219 C 308.511719 183.132812 304.828125 181.429688 303.371094 177.992188 C 302.316406 175.722656 301.980469 173.351562 302.367188 170.875 C 303.023438 167.078125 304.308594 163.507812 306.21875 160.160156 C 308.9375 155.476562 312.242188 151.25 316.128906 147.476562 C 326.007812 137.789062 337.332031 130.152344 349.730469 124.09375 C 352.101562 123.019531 354.53125 122.105469 357.023438 121.351562 C 357.527344 121.179688 358.214844 121.523438 359.886719 121.824219 Z M 359.886719 121.824219 " fill-opacity="1" fill-rule="nonzero"/><path fill="#749868" d="M 404.074219 262.976562 C 403.429688 262.441406 402.835938 261.851562 402.292969 261.210938 C 396.941406 253.617188 392.804688 245.488281 391.195312 236.210938 C 390.585938 232.902344 390.792969 229.648438 391.820312 226.445312 C 393.652344 220.777344 398.414062 217.402344 404.417969 217.476562 C 405.113281 217.46875 405.804688 217.519531 406.492188 217.628906 C 407.179688 217.734375 407.855469 217.898438 408.515625 218.117188 C 409.175781 218.335938 409.8125 218.609375 410.429688 218.933594 C 411.042969 219.257812 411.628906 219.628906 412.183594 220.050781 C 412.738281 220.46875 413.253906 220.933594 413.730469 221.4375 C 414.210938 221.941406 414.644531 222.484375 415.03125 223.058594 C 415.421875 223.636719 415.761719 224.242188 416.050781 224.875 C 416.339844 225.507812 416.578125 226.15625 416.757812 226.828125 C 417.9375 230.789062 417.664062 234.757812 416.757812 238.675781 C 414.765625 247.261719 410.8125 254.929688 405.523438 261.9375 C 405.085938 262.347656 404.601562 262.695312 404.074219 262.976562 Z M 404.074219 262.976562 " fill-opacity="1" fill-rule="nonzero"/><path fill="#749868" d="M 383.46875 258.84375 C 381.511719 258.582031 380.140625 258.632812 378.910156 258.1875 C 371.183594 255.386719 363.925781 251.691406 357.675781 246.292969 C 355.222656 244.085938 353.070312 241.613281 351.21875 238.878906 C 350.171875 237.355469 349.449219 235.6875 349.046875 233.882812 C 348.648438 232.078125 348.597656 230.261719 348.898438 228.4375 C 349.488281 224.148438 351.824219 222.042969 356.179688 221.753906 C 358.515625 221.597656 360.789062 222.011719 362.605469 223.417969 C 364.917969 225.203125 367.273438 227.089844 369.09375 229.355469 C 375.484375 237.28125 379.492188 246.519531 383.113281 255.941406 C 383.351562 256.558594 383.277344 257.289062 383.46875 258.84375 Z M 383.46875 258.84375 " fill-opacity="1" fill-rule="nonzero"/><path fill="#749868" d="M 425.105469 258.777344 C 425.320312 257.113281 425.246094 255.886719 425.660156 254.859375 C 429.050781 246.492188 432.625 238.179688 438.101562 230.929688 C 440.15625 228.355469 442.460938 226.023438 445.011719 223.9375 C 446.03125 223.09375 447.175781 222.484375 448.441406 222.105469 C 449.710938 221.726562 451.003906 221.613281 452.320312 221.757812 C 456.628906 222.074219 459.011719 224.242188 459.566406 228.5 C 459.847656 230.324219 459.78125 232.140625 459.371094 233.941406 C 458.957031 235.742188 458.226562 237.402344 457.179688 238.925781 C 455.324219 241.65625 453.167969 244.121094 450.703125 246.320312 C 444.464844 251.714844 437.203125 255.417969 429.476562 258.203125 C 428.273438 258.636719 426.890625 258.558594 425.105469 258.777344 Z M 425.105469 258.777344 " fill-opacity="1" fill-rule="nonzero"/><path fill="#749868" d="M 621.800781 200.113281 C 620.855469 199.878906 619.929688 199.574219 619.027344 199.199219 C 612.414062 195.714844 605.976562 191.9375 600.5 186.78125 C 598.445312 184.90625 596.640625 182.8125 595.089844 180.507812 C 593.84375 178.605469 593.042969 176.527344 592.6875 174.28125 C 592.640625 173.992188 592.609375 173.703125 592.597656 173.410156 C 592.585938 173.117188 592.59375 172.828125 592.621094 172.535156 C 592.644531 172.242188 592.6875 171.953125 592.75 171.667969 C 592.808594 171.382812 592.886719 171.101562 592.984375 170.824219 C 593.082031 170.550781 593.191406 170.28125 593.324219 170.019531 C 593.453125 169.753906 593.597656 169.503906 593.757812 169.257812 C 593.917969 169.015625 594.09375 168.78125 594.285156 168.558594 C 594.472656 168.335938 594.675781 168.125 594.894531 167.929688 C 595.109375 167.730469 595.335938 167.546875 595.574219 167.378906 C 595.8125 167.210938 596.0625 167.054688 596.320312 166.917969 C 596.578125 166.78125 596.84375 166.660156 597.117188 166.554688 C 597.386719 166.449219 597.667969 166.359375 597.949219 166.289062 C 598.234375 166.21875 598.523438 166.164062 598.8125 166.128906 C 599.101562 166.09375 599.394531 166.078125 599.6875 166.078125 C 599.980469 166.082031 600.269531 166.101562 600.558594 166.136719 C 600.851562 166.175781 601.136719 166.230469 601.421875 166.304688 C 602.636719 166.632812 603.8125 167.082031 604.9375 167.644531 C 606.066406 168.210938 607.125 168.882812 608.121094 169.660156 C 609.113281 170.4375 610.019531 171.304688 610.839844 172.265625 C 611.65625 173.222656 612.371094 174.253906 612.984375 175.359375 C 615.214844 179.472656 617.207031 183.699219 618.960938 188.035156 C 620.128906 190.9375 621.128906 193.894531 621.953125 196.914062 C 622.203125 197.75 621.890625 198.777344 621.800781 200.113281 Z M 621.800781 200.113281 " fill-opacity="1" fill-rule="nonzero"/><path fill="#749868" d="M 605.023438 210.230469 C 604.167969 210.871094 603.816406 211.292969 603.355469 211.449219 C 592.992188 215.101562 582.929688 214.585938 573.3125 209.03125 C 571.953125 208.257812 570.703125 207.332031 569.566406 206.257812 C 564.773438 201.65625 566.597656 194.605469 573.035156 192.824219 C 576.160156 191.964844 579.207031 192.417969 582.1875 193.632812 C 586.875 195.535156 591.203125 198.054688 595.167969 201.203125 C 598.550781 203.863281 602.085938 206.382812 605.023438 210.230469 Z M 605.023438 210.230469 " fill-opacity="1" fill-rule="nonzero"/><path fill="#749868" d="M 644.976562 173.367188 C 644.421875 175.714844 644.316406 178.261719 643.277344 180.363281 C 641.140625 184.695312 638.566406 188.816406 636.0625 192.957031 C 635.53125 193.65625 634.828125 194.042969 633.949219 194.117188 C 632.785156 194.175781 632.070312 193.203125 631.925781 192.113281 C 631.007812 185.101562 629.148438 178.109375 630.78125 170.984375 C 631.246094 168.773438 632.054688 166.691406 633.199219 164.746094 C 635.726562 160.734375 639.730469 160.894531 642.394531 164.898438 C 644.089844 167.441406 644.691406 170.28125 644.976562 173.367188 Z M 644.976562 173.367188 " fill-opacity="1" fill-rule="nonzero"/><path fill="#749868" d="M 203.269531 210.859375 C 204.140625 209.53125 204.480469 208.730469 205.058594 208.1875 C 210.75 202.816406 216.761719 197.835938 223.992188 194.644531 C 226.367188 193.589844 228.835938 192.867188 231.40625 192.472656 C 232.804688 192.246094 234.175781 192.347656 235.527344 192.777344 C 236.875 193.210938 238.050781 193.921875 239.058594 194.921875 C 242.285156 198.035156 242.507812 202.195312 239.5 205.574219 C 238.679688 206.480469 237.753906 207.265625 236.726562 207.933594 C 226.410156 214.824219 215.480469 215.265625 203.269531 210.859375 Z M 203.269531 210.859375 " fill-opacity="1" fill-rule="nonzero"/><path fill="#749868" d="M 186.457031 200.164062 C 186.457031 198.667969 186.21875 197.613281 186.496094 196.71875 C 188.632812 189.753906 191.09375 182.914062 194.652344 176.527344 C 196.871094 172.5 199.933594 169.214844 204.203125 167.296875 C 207.320312 165.894531 210.519531 165.148438 213.410156 167.851562 C 216.398438 170.625 216.292969 174.148438 214.914062 177.457031 C 213.824219 180.023438 212.304688 182.308594 210.355469 184.308594 C 207.414062 187.25 204.25 189.925781 200.863281 192.339844 C 197.644531 194.664062 194.121094 196.574219 190.664062 198.554688 C 189.523438 199.203125 188.1875 199.515625 186.457031 200.164062 Z M 186.457031 200.164062 " fill-opacity="1" fill-rule="nonzero"/><path fill="#749868" d="M 178.304688 177.667969 C 177.839844 181.792969 177.316406 186.4375 176.773438 191.078125 C 176.707031 191.589844 176.574219 192.089844 176.382812 192.574219 C 175.703125 194.34375 173.777344 194.84375 172.710938 193.375 C 169.355469 188.746094 165.886719 184.085938 164.5 178.460938 C 163.808594 175.683594 163.976562 172.617188 164.210938 169.714844 C 164.34375 168.050781 165.1875 166.386719 166.074219 164.945312 C 168.566406 160.882812 172.734375 160.722656 175.207031 164.714844 C 176.453125 166.71875 177.160156 169.128906 177.75 171.445312 C 178.210938 173.265625 178.109375 175.226562 178.304688 177.667969 Z M 178.304688 177.667969 " fill-opacity="1" fill-rule="nonzero"/><path fill="#ffd2c3" d="M 481.214844 120.347656 C 485.398438 118.832031 488.300781 119.527344 491.101562 120.28125 C 494.941406 121.316406 498.742188 122.550781 502.5 123.875 C 515.636719 128.421875 528.300781 134.039062 540.484375 140.730469 C 547.042969 144.320312 553.222656 148.480469 559.019531 153.203125 C 560.632812 154.519531 562.113281 155.96875 563.457031 157.554688 C 563.964844 158.164062 563.800781 159.335938 564.011719 160.847656 C 563.054688 160.378906 562.128906 159.855469 561.238281 159.269531 C 543.554688 145.425781 523.503906 136.027344 502.632812 128.199219 C 496.628906 125.949219 490.53125 123.96875 484.480469 121.84375 C 483.742188 121.617188 483.050781 121.21875 481.214844 120.347656 Z M 481.214844 120.347656 " fill-opacity="1" fill-rule="nonzero"/><path fill="#ffd2c3" d="M 325.757812 119.898438 C 322.019531 122.921875 317.710938 123.613281 313.742188 125.207031 C 309.777344 126.800781 305.621094 128.269531 301.582031 129.867188 C 297.539062 131.464844 293.515625 133.089844 289.539062 134.816406 C 285.558594 136.542969 281.585938 138.316406 277.703125 140.253906 C 273.816406 142.191406 269.964844 144.203125 266.238281 146.425781 C 262.507812 148.644531 259.023438 151.21875 255.304688 153.503906 C 251.726562 155.722656 248.644531 158.8125 244.65625 160.476562 C 243.785156 158.78125 244.5625 157.757812 245.398438 156.9375 C 247.132812 155.238281 248.941406 153.609375 250.820312 152.066406 C 258.972656 145.449219 268.050781 140.320312 277.425781 135.753906 C 288.964844 130.035156 300.890625 125.269531 313.195312 121.457031 C 316.371094 120.589844 319.59375 119.925781 322.855469 119.464844 C 323.777344 119.332031 324.785156 119.746094 325.757812 119.898438 Z M 325.757812 119.898438 " fill-opacity="1" fill-rule="nonzero"/><path fill="#ffd2c3" d="M 394.761719 119.382812 C 392.582031 122.488281 390.472656 125.644531 388.214844 128.691406 C 381.707031 137.511719 376.144531 146.894531 371.527344 156.839844 C 366.785156 166.945312 363.375 177.449219 362.398438 188.664062 C 362.09375 191.246094 361.597656 193.789062 360.902344 196.296875 C 360.800781 196.691406 359.839844 197.019531 359.238281 197.085938 C 358.976562 197.113281 358.410156 196.429688 358.367188 196.03125 C 358.253906 194.824219 358.238281 193.617188 358.316406 192.40625 C 358.933594 182.828125 360.910156 173.53125 364.242188 164.527344 C 368.007812 154.046875 372.804688 144.03125 379.109375 134.839844 C 382.136719 130.402344 385.71875 126.378906 389.152344 122.25 C 390.21875 121.109375 391.390625 120.085938 392.671875 119.1875 C 393.101562 118.945312 393.5625 118.777344 394.046875 118.683594 Z M 394.761719 119.382812 " fill-opacity="1" fill-rule="nonzero"/><path fill="#ffd2c3" d="M 413.835938 119.652344 C 416.554688 119.171875 417.835938 120.648438 419.011719 122.007812 C 422.285156 125.816406 425.710938 129.550781 428.53125 133.691406 C 437.589844 147.007812 444.261719 161.460938 447.863281 177.1875 C 449.09375 182.570312 449.476562 188.152344 450.195312 193.652344 C 450.300781 194.515625 450.25 195.375 450.050781 196.226562 C 449.859375 196.714844 449.507812 197.027344 449 197.164062 C 448.488281 197.167969 448.058594 196.980469 447.707031 196.609375 C 447.398438 196.1875 447.214844 195.71875 447.152344 195.203125 C 446.722656 193.34375 446.394531 191.464844 446.164062 189.566406 C 444.984375 175.664062 440.28125 162.886719 433.855469 150.640625 C 429.6875 142.617188 424.902344 134.980469 419.507812 127.726562 C 417.515625 125.085938 415.710938 122.339844 413.835938 119.652344 Z M 413.835938 119.652344 " fill-opacity="1" fill-rule="nonzero"/></svg>