<svg xmlns="http://www.w3.org/2000/svg" xmlns:xlink="http://www.w3.org/1999/xlink" width="1080" zoomAndPan="magnify" viewBox="0 0 810 809.999993" height="1080" preserveAspectRatio="xMidYMid meet" version="1.0"><defs><clipPath id="8c0d2c8f68"><path d="M 2 153 L 808 153 L 808 779.867188 L 2 779.867188 Z M 2 153 " clip-rule="nonzero"/></clipPath></defs><g clip-path="url(#8c0d2c8f68)"><path fill="#a1c19c" d="M 405.445312 153.875 C 419.027344 153.875 432.605469 153.875 446.183594 153.875 C 451.699219 153.875 457.21875 153.941406 462.734375 153.988281 C 466.871094 154.023438 470.324219 155.03125 473.566406 158.144531 C 476.808594 161.257812 481.257812 163.375 485.292969 165.71875 C 498.683594 173.488281 512.105469 181.207031 525.554688 188.875 C 565.925781 211.988281 605.292969 236.609375 643.203125 263.523438 C 679.511719 289.304688 712.828125 318.445312 741.796875 352.335938 C 763.867188 378.15625 781.789062 406.609375 794.367188 438.242188 C 801.09375 454.871094 805.226562 472.125 806.761719 490 C 809.667969 525.566406 800.167969 557.601562 779.628906 586.480469 C 762.5 610.566406 740.164062 629.003906 715.128906 644.277344 C 691.3125 658.792969 666.230469 670.625 639.878906 679.773438 C 618.894531 687.097656 597.535156 693.511719 576.242188 700.117188 C 551.9375 707.664062 527.570312 715.046875 503.800781 724.21875 C 473.152344 736.046875 444.578125 751.675781 418.878906 772.316406 C 416.5625 774.175781 414.117188 775.847656 411.539062 777.332031 C 407.160156 779.839844 402.625 779.855469 398.265625 777.234375 C 395.882812 775.839844 393.605469 774.289062 391.433594 772.585938 C 362.78125 749.746094 330.882812 732.847656 296.441406 720.582031 C 267.464844 710.269531 238.035156 701.375 208.582031 692.566406 C 182.746094 684.84375 157.351562 675.929688 132.90625 664.472656 C 107.855469 652.730469 83.882812 639.214844 62.710938 621.160156 C 44.996094 606.019531 29.722656 588.800781 19.003906 567.972656 C 5.390625 541.578125 0.292969 513.640625 3.859375 484.105469 C 6.609375 461.292969 13.792969 439.878906 23.960938 419.441406 C 36.71875 393.617188 52.628906 369.90625 71.691406 348.3125 C 101.667969 314.472656 135.6875 285.230469 172.726562 259.363281 C 214.511719 230.179688 257.988281 203.730469 302.332031 178.671875 C 309.902344 174.394531 317.457031 170.082031 324.910156 165.609375 C 329.609375 162.785156 334.640625 160.433594 338.519531 156.351562 C 340.210938 154.578125 342.578125 154.199219 344.988281 154.152344 C 351.136719 154.042969 357.292969 153.839844 363.4375 153.886719 C 377.445312 154.003906 391.445312 154.246094 405.414062 154.4375 Z M 405.445312 153.875 " fill-opacity="1" fill-rule="nonzero"/></g><path fill="#015e56" d="M 408.214844 702.113281 L 408.214844 706.777344 C 408.214844 716.109375 408.261719 725.441406 408.214844 734.777344 C 408.191406 737.53125 407.941406 740.265625 407.464844 742.976562 C 407.34375 743.65625 406.050781 744.441406 405.15625 744.695312 C 404.894531 744.769531 404.625 744.78125 404.359375 744.742188 C 404.089844 744.699219 403.839844 744.609375 403.609375 744.460938 C 403.378906 744.316406 403.1875 744.132812 403.035156 743.90625 C 402.882812 743.679688 402.78125 743.433594 402.730469 743.167969 C 402.195312 740.6875 401.878906 738.183594 401.785156 735.648438 C 401.667969 726.742188 401.730469 717.828125 401.730469 708.921875 L 401.730469 702.316406 C 400.132812 701.546875 398.683594 700.753906 397.171875 700.132812 C 385.820312 695.453125 376.039062 688.449219 367.3125 679.929688 C 365.09375 677.648438 363.078125 675.199219 361.257812 672.585938 C 360.566406 671.632812 360.050781 670.585938 359.71875 669.457031 C 359.382812 668.324219 359.25 667.167969 359.316406 665.988281 C 359.464844 662.183594 361.820312 659.574219 365.578125 659.21875 C 367.96875 658.890625 370.238281 659.273438 372.386719 660.371094 C 375.003906 661.769531 377.519531 663.320312 379.945312 665.027344 C 385.941406 669.488281 390.796875 675.105469 395.285156 681.058594 C 397.046875 683.402344 398.859375 685.695312 400.558594 687.902344 C 401.082031 687.753906 401.296875 687.753906 401.410156 687.644531 C 401.582031 687.5 401.683594 687.316406 401.714844 687.097656 C 401.917969 674.589844 402.109375 662.082031 402.285156 649.570312 C 402.238281 648.4375 402.132812 647.308594 401.96875 646.1875 C 400.03125 645.699219 398.214844 645.292969 396.4375 644.777344 C 387.84375 642.300781 379.617188 638.929688 371.757812 634.664062 C 363.898438 630.398438 356.589844 625.339844 349.832031 619.488281 C 347.238281 617.273438 344.996094 614.742188 343.113281 611.902344 C 338.457031 604.78125 342.121094 596.964844 350.601562 595.941406 C 353.570312 595.695312 356.503906 595.910156 359.402344 596.585938 C 363.167969 597.328125 366.539062 599.210938 369.769531 601.324219 C 376.390625 605.640625 382.238281 610.828125 387.316406 616.886719 C 390.753906 620.949219 394.011719 625.109375 397.335938 629.246094 C 398.519531 630.714844 399.664062 632.222656 400.722656 633.558594 C 402.195312 633.496094 402.304688 632.648438 402.304688 631.816406 C 402.304688 619.300781 402.304688 606.789062 402.304688 594.277344 C 402.230469 593.570312 402.09375 592.875 401.898438 592.191406 C 400.851562 591.71875 399.734375 591.152344 398.574219 590.691406 C 389.660156 587.191406 381.160156 582.875 373.074219 577.742188 C 364.992188 572.613281 357.46875 566.757812 350.507812 560.179688 C 346.851562 556.632812 343.441406 552.863281 340.277344 548.871094 C 338.574219 546.691406 337.210938 544.316406 336.183594 541.746094 C 333.730469 535.953125 337.144531 528.109375 345.578125 528.15625 C 349.496094 528.066406 353.152344 529 356.546875 530.953125 C 360.527344 533.355469 364.617188 535.757812 368.054688 538.847656 C 373.097656 543.398438 377.808594 548.269531 382.183594 553.460938 C 388.195312 560.585938 393.734375 568.121094 399.484375 575.46875 C 399.996094 576.144531 400.539062 576.75 401.296875 577.664062 C 401.695312 576.984375 402.195312 576.519531 402.195312 576.058594 C 402.074219 562.070312 401.917969 548.074219 401.722656 534.066406 C 401.640625 533.5 401.5 532.949219 401.304688 532.414062 C 400.476562 531.992188 399.40625 531.378906 398.285156 530.882812 C 385.433594 525.183594 373.386719 518.117188 362.144531 509.671875 C 352.476562 502.53125 344.4375 493.875 338.03125 483.707031 C 335.988281 480.695312 334.519531 477.425781 333.625 473.898438 C 332.351562 468.066406 335.953125 462.9375 342.734375 463.265625 C 346.832031 463.515625 350.667969 464.644531 354.246094 466.652344 C 357.03125 468.191406 359.683594 469.929688 362.199219 471.875 C 371.5 479.0625 379.605469 487.410156 386.519531 496.917969 C 390.578125 502.332031 394.261719 508.054688 398.113281 513.640625 C 398.933594 514.835938 399.726562 516.054688 400.429688 517.113281 C 400.925781 517.113281 401.167969 517.1875 401.277344 517.113281 C 401.441406 516.960938 401.53125 516.773438 401.539062 516.550781 C 401.539062 503.421875 401.539062 490.296875 401.539062 476.851562 C 400.519531 476.410156 399.617188 475.929688 398.664062 475.625 C 378.929688 469.242188 362.695312 457.8125 349.695312 441.726562 C 346.78125 438.300781 344.5 434.492188 342.851562 430.308594 C 342.011719 428.128906 341.511719 425.871094 341.347656 423.539062 C 341.125 419.011719 344.496094 415.5 349.046875 415.035156 C 350.433594 414.875 351.804688 414.945312 353.167969 415.246094 C 354.53125 415.546875 355.808594 416.058594 357 416.785156 C 360.644531 418.953125 364.132812 421.347656 367.464844 423.96875 C 372.914062 428.417969 377.800781 433.410156 382.128906 438.949219 C 387.382812 445.609375 392.460938 452.40625 397.703125 459.105469 C 398.703125 460.382812 399.210938 462.183594 401.085938 462.707031 C 401.839844 457.96875 401.980469 428.351562 401.277344 418.65625 L 397.945312 417.59375 C 397.140625 417.335938 396.3125 417.117188 395.535156 416.800781 C 378.96875 410.03125 364.394531 400.441406 352.882812 386.582031 C 350.910156 384.050781 349.210938 381.347656 347.78125 378.476562 C 346.113281 375.382812 346.066406 371.964844 346.675781 368.546875 C 346.867188 367.367188 347.332031 366.308594 348.0625 365.363281 C 348.792969 364.417969 349.707031 363.707031 350.800781 363.226562 C 352.238281 362.511719 353.757812 362.070312 355.355469 361.898438 C 356.953125 361.730469 358.53125 361.839844 360.085938 362.230469 C 362.382812 362.734375 364.570312 363.535156 366.648438 364.628906 C 368.726562 365.726562 370.621094 367.078125 372.335938 368.6875 C 376.132812 372.371094 379.949219 376.132812 383.167969 380.308594 C 388.183594 386.867188 392.699219 393.84375 397.429688 400.613281 C 398.488281 402.128906 399.578125 403.628906 400.890625 405.472656 C 401.710938 400.226562 401.84375 373.066406 401.132812 366.726562 C 391.703125 360.851562 383.410156 353.304688 375.578125 345.203125 C 370.957031 340.433594 367.207031 335.054688 364.332031 329.070312 C 363.082031 326.609375 362.078125 324.050781 361.328125 321.394531 C 360.792969 319.328125 360.664062 317.238281 360.941406 315.121094 C 360.992188 314.671875 361.082031 314.226562 361.210938 313.792969 C 361.339844 313.355469 361.507812 312.9375 361.710938 312.53125 C 361.917969 312.125 362.15625 311.742188 362.429688 311.378906 C 362.703125 311.015625 363.007812 310.679688 363.339844 310.371094 C 363.675781 310.0625 364.03125 309.789062 364.414062 309.542969 C 364.796875 309.300781 365.199219 309.089844 365.621094 308.917969 C 366.042969 308.746094 366.472656 308.613281 366.917969 308.519531 C 367.363281 308.421875 367.8125 308.367188 368.265625 308.355469 C 370.175781 308.316406 372.03125 308.605469 373.835938 309.21875 C 377.351562 310.332031 380.167969 312.605469 382.753906 315.175781 C 386.945312 319.445312 390.410156 324.242188 393.144531 329.5625 C 395.339844 333.671875 397.207031 337.949219 399.238281 342.144531 C 399.746094 343.203125 400.292969 344.242188 401.425781 346.476562 C 401.535156 343.003906 401.609375 340.898438 401.664062 338.800781 C 401.917969 329.058594 402.109375 319.304688 402.476562 309.566406 C 402.550781 307.488281 401.703125 305.890625 400.824219 304.207031 C 396.75 296.464844 393.832031 288.308594 392.070312 279.738281 C 390.492188 271.964844 390.222656 264.140625 392.746094 256.480469 C 393.433594 254.242188 394.421875 252.144531 395.710938 250.191406 C 400.355469 243.484375 409.121094 243.289062 414.039062 249.757812 C 415.269531 251.492188 416.234375 253.363281 416.9375 255.371094 C 420.320312 264.253906 419.691406 273.269531 417.449219 282.269531 C 415.660156 289.726562 413.003906 296.863281 409.480469 303.675781 C 408.492188 305.550781 407.675781 307.394531 407.726562 309.667969 C 407.992188 320.902344 408.101562 332.144531 408.277344 343.382812 C 408.328125 343.964844 408.414062 344.539062 408.535156 345.109375 C 409.96875 344.894531 410.097656 343.722656 410.566406 342.796875 C 412.597656 338.585938 414.335938 334.242188 416.65625 330.214844 C 419.25 325.835938 422.078125 321.621094 425.148438 317.566406 C 427.457031 314.421875 430.367188 311.996094 433.875 310.289062 C 435.566406 309.394531 437.347656 308.757812 439.222656 308.382812 C 445.355469 307.414062 450.136719 312 449.410156 318.1875 C 449.074219 320.515625 448.453125 322.769531 447.550781 324.941406 C 444.789062 332.167969 440.742188 338.585938 435.410156 344.1875 C 427.625 352.3125 419.527344 360.113281 409.867188 366.070312 C 409.519531 366.359375 409.210938 366.683594 408.941406 367.042969 C 408.132812 371.640625 408.039062 397.289062 408.816406 404.265625 C 409.847656 404.828125 410.375 404.105469 410.847656 403.421875 C 413.183594 399.875 415.359375 396.226562 417.824219 392.773438 C 421.640625 387.429688 425.5 382.09375 429.636719 377 C 432.226562 373.914062 435.039062 371.042969 438.070312 368.390625 C 439.726562 366.875 441.550781 365.605469 443.542969 364.578125 C 445.535156 363.554688 447.628906 362.804688 449.824219 362.339844 C 451.269531 361.972656 452.734375 361.824219 454.226562 361.902344 C 460.222656 362.476562 464.25 365.25 463.839844 372.730469 C 463.628906 375.992188 462.570312 378.953125 460.664062 381.609375 C 458.425781 384.960938 455.945312 388.117188 453.214844 391.082031 C 442.640625 402.113281 430.035156 410.222656 416.027344 416.183594 C 413.894531 417.085938 411.59375 417.539062 409.019531 418.351562 C 408.71875 419.460938 408.515625 420.585938 408.417969 421.734375 C 408.351562 434.882812 408.351562 448.035156 408.34375 461.183594 C 408.386719 461.609375 408.464844 462.027344 408.589844 462.433594 C 410.550781 462.699219 410.964844 460.9375 411.804688 459.863281 C 417.9375 452.007812 423.921875 444.035156 430.136719 436.242188 C 434.414062 430.925781 439.273438 426.207031 444.71875 422.09375 C 447.628906 419.996094 450.65625 418.089844 453.804688 416.375 C 454.929688 415.75 456.125 415.324219 457.390625 415.09375 C 458.65625 414.859375 459.925781 414.835938 461.199219 415.019531 C 461.753906 415.070312 462.300781 415.171875 462.835938 415.332031 C 463.371094 415.488281 463.886719 415.695312 464.378906 415.957031 C 464.871094 416.214844 465.335938 416.523438 465.769531 416.875 C 466.203125 417.226562 466.597656 417.617188 466.953125 418.046875 C 467.304688 418.480469 467.617188 418.941406 467.878906 419.433594 C 468.140625 419.925781 468.355469 420.4375 468.515625 420.972656 C 468.675781 421.507812 468.78125 422.050781 468.835938 422.605469 C 468.886719 423.160156 468.886719 423.71875 468.828125 424.273438 C 468.636719 426.398438 468.085938 428.429688 467.175781 430.363281 C 465.5625 433.824219 463.632812 437.105469 461.394531 440.203125 C 458.289062 444.3125 454.886719 448.164062 451.191406 451.75 C 447.496094 455.339844 443.546875 458.628906 439.347656 461.613281 C 435.148438 464.597656 430.746094 467.242188 426.140625 469.554688 C 421.535156 471.867188 416.78125 473.8125 411.878906 475.394531 C 410.882812 475.71875 409.910156 476.132812 409 476.476562 C 408.019531 481.160156 407.726562 505.578125 408.480469 517.164062 C 410.1875 517.335938 410.511719 515.8125 411.121094 514.835938 C 417.640625 504.636719 424.539062 494.730469 432.730469 485.738281 C 438.054688 479.941406 443.878906 474.699219 450.203125 470.015625 C 453.964844 467.136719 458.140625 465.128906 462.734375 463.984375 C 464.796875 463.453125 466.890625 463.226562 469.019531 463.308594 C 473.804688 463.59375 476.703125 466.949219 476.679688 471.714844 C 476.585938 474.300781 475.917969 476.730469 474.683594 479.003906 C 471.757812 484.691406 468.164062 489.921875 463.90625 494.695312 C 456.085938 503.792969 446.820312 511.15625 436.648438 517.4375 C 427.632812 523.011719 418.453125 528.304688 408.695312 532.148438 C 407.808594 537.429688 407.675781 572.351562 408.488281 577.1875 C 410.207031 576.90625 410.644531 575.285156 411.527344 574.175781 C 417.621094 566.542969 423.449219 558.726562 429.730469 551.269531 C 433.640625 546.796875 437.796875 542.5625 442.195312 538.570312 C 445.816406 535.230469 449.863281 532.523438 454.332031 530.449219 C 457.820312 528.683594 461.511719 527.914062 465.414062 528.144531 C 471.25 528.570312 474.601562 532.359375 474.5 538.253906 C 474.40625 540.859375 473.636719 543.246094 472.199219 545.421875 C 469.328125 549.910156 465.96875 554 462.117188 557.683594 C 455.617188 564.132812 448.582031 569.933594 441.011719 575.085938 C 433.445312 580.238281 425.46875 584.65625 417.085938 588.34375 C 414.1875 589.628906 411.242188 590.796875 408.410156 591.984375 C 407.734375 596.429688 407.585938 626.273438 408.25 633.890625 C 409.113281 633.285156 409.917969 632.609375 410.660156 631.859375 C 415.234375 626.289062 419.664062 620.589844 424.335938 615.101562 C 429.226562 609.421875 434.871094 604.625 441.261719 600.707031 C 445.824219 597.855469 450.699219 595.902344 456.15625 595.671875 C 458.753906 595.476562 461.222656 595.964844 463.554688 597.132812 C 468.558594 599.800781 470.417969 604.957031 467.996094 610.066406 C 467.132812 611.769531 466.082031 613.347656 464.847656 614.804688 C 463.632812 616.28125 462.308594 617.65625 460.878906 618.925781 C 447.894531 630.667969 426.394531 642.46875 408.574219 645.914062 C 408.253906 646.832031 408.042969 647.777344 407.945312 648.742188 C 407.945312 661.257812 407.984375 673.773438 408.058594 686.285156 C 408.125 686.847656 408.253906 687.394531 408.445312 687.929688 C 410.152344 687.929688 410.613281 686.535156 411.363281 685.59375 C 414.273438 681.953125 416.988281 678.148438 420.042969 674.625 C 424.363281 669.644531 429.136719 665.148438 434.882812 661.765625 C 437.671875 660.132812 440.578125 658.957031 443.90625 659.144531 C 448.890625 659.421875 452.03125 663.621094 450.609375 668.429688 C 449.992188 670.472656 449.046875 672.347656 447.78125 674.0625 C 445.886719 676.640625 443.777344 679.027344 441.457031 681.230469 C 432.710938 689.398438 423.054688 696.21875 411.777344 700.539062 C 410.800781 700.917969 409.847656 701.390625 408.214844 702.113281 Z M 408.214844 702.113281 " fill-opacity="1" fill-rule="nonzero"/><path fill="#015e56" d="M 564.441406 329.070312 C 563.832031 327.316406 563.085938 325.597656 562.648438 323.8125 C 561.609375 320.148438 560.773438 316.4375 560.148438 312.679688 C 559.941406 310.550781 560.1875 308.472656 560.886719 306.453125 C 560.996094 306.09375 561.144531 305.75 561.332031 305.425781 C 561.519531 305.101562 561.742188 304.804688 562.003906 304.53125 C 562.261719 304.261719 562.546875 304.023438 562.859375 303.816406 C 563.175781 303.613281 563.507812 303.445312 563.863281 303.320312 C 564.214844 303.191406 564.578125 303.109375 564.953125 303.066406 C 565.324219 303.023438 565.699219 303.027344 566.070312 303.074219 C 566.441406 303.117188 566.804688 303.207031 567.15625 303.339844 C 567.507812 303.46875 567.839844 303.636719 568.152344 303.847656 C 569.902344 305.054688 571.386719 306.53125 572.597656 308.28125 C 575.625 312.738281 577.570312 317.625 578.433594 322.945312 C 579.570312 329.226562 580.019531 335.558594 579.789062 341.9375 L 579.648438 346.390625 C 579.5625 347.917969 579.945312 349.316406 580.792969 350.589844 C 585.53125 357.867188 590.207031 365.195312 594.933594 372.492188 C 595.125 372.789062 595.550781 372.933594 595.867188 373.167969 C 595.636719 367.898438 595.257812 362.632812 595.238281 357.359375 C 595.238281 354.855469 595.863281 352.335938 596.320312 349.855469 C 596.523438 349.023438 596.867188 348.257812 597.351562 347.554688 C 598.988281 344.925781 602.199219 344.296875 604.433594 346.390625 C 605.808594 347.714844 606.910156 349.242188 607.734375 350.964844 C 609.382812 354.46875 610.261719 358.152344 610.371094 362.023438 C 610.75 370.78125 610.269531 379.515625 607.269531 387.738281 C 605.441406 392.753906 606.035156 397.046875 607.945312 401.722656 C 611.710938 410.964844 614.289062 420.597656 616.632812 430.289062 C 616.808594 431.003906 617.058594 431.703125 617.527344 433.246094 C 618.34375 431.785156 618.878906 431.148438 619.082031 430.417969 C 620.011719 426.714844 620.699219 422.972656 621.730469 419.285156 C 622.929688 415.011719 624.207031 410.738281 625.792969 406.609375 C 626.667969 404.421875 627.917969 402.480469 629.550781 400.78125 C 633.042969 397.148438 637.820312 398.1875 639.804688 402.8125 C 641.214844 406.074219 641.011719 409.464844 640.355469 412.8125 C 639.089844 419.347656 636.671875 425.425781 633.101562 431.046875 C 630.082031 435.914062 626.722656 440.535156 623.023438 444.914062 C 622.007812 445.980469 621.277344 447.214844 620.832031 448.621094 C 620.386719 450.023438 620.273438 451.457031 620.492188 452.914062 C 621.277344 460.28125 621.84375 467.6875 622.304688 475.085938 C 622.597656 479.523438 622.570312 483.984375 622.675781 488.429688 C 622.675781 489.457031 622.675781 490.496094 622.675781 491.292969 C 624.167969 492.097656 624.578125 491.175781 625 490.617188 C 627.667969 486.785156 630.144531 482.820312 632.949219 479.109375 C 636.644531 474.203125 640.496094 469.40625 644.457031 464.695312 C 646.515625 462.148438 649.09375 460.34375 652.1875 459.28125 C 656.824219 457.738281 660.359375 460.15625 660.230469 465.074219 C 660.222656 467.203125 659.773438 469.234375 658.878906 471.164062 C 656.945312 475.175781 654.675781 478.988281 652.066406 482.597656 C 644.476562 492.566406 634.972656 500.191406 623.246094 504.929688 C 622.9375 505.089844 622.664062 505.296875 622.425781 505.550781 C 620.445312 518.269531 618.480469 530.816406 616.550781 543.371094 C 616.496094 543.734375 616.789062 544.148438 617.042969 544.925781 C 618.09375 544.1875 619.074219 543.574219 620.011719 542.835938 C 625.339844 538.640625 630.539062 534.273438 636 530.269531 C 640.503906 526.996094 645.414062 524.523438 650.726562 522.855469 C 654.011719 521.742188 657.371094 521.425781 660.804688 521.902344 C 664.9375 522.53125 667.0625 525.640625 666.128906 529.714844 C 665.269531 533.09375 663.578125 535.988281 661.058594 538.394531 C 656.089844 543.457031 650.339844 547.367188 643.808594 550.132812 C 636.746094 553.121094 629.425781 555.21875 621.851562 556.425781 C 619.144531 556.871094 616.4375 557.296875 613.367188 557.777344 C 612.824219 558.847656 612.359375 559.945312 611.972656 561.082031 C 608.328125 574.386719 603.84375 587.40625 598.523438 600.136719 C 598.285156 600.71875 598.109375 601.324219 597.898438 601.953125 C 599.132812 603.070312 599.800781 601.84375 600.480469 601.335938 C 607.703125 596.027344 615.519531 591.8125 623.929688 588.699219 C 627.726562 587.179688 631.667969 586.445312 635.757812 586.496094 C 637.246094 586.492188 638.714844 586.664062 640.164062 587.015625 C 643.855469 588.03125 645.582031 591.570312 643.902344 595 C 643.035156 596.703125 641.941406 598.246094 640.625 599.628906 C 637.558594 602.953125 633.726562 605.242188 629.683594 607.175781 C 620.382812 611.582031 610.597656 614.164062 600.328125 614.914062 C 597.621094 615.128906 594.851562 615.296875 591.90625 615.507812 C 588.3125 622.277344 584.859375 629.042969 581.171875 635.714844 C 577.574219 642.199219 573.722656 648.574219 570.011719 654.949219 C 571.023438 656.082031 571.921875 655.320312 572.816406 654.855469 C 579.039062 651.585938 585.414062 648.691406 592.382812 647.484375 C 594.675781 647.039062 596.976562 646.992188 599.289062 647.351562 C 603.742188 648.1875 605.21875 651.917969 602.433594 655.390625 C 600.699219 657.542969 598.65625 659.347656 596.300781 660.804688 C 592.160156 663.414062 587.800781 665.578125 583.222656 667.300781 C 578.640625 669.023438 573.933594 670.265625 569.097656 671.03125 C 565.546875 671.570312 561.964844 671.972656 558.078125 672.476562 L 553.589844 678.359375 C 550.203125 682.738281 546.90625 687.15625 543.515625 691.480469 C 542.898438 692.347656 542.128906 693.046875 541.207031 693.582031 C 540.410156 693.910156 539.613281 693.910156 538.816406 693.582031 C 538.574219 693.464844 538.359375 693.308594 538.171875 693.109375 C 537.988281 692.914062 537.847656 692.6875 537.75 692.4375 C 537.652344 692.183594 537.601562 691.925781 537.605469 691.652344 C 537.605469 691.382812 537.660156 691.125 537.761719 690.875 C 538.246094 689.703125 538.878906 688.621094 539.671875 687.632812 C 542.839844 683.382812 546.09375 679.191406 549.242188 674.921875 C 550.597656 673.058594 551.800781 671.058594 553.136719 669.027344 C 552.457031 667.117188 551.828125 665.339844 551.164062 663.570312 C 549.277344 658.597656 547.933594 653.480469 547.136719 648.21875 C 546.335938 642.957031 546.101562 637.671875 546.425781 632.359375 C 546.507812 630.449219 546.761719 628.566406 547.183594 626.703125 C 547.554688 625.246094 548.148438 623.894531 548.972656 622.640625 C 551.410156 618.898438 556.085938 618.804688 558.367188 622.601562 C 559.582031 624.613281 560.34375 626.78125 560.65625 629.109375 C 561.300781 634.363281 561.558594 639.660156 561.855469 644.949219 C 562.019531 647.871094 561.9375 650.816406 561.976562 654.15625 C 562.9375 653.542969 563.636719 653.339844 563.921875 652.886719 C 571.75 640.503906 578.769531 627.679688 584.980469 614.410156 C 583.953125 613.058594 583.085938 611.878906 582.160156 610.742188 C 575.328125 602.238281 570.007812 592.875 566.195312 582.65625 C 564.089844 577.0625 562.828125 571.28125 562.417969 565.316406 C 562.296875 562.976562 562.589844 560.6875 563.296875 558.449219 C 564.707031 553.710938 569.195312 552.121094 573.453125 554.6875 C 576.1875 556.453125 578.316406 558.773438 579.835938 561.648438 C 582.613281 566.449219 584.730469 571.523438 586.1875 576.871094 C 587.542969 581.988281 588.605469 587.183594 589.835938 592.335938 C 590.269531 594.164062 590.832031 595.949219 591.421875 598.082031 C 595.347656 592.265625 601.472656 575.285156 606.3125 557.074219 C 605.65625 556.117188 604.945312 555.199219 604.183594 554.320312 C 595.824219 545.496094 588.679688 535.78125 582.742188 525.179688 C 580.871094 521.84375 579.324219 518.371094 578.097656 514.75 C 577.398438 512.511719 577.152344 510.222656 577.359375 507.886719 C 577.617188 504.210938 580.535156 501.84375 584.257812 501.796875 C 585.113281 501.777344 585.957031 501.851562 586.796875 502.023438 C 587.632812 502.199219 588.4375 502.464844 589.214844 502.820312 C 589.992188 503.179688 590.71875 503.621094 591.390625 504.144531 C 592.066406 504.667969 592.675781 505.261719 593.214844 505.925781 C 595.417969 508.507812 597.332031 511.292969 598.957031 514.277344 C 603.125 521.960938 606.101562 530.082031 607.886719 538.640625 C 608.140625 539.851562 608.140625 541.238281 609.660156 541.746094 C 612.652344 532.378906 615.75 510.5 615.140625 502.839844 C 607.324219 497.585938 600.554688 490.898438 594.203125 483.71875 C 590.757812 479.929688 587.867188 475.757812 585.535156 471.199219 C 584.40625 468.898438 583.507812 466.535156 583.507812 463.917969 C 583.507812 459.179688 587.242188 456.335938 591.628906 457.949219 C 593.640625 458.65625 595.445312 459.714844 597.046875 461.121094 C 599.269531 463.101562 601.210938 465.332031 602.863281 467.808594 C 606.410156 473.332031 609.632812 479.058594 612.976562 484.726562 C 613.824219 486.164062 614.554688 487.664062 615.25 488.976562 C 615.777344 489.03125 616.03125 489.132812 616.191406 489.050781 C 616.355469 488.972656 616.394531 488.707031 616.410156 488.519531 C 616.496094 487.042969 616.660156 485.554688 616.617188 484.078125 C 616.484375 478.351562 616.53125 472.613281 616.023438 466.921875 C 615.488281 460.832031 615.699219 454.617188 613.863281 448.5 C 610.382812 446.632812 606.816406 444.796875 603.328125 442.816406 C 597.703125 439.746094 592.625 435.945312 588.089844 431.417969 C 586.433594 429.769531 584.933594 427.996094 583.582031 426.09375 C 582.390625 424.332031 581.414062 422.464844 580.648438 420.480469 C 579.5 417.566406 579.335938 414.582031 581.886719 412.246094 C 584.191406 410.140625 587.058594 410.277344 589.671875 411.371094 C 591.796875 412.320312 593.753906 413.539062 595.542969 415.019531 C 600.226562 418.769531 603.742188 423.589844 607.222656 428.40625 C 608.390625 430.097656 609.691406 431.675781 611.128906 433.144531 C 608.917969 420.382812 605.324219 408.027344 600.34375 396.070312 C 598.425781 395.71875 596.78125 395.394531 595.125 395.125 C 587.496094 393.863281 580.371094 391.246094 573.742188 387.273438 C 570.84375 385.503906 568.195312 383.417969 565.796875 381.011719 C 564.328125 379.445312 563.253906 377.640625 562.578125 375.597656 C 561.152344 371.6875 563.554688 368.242188 567.792969 368.152344 C 569.925781 368.097656 571.984375 368.472656 573.960938 369.277344 C 577.648438 370.855469 581.171875 372.832031 584.71875 374.730469 C 586.75 375.800781 588.632812 377.046875 590.609375 378.230469 C 590.914062 377.554688 591.285156 377.109375 591.203125 376.878906 C 587.140625 367.957031 581.765625 359.890625 576.1875 351.972656 C 569.683594 351.785156 563.316406 350.753906 557.082031 348.886719 C 550.90625 347.136719 545.171875 344.449219 539.875 340.824219 C 537.933594 339.511719 536.28125 337.898438 534.917969 335.992188 C 532.445312 332.40625 534.242188 328.460938 538.574219 328.121094 C 541.339844 327.957031 544.035156 328.324219 546.65625 329.226562 C 550.65625 330.578125 554.460938 332.5 558.34375 334.214844 C 559.648438 334.789062 560.90625 335.457031 562.171875 336.089844 C 562.9375 334.734375 562.019531 334.253906 561.570312 333.738281 C 555.597656 326.824219 549.132812 320.398438 542.175781 314.472656 C 540.058594 312.707031 537.769531 311.199219 535.308594 309.953125 C 524.621094 304.488281 515.199219 297.351562 507.050781 288.539062 C 504.304688 285.554688 501.792969 282.40625 500.1875 278.65625 C 499.105469 276.121094 498.292969 273.488281 499.273438 270.644531 C 500.316406 267.632812 502.210938 266.101562 505.367188 265.90625 C 508.703125 265.722656 511.609375 266.910156 514.269531 268.796875 C 519.011719 272.144531 522.949219 276.261719 526.082031 281.148438 C 528.609375 285.066406 530.863281 289.160156 533.277344 293.148438 C 536.785156 298.953125 540.304688 304.746094 543.886719 310.507812 C 544.59375 311.574219 545.421875 312.535156 546.371094 313.390625 C 552.058594 318.777344 557.769531 324.144531 563.5 329.496094 Z M 564.441406 329.070312 " fill-opacity="1" fill-rule="nonzero"/><path fill="#015e56" d="M 225.253906 614.167969 C 228.753906 623.351562 241.292969 646.105469 247.0625 653.800781 C 248.238281 653.800781 248.265625 652.933594 248.285156 652.109375 C 248.429688 646.171875 248.449219 640.230469 248.746094 634.300781 C 248.914062 631.550781 249.355469 628.84375 250.066406 626.179688 C 250.539062 624.539062 251.324219 623.066406 252.417969 621.753906 C 252.644531 621.457031 252.902344 621.191406 253.195312 620.953125 C 253.484375 620.71875 253.792969 620.515625 254.128906 620.351562 C 254.464844 620.183594 254.8125 620.054688 255.179688 619.96875 C 255.542969 619.882812 255.910156 619.835938 256.285156 619.832031 C 256.660156 619.828125 257.027344 619.867188 257.394531 619.949219 C 257.757812 620.027344 258.109375 620.148438 258.449219 620.308594 C 258.785156 620.46875 259.101562 620.664062 259.394531 620.894531 C 259.691406 621.128906 259.953125 621.386719 260.1875 621.679688 C 261.449219 623.378906 262.351562 625.246094 262.894531 627.289062 C 264.433594 632.703125 264.25 638.242188 263.574219 643.714844 C 262.671875 651.09375 261.257812 658.402344 258.191406 665.230469 C 256.835938 668.179688 257.472656 670.496094 259.28125 672.863281 C 262.882812 677.601562 266.429688 682.339844 269.972656 687.117188 C 270.910156 688.265625 271.710938 689.5 272.375 690.824219 C 272.632812 691.40625 272.265625 692.476562 271.851562 693.105469 C 271.703125 693.332031 271.519531 693.523438 271.296875 693.675781 C 271.074219 693.832031 270.832031 693.9375 270.566406 693.996094 C 270.304688 694.054688 270.039062 694.0625 269.769531 694.019531 C 269.503906 693.976562 269.253906 693.882812 269.023438 693.742188 C 267.953125 693.0625 267.039062 692.214844 266.28125 691.199219 C 262.632812 686.515625 259.058594 681.769531 255.449219 677.046875 C 254.296875 675.542969 253.160156 674.027344 252.207031 672.769531 C 246.222656 671.746094 240.554688 670.984375 234.976562 669.792969 C 227.875 668.277344 221.300781 665.265625 215.019531 661.671875 C 213.019531 660.464844 211.144531 659.089844 209.394531 657.546875 C 208.421875 656.707031 207.644531 655.714844 207.058594 654.570312 C 205.480469 651.558594 206.792969 648.628906 210.054688 647.519531 C 212.554688 646.667969 215.050781 646.902344 217.585938 647.398438 C 223.675781 648.589844 229.34375 650.929688 234.890625 653.628906 C 236.316406 654.308594 237.597656 655.523438 239.28125 655.410156 C 239.519531 655.039062 239.742188 654.808594 239.703125 654.734375 C 232.492188 641.792969 225.261719 628.875 217.792969 615.515625 C 215.429688 615.34375 212.710938 615.15625 209.996094 614.9375 C 199.746094 614.128906 189.859375 611.824219 180.640625 607.230469 C 177.242188 605.503906 174.035156 603.472656 171.019531 601.140625 C 169.171875 599.675781 167.679688 597.914062 166.546875 595.847656 C 164.214844 591.679688 166.289062 587.585938 170.980469 586.804688 C 175.035156 586.160156 179.019531 586.46875 182.929688 587.734375 C 191.476562 590.457031 199.445312 594.355469 206.839844 599.433594 C 208.234375 600.367188 209.617188 601.316406 211.234375 602.414062 C 211.382812 601.539062 211.734375 600.855469 211.546875 600.382812 C 205.851562 586.621094 201.089844 572.546875 197.261719 558.15625 C 194.296875 557.15625 191.351562 556.914062 188.460938 556.453125 C 180.882812 555.265625 173.558594 553.191406 166.484375 550.226562 C 160.53125 547.773438 155.226562 544.328125 150.5625 539.890625 C 148.605469 537.949219 146.910156 535.804688 145.46875 533.457031 C 144.617188 531.96875 144.117188 530.371094 143.96875 528.664062 C 143.535156 524.988281 145.476562 522.5 149.140625 521.894531 C 152.554688 521.261719 155.890625 521.554688 159.144531 522.777344 C 163.097656 524.300781 166.933594 526.074219 170.65625 528.101562 C 177.5 532 183.617188 536.902344 189.414062 542.246094 C 190.640625 543.371094 191.953125 544.398438 193.699219 545.867188 C 191.667969 532.089844 189.679688 518.964844 187.652344 505.410156 L 184.59375 503.980469 C 181.457031 502.535156 178.445312 500.867188 175.554688 498.980469 C 172.664062 497.089844 169.925781 495 167.339844 492.710938 C 164.757812 490.421875 162.351562 487.957031 160.128906 485.316406 C 157.902344 482.675781 155.882812 479.886719 154.066406 476.953125 C 152.554688 474.398438 151.3125 471.722656 150.34375 468.917969 C 149.769531 467.308594 149.558594 465.652344 149.707031 463.949219 C 150.019531 460.179688 153.351562 457.96875 156.980469 458.910156 C 158.535156 459.316406 159.988281 459.953125 161.34375 460.816406 C 162.699219 461.679688 163.890625 462.730469 164.921875 463.964844 C 168.914062 468.632812 172.828125 473.378906 176.558594 478.257812 C 179.128906 481.640625 181.296875 485.28125 183.726562 488.769531 C 184.539062 489.945312 185.535156 490.996094 186.488281 492.152344 C 188.074219 491.074219 187.410156 489.757812 187.457031 488.652344 C 187.527344 487.171875 187.390625 485.683594 187.382812 484.199219 C 187.382812 482.929688 187.445312 481.65625 187.476562 480.382812 C 187.511719 479.109375 187.550781 477.839844 187.585938 476.574219 C 187.621094 475.308594 187.667969 474.027344 187.703125 472.757812 C 187.734375 471.265625 187.703125 469.785156 187.789062 468.300781 C 187.855469 467.03125 188.03125 465.773438 188.167969 464.507812 C 188.304688 463.242188 188.460938 461.976562 188.589844 460.710938 C 188.71875 459.445312 188.8125 458.179688 188.945312 456.914062 C 189.101562 455.4375 189.285156 453.960938 189.46875 452.492188 C 189.625 451.242188 189.800781 449.988281 189.988281 448.566406 L 187.132812 445.226562 C 180.59375 437.605469 175.101562 429.355469 171.609375 419.859375 C 169.949219 415.652344 169.242188 411.292969 169.488281 406.777344 C 169.542969 405.289062 169.828125 403.847656 170.34375 402.453125 C 172.007812 398.445312 176.4375 397.402344 179.820312 400.105469 C 182.03125 401.902344 183.566406 404.15625 184.425781 406.871094 C 186.105469 411.886719 187.550781 416.976562 188.96875 422.074219 C 189.988281 425.726562 190.796875 429.4375 191.964844 434.214844 C 192.636719 432.605469 193.226562 430.96875 193.726562 429.300781 C 196.140625 418.742188 199.339844 408.429688 203.328125 398.359375 C 204.308594 395.855469 204.585938 393.554688 203.683594 390.988281 C 201.207031 383.9375 200.109375 376.621094 199.625 369.183594 C 199.128906 363.617188 199.777344 358.1875 201.574219 352.894531 C 202.242188 350.878906 203.21875 349.03125 204.503906 347.34375 C 207.292969 343.910156 211.472656 344.433594 213.117188 348.472656 C 214.058594 350.851562 214.574219 353.316406 214.660156 355.871094 C 214.816406 360.101562 214.492188 364.34375 214.394531 368.582031 C 214.394531 369.765625 214.464844 370.957031 214.539062 373.316406 C 215.742188 371.484375 216.304688 370.644531 216.847656 369.796875 C 220.617188 363.902344 224.292969 357.929688 228.199219 352.148438 C 229.96875 349.554688 230.828125 347.09375 230.480469 343.878906 C 229.613281 335.796875 230.601562 327.785156 232.355469 319.894531 C 233.355469 315.253906 235.292969 311.046875 238.171875 307.269531 C 239.339844 305.753906 240.75 304.511719 242.402344 303.550781 C 242.683594 303.390625 242.976562 303.261719 243.28125 303.164062 C 243.589844 303.066406 243.902344 303 244.222656 302.96875 C 244.539062 302.9375 244.859375 302.941406 245.179688 302.976562 C 245.5 303.011719 245.8125 303.082031 246.117188 303.183594 C 246.421875 303.285156 246.710938 303.417969 246.988281 303.578125 C 247.265625 303.742188 247.523438 303.933594 247.761719 304.148438 C 248 304.367188 248.210938 304.605469 248.398438 304.867188 C 248.582031 305.128906 248.742188 305.40625 248.867188 305.703125 C 249.535156 307.257812 249.925781 308.878906 250.035156 310.566406 C 250.359375 314.445312 249.28125 318.140625 248.132812 321.78125 C 247.3125 324.394531 246.351562 326.957031 245.421875 329.613281 C 246.859375 330.160156 247.320312 328.933594 247.960938 328.359375 C 252.152344 324.449219 256.269531 320.46875 260.445312 316.550781 C 263.625 313.707031 266.285156 310.441406 268.425781 306.757812 C 272.207031 299.96875 276.46875 293.335938 280.503906 286.609375 C 283.679688 281.308594 287.09375 276.207031 291.796875 272.113281 C 293.34375 270.65625 295.023438 269.371094 296.835938 268.261719 C 298.671875 267.191406 300.636719 266.464844 302.730469 266.082031 C 308.253906 265.25 311.707031 268.683594 311.066406 274.304688 C 310.882812 276.234375 310.308594 278.039062 309.347656 279.71875 C 307.511719 282.820312 305.417969 285.734375 303.0625 288.464844 C 299.164062 292.828125 294.886719 296.785156 290.234375 300.335938 C 285.582031 303.886719 280.632812 306.964844 275.394531 309.574219 C 271.75 311.363281 268.472656 313.671875 265.5625 316.503906 C 260.425781 321.546875 255.320312 326.636719 250.242188 331.777344 C 249.292969 332.832031 248.402344 333.933594 247.570312 335.078125 C 248.570312 336.269531 249.269531 335.445312 249.945312 335.140625 C 254.007812 333.332031 258.015625 331.363281 262.132812 329.726562 C 264.320312 328.890625 266.574219 328.34375 268.902344 328.074219 C 270.386719 327.921875 271.832031 328.09375 273.242188 328.597656 C 275.886719 329.496094 276.863281 332.203125 275.8125 334.808594 C 274.8125 337.285156 272.941406 338.972656 270.84375 340.453125 C 265.953125 343.90625 260.648438 346.523438 254.929688 348.304688 C 248.238281 350.402344 241.449219 352.011719 234.664062 351.878906 C 229.382812 357.636719 222.230469 369.183594 218.417969 377.933594 C 219.148438 378.988281 219.859375 378.191406 220.480469 377.832031 C 225.09375 375.234375 229.636719 372.5 234.300781 369.996094 C 236.566406 368.703125 239.003906 368.070312 241.613281 368.09375 C 246.277344 368.222656 248.773438 371.273438 247.386719 375.6875 C 246.671875 377.691406 245.617188 379.496094 244.226562 381.101562 C 241.636719 384.253906 238.234375 386.472656 234.617188 388.308594 C 228.160156 391.582031 221.464844 394.195312 214.226562 395.210938 C 212.785156 395.421875 211.363281 395.785156 209.730469 396.117188 C 204.898438 407.679688 201.289062 419.613281 198.898438 431.914062 C 200.6875 432.46875 200.890625 431.140625 201.402344 430.476562 C 203.734375 427.453125 205.777344 424.183594 208.316406 421.355469 C 211.03125 418.382812 213.949219 415.625 217.070312 413.078125 C 218.222656 412.09375 219.53125 411.410156 221 411.03125 C 222.46875 410.65625 223.945312 410.617188 225.429688 410.925781 C 228.050781 411.425781 229.574219 413.015625 229.867188 415.621094 C 230.132812 417.992188 229.75 420.246094 228.707031 422.390625 C 227.175781 425.449219 225.199219 428.195312 222.785156 430.621094 C 216.691406 437.003906 209.339844 441.589844 201.605469 445.65625 C 199.746094 446.640625 197.863281 447.578125 196.191406 448.445312 C 193.890625 459.273438 192.90625 482.230469 194.546875 489.632812 C 195.332031 488.125 195.851562 487.023438 196.46875 485.964844 C 199.855469 480.105469 203.164062 474.164062 206.792969 468.445312 C 208.550781 465.78125 210.601562 463.367188 212.945312 461.203125 C 214.539062 459.773438 216.34375 458.699219 218.363281 457.988281 C 222.695312 456.359375 226.769531 459.1875 226.582031 463.789062 C 226.472656 466.140625 225.878906 468.367188 224.800781 470.460938 C 222.96875 474.042969 220.828125 477.425781 218.375 480.613281 C 212.183594 488.46875 205.214844 495.589844 196.96875 501.355469 C 196.289062 501.855469 195.640625 502.386719 195.019531 502.960938 C 194.796875 503.269531 194.609375 503.59375 194.457031 503.941406 C 195.351562 516.277344 197.121094 528.488281 199.765625 540.570312 C 199.878906 541.097656 200.53125 541.507812 201.179688 542.265625 C 201.859375 539.734375 202.414062 537.53125 202.976562 535.257812 C 204.902344 527.382812 207.867188 519.917969 211.871094 512.867188 C 213.476562 510.121094 215.367188 507.585938 217.542969 505.269531 C 218.078125 504.671875 218.675781 504.140625 219.328125 503.679688 C 219.984375 503.21875 220.683594 502.839844 221.425781 502.535156 C 222.167969 502.234375 222.9375 502.019531 223.726562 501.894531 C 224.519531 501.765625 225.316406 501.730469 226.113281 501.78125 C 229.410156 501.957031 231.769531 503.710938 232.5 506.953125 C 232.820312 508.613281 232.867188 510.28125 232.640625 511.953125 C 232.214844 515.820312 230.5 519.257812 228.707031 522.632812 C 222.871094 533.535156 215.78125 543.546875 207.4375 552.667969 C 206.449219 553.773438 205.40625 554.847656 204.445312 555.953125 C 204.222656 556.328125 204.035156 556.726562 203.882812 557.136719 C 206.679688 569.222656 211.195312 581.304688 215.84375 593.328125 C 216.414062 594.796875 216.523438 596.671875 218.714844 597.628906 C 219.671875 595.105469 220.363281 592.511719 220.792969 589.851562 C 222.40625 581.507812 224.359375 573.257812 228.199219 565.601562 C 229.261719 563.285156 230.542969 561.097656 232.050781 559.042969 C 233.480469 557.1875 235.199219 555.652344 237.203125 554.441406 C 241.007812 552.25 244.976562 553.765625 246.492188 557.886719 C 247.179688 559.898438 247.523438 561.964844 247.527344 564.085938 C 247.65625 570.101562 246.175781 575.855469 244.210938 581.480469 C 240.4375 592.183594 234.992188 601.953125 227.867188 610.789062 C 226.960938 611.960938 226.074219 613.105469 225.253906 614.167969 Z M 225.253906 614.167969 " fill-opacity="1" fill-rule="nonzero"/><path fill="#d9a604" d="M 425.738281 73.617188 C 426.214844 74.058594 426.726562 74.453125 427.28125 74.800781 C 439.464844 79.605469 448.191406 88.335938 454.929688 99.199219 C 457.929688 104.035156 460.292969 109.292969 462.6875 114.480469 C 464.367188 118.125 465.6875 121.921875 467.039062 125.742188 C 470.679688 135.914062 474.273438 146.101562 477.824219 156.296875 C 478.378906 157.886719 478.773438 159.53125 479.179688 161.035156 C 478.277344 163.613281 476.113281 164.019531 474.015625 164.207031 C 468.320312 164.722656 462.605469 165.398438 456.898438 165.453125 C 433.785156 165.664062 410.667969 165.703125 387.554688 165.722656 C 375.890625 165.722656 364.222656 165.683594 352.566406 165.445312 C 347.277344 165.34375 341.992188 164.769531 336.71875 164.304688 C 334.597656 164.128906 332.480469 163.824219 330.984375 161.683594 C 330.785156 159.207031 332.03125 156.945312 332.859375 154.585938 C 335.519531 146.992188 338.273438 139.417969 340.875 131.8125 C 343.976562 122.789062 347.164062 113.808594 351.535156 105.300781 C 354.894531 98.625 359.183594 92.605469 364.398438 87.253906 C 369.519531 82.066406 375.183594 77.695312 382.078125 75.070312 C 382.84375 74.683594 383.570312 74.234375 384.257812 73.71875 C 384.027344 66.703125 384.707031 59.78125 386.300781 52.945312 C 387.183594 49.238281 388.429688 45.652344 390.039062 42.191406 C 391.28125 39.710938 392.921875 37.53125 394.960938 35.648438 C 401.054688 29.882812 408.777344 29.921875 414.984375 35.480469 C 416.632812 36.996094 418.058594 38.695312 419.257812 40.585938 C 420.457031 42.472656 421.394531 44.484375 422.066406 46.617188 C 424.324219 53.511719 425.542969 60.585938 425.722656 67.835938 C 425.796875 69.710938 425.738281 71.605469 425.738281 73.617188 Z M 417.613281 71.746094 C 416.859375 63.550781 415.582031 55.925781 412.5 48.675781 C 412.144531 47.90625 411.726562 47.171875 411.25 46.46875 C 406.847656 39.703125 403.328125 39.585938 399.0625 46.292969 C 397.871094 48.054688 396.980469 49.960938 396.394531 52.007812 C 395.042969 57.527344 393.898438 63.125 392.773438 68.707031 C 392.582031 69.65625 392.886719 70.738281 392.964844 71.746094 Z M 417.613281 71.746094 " fill-opacity="1" fill-rule="nonzero"/><path fill="#015e56" d="M 43.140625 488.363281 C 43.4375 500.457031 45.214844 512.332031 48.480469 523.980469 C 50.675781 523.710938 50.660156 522.160156 51.148438 521.191406 C 55.550781 512.449219 60.484375 504.042969 66.71875 496.457031 C 69.585938 493.050781 72.660156 489.84375 75.941406 486.839844 C 77.039062 485.800781 78.289062 485.007812 79.695312 484.453125 C 81.097656 483.898438 82.554688 483.628906 84.066406 483.636719 C 88.804688 483.636719 91.722656 486.859375 90.71875 491.496094 C 90.144531 493.765625 89.203125 495.871094 87.898438 497.816406 C 84.582031 503.058594 80.550781 507.675781 75.800781 511.664062 C 69.484375 516.996094 62.9375 522.058594 56.464844 527.230469 C 54.8125 528.542969 53.078125 529.726562 51.167969 531.101562 C 51.730469 536.722656 54.140625 541.679688 56.164062 546.726562 C 60.980469 558.773438 63.078125 562.761719 66.320312 566.402344 C 67.761719 561.851562 69.15625 557.421875 70.578125 552.992188 C 72.558594 546.703125 75.175781 540.6875 78.433594 534.953125 C 79.460938 533.09375 80.652344 531.347656 82 529.707031 C 83.09375 528.394531 84.382812 527.316406 85.867188 526.472656 C 89.710938 524.386719 93.386719 526.53125 93.3125 530.882812 C 93.3125 533.019531 92.894531 535.074219 92.066406 537.042969 C 90.152344 541.527344 87.917969 545.84375 85.367188 549.996094 C 80.769531 557.144531 75.710938 563.910156 70.84375 570.875 C 70.363281 571.550781 69.914062 572.226562 69.523438 572.851562 C 73.089844 580.796875 83.742188 596.335938 89.414062 601.824219 C 90.511719 599.351562 90.3125 596.808594 90.550781 594.324219 C 91.023438 589.269531 91.382812 584.171875 92.222656 579.183594 C 92.761719 576.472656 93.707031 573.914062 95.058594 571.503906 C 96.175781 569.390625 98.121094 567.875 100.808594 568.410156 C 103.199219 568.882812 104.871094 570.984375 104.925781 574.144531 C 105.019531 577.101562 104.792969 580.035156 104.246094 582.941406 C 102.394531 592.046875 99.277344 600.699219 94.898438 608.894531 C 96.027344 610.335938 97.105469 611.859375 98.335938 613.246094 C 101.300781 616.570312 104.367188 619.796875 107.335938 623.128906 C 108.460938 624.402344 109.480469 625.757812 110.394531 627.1875 C 110.574219 627.457031 110.699219 627.746094 110.777344 628.0625 C 110.851562 628.375 110.871094 628.691406 110.832031 629.011719 C 110.792969 629.332031 110.703125 629.632812 110.554688 629.921875 C 110.410156 630.210938 110.21875 630.460938 109.980469 630.679688 C 109.761719 630.914062 109.511719 631.109375 109.230469 631.265625 C 108.953125 631.421875 108.652344 631.53125 108.339844 631.589844 C 108.023438 631.652344 107.707031 631.664062 107.386719 631.621094 C 107.070312 631.582031 106.765625 631.496094 106.472656 631.359375 C 105.691406 631.023438 104.980469 630.570312 104.339844 630.003906 C 103.359375 629.191406 102.429688 628.324219 101.546875 627.40625 C 81.363281 606.507812 64.25 583.414062 52.125 556.914062 C 40.667969 532.035156 34.902344 506 35.972656 478.550781 C 36.90625 454.589844 43.417969 432.21875 54.925781 411.21875 C 65.535156 391.785156 79.820312 375.402344 96.5625 361.074219 C 99.539062 358.660156 102.023438 355.816406 104.011719 352.539062 C 108.167969 345.34375 113.078125 338.703125 118.734375 332.617188 C 122.261719 328.949219 126.011719 325.527344 129.980469 322.34375 C 132.460938 320.214844 135.3125 318.882812 138.539062 318.34375 C 145.097656 317.328125 148.476562 321.335938 145.984375 327.414062 C 144.992188 329.765625 143.65625 331.902344 141.976562 333.828125 C 139.855469 336.203125 137.558594 338.394531 135.085938 340.398438 C 128.023438 346.222656 120.46875 351.308594 112.417969 355.660156 C 102.414062 361.183594 94.300781 368.871094 86.746094 377.257812 C 86.507812 377.605469 86.3125 377.976562 86.164062 378.375 C 86.996094 379.382812 87.667969 378.449219 88.261719 378.109375 C 92.324219 375.808594 96.277344 373.339844 100.382812 371.132812 C 102.429688 369.988281 104.597656 369.164062 106.886719 368.65625 C 109.175781 368.160156 111.476562 368.105469 113.785156 368.484375 C 117.097656 369.09375 118.429688 372.640625 116.492188 375.402344 C 115.292969 377.167969 113.800781 378.636719 112.011719 379.800781 C 108.410156 382 104.714844 384.21875 100.773438 385.675781 C 92.796875 388.625 84.675781 391.191406 76.550781 393.601562 C 75.113281 393.964844 73.796875 394.582031 72.601562 395.453125 C 71.402344 396.320312 70.40625 397.382812 69.617188 398.636719 C 64.535156 406.226562 60.074219 414.171875 56.242188 422.464844 C 55.828125 423.390625 55.523438 424.367188 55.152344 425.382812 C 56.667969 426.234375 57.261719 425.085938 57.933594 424.550781 C 62.738281 420.707031 67.355469 416.617188 72.3125 412.984375 C 76.121094 410.296875 80.09375 407.867188 84.222656 405.703125 C 86.675781 404.296875 89.320312 403.621094 92.148438 403.671875 C 95.398438 403.785156 97.390625 406.234375 96.273438 409.214844 C 95.558594 411.21875 94.480469 413 93.027344 414.558594 C 90.617188 416.949219 88.015625 419.113281 85.222656 421.050781 C 75.222656 428.0625 64.234375 433.535156 50.351562 438.648438 C 48.101562 442.511719 47.480469 447.179688 46.445312 451.660156 C 44.0625 462.007812 42.816406 474.414062 43.253906 480.484375 C 44.609375 480.621094 45.027344 479.503906 45.613281 478.683594 C 52.152344 469.5 59.640625 461.089844 67.417969 452.96875 C 70.566406 449.832031 73.898438 446.898438 77.402344 444.167969 C 78.492188 443.300781 79.699219 442.640625 81.019531 442.195312 C 82.335938 441.746094 83.695312 441.535156 85.085938 441.5625 C 89.425781 441.5625 91.09375 444.878906 90.503906 447.742188 C 90.058594 449.816406 89.292969 451.765625 88.203125 453.582031 C 87.039062 455.363281 85.710938 457.003906 84.207031 458.511719 C 80.121094 462.863281 75.582031 466.675781 70.59375 469.953125 C 62.46875 475.367188 54.34375 480.722656 46.222656 486.121094 C 45.207031 486.757812 44.230469 487.550781 43.140625 488.363281 Z M 43.140625 488.363281 " fill-opacity="1" fill-rule="nonzero"/><path fill="#015e56" d="M 740.402344 572.78125 C 739.980469 572.152344 739.425781 571.273438 738.832031 570.429688 C 734.335938 564 729.671875 557.675781 725.394531 551.105469 C 722.78125 546.984375 720.472656 542.695312 718.46875 538.246094 C 717.414062 535.910156 716.828125 533.460938 716.714844 530.898438 C 716.523438 526.605469 720.296875 524.46875 724.160156 526.402344 C 726.714844 527.683594 728.464844 529.828125 729.949219 532.175781 C 733.160156 537.199219 735.753906 542.527344 737.722656 548.15625 C 739.5 553.367188 741.105469 558.636719 742.800781 563.882812 C 743.035156 564.628906 743.355469 565.34375 743.597656 565.988281 C 745.324219 565.988281 745.519531 564.75 745.960938 563.902344 C 751.472656 553.507812 755.933594 542.679688 759.339844 531.417969 C 757.53125 530.066406 755.878906 528.792969 754.1875 527.574219 C 745.738281 521.484375 737.402344 515.269531 730.261719 507.65625 C 727.25 504.375 724.460938 500.914062 721.894531 497.273438 C 720.691406 495.507812 719.867188 493.582031 719.414062 491.496094 C 718.371094 486.933594 721.285156 483.605469 726.003906 483.597656 C 727.296875 483.574219 728.554688 483.773438 729.78125 484.203125 C 731.003906 484.628906 732.113281 485.257812 733.109375 486.082031 C 735.914062 488.34375 738.523438 490.8125 740.945312 493.480469 C 747.964844 501.503906 753.496094 510.539062 758.300781 520.035156 C 759.035156 521.476562 759.96875 522.816406 761.011719 524.496094 C 764.523438 515.019531 767.101562 498.386719 766.710938 488.113281 C 765.566406 487.3125 764.226562 486.339844 762.84375 485.40625 C 754.550781 479.875 746.21875 474.402344 737.972656 468.808594 C 733.171875 465.625 728.855469 461.882812 725.019531 457.582031 C 723.636719 455.976562 722.351562 454.292969 721.167969 452.535156 C 720.527344 451.542969 720.078125 450.46875 719.828125 449.316406 C 719.574219 448.164062 719.535156 447.003906 719.707031 445.832031 C 719.96875 443.378906 721.324219 441.949219 723.707031 441.625 C 725.199219 441.382812 726.675781 441.445312 728.140625 441.8125 C 729.605469 442.183594 730.9375 442.828125 732.136719 443.75 C 735.550781 446.265625 738.769531 449.015625 741.785156 452 C 749.847656 460.433594 757.660156 469.101562 764.449219 478.628906 C 764.921875 479.308594 765.480469 479.894531 765.898438 480.402344 C 766.351562 480.402344 766.574219 480.402344 766.710938 480.335938 C 766.859375 480.167969 766.933594 479.976562 766.933594 479.753906 C 766.996094 477 766.917969 474.25 766.703125 471.503906 C 765.945312 465.414062 765.132812 459.320312 763.996094 453.277344 C 763.089844 448.539062 761.632812 443.835938 760.394531 439.011719 C 758.910156 438.390625 757.597656 437.761719 756.230469 437.265625 C 744.601562 433.035156 733.746094 427.332031 723.660156 420.164062 C 721.0625 418.316406 718.675781 416.230469 716.492188 413.910156 C 715.207031 412.480469 714.28125 410.84375 713.707031 409.011719 C 713.59375 408.710938 713.515625 408.398438 713.480469 408.078125 C 713.441406 407.757812 713.441406 407.4375 713.484375 407.121094 C 713.527344 406.800781 713.605469 406.488281 713.722656 406.191406 C 713.84375 405.890625 713.996094 405.609375 714.183594 405.347656 C 714.371094 405.085938 714.585938 404.851562 714.832031 404.640625 C 715.078125 404.433594 715.347656 404.257812 715.636719 404.117188 C 715.925781 403.972656 716.226562 403.867188 716.542969 403.800781 C 716.859375 403.734375 717.175781 403.707031 717.5 403.71875 C 719.207031 403.613281 720.867188 403.855469 722.476562 404.4375 C 725.976562 405.902344 729.597656 407.347656 732.683594 409.496094 C 738.417969 413.484375 743.792969 417.984375 749.339844 422.25 C 750.753906 423.332031 751.890625 424.957031 753.730469 425.171875 C 754.707031 424.148438 754.226562 423.304688 753.910156 422.59375 C 749.832031 413.707031 745.015625 405.238281 739.453125 397.195312 C 738.148438 395.265625 736.355469 394.488281 734.28125 393.84375 C 728.1875 392.03125 722.042969 390.359375 716.050781 388.242188 C 711.273438 386.492188 706.605469 384.484375 702.050781 382.21875 C 699.804688 381.011719 697.714844 379.582031 695.78125 377.917969 C 694.792969 377.101562 694.011719 376.117188 693.4375 374.96875 C 692.042969 372.261719 693.390625 369.011719 696.363281 368.5 C 698.667969 368.121094 700.964844 368.164062 703.253906 368.628906 C 705.542969 369.148438 707.710938 369.976562 709.761719 371.117188 C 713.511719 373.085938 717.132812 375.308594 720.804688 377.425781 L 723.964844 379.265625 C 724.140625 378.683594 724.277344 378.453125 724.222656 378.394531 C 717.933594 371.191406 711.441406 364.179688 703.234375 359.085938 C 697.296875 355.375 691.175781 351.945312 685.429688 347.964844 C 680.238281 344.292969 675.246094 340.367188 670.453125 336.183594 C 668.421875 334.429688 666.824219 332.0625 665.234375 329.820312 C 664.574219 328.847656 664.097656 327.789062 663.800781 326.648438 C 663.507812 325.511719 663.410156 324.355469 663.515625 323.183594 C 663.519531 322.59375 663.632812 322.023438 663.84375 321.472656 C 664.058594 320.921875 664.359375 320.425781 664.753906 319.984375 C 665.144531 319.542969 665.601562 319.183594 666.125 318.910156 C 666.648438 318.632812 667.199219 318.460938 667.785156 318.382812 C 668.941406 318.128906 670.101562 318.074219 671.273438 318.222656 C 672.445312 318.375 673.558594 318.714844 674.609375 319.25 C 677.035156 320.535156 679.601562 321.734375 681.660156 323.492188 C 685.511719 326.796875 689.421875 330.167969 692.605469 334.078125 C 697.546875 340.167969 702.042969 346.605469 706.429688 353.09375 C 708.136719 355.78125 710.191406 358.167969 712.589844 360.257812 C 723.089844 368.953125 732.519531 378.679688 740.882812 389.445312 C 756.34375 409.382812 766.886719 431.640625 771.597656 456.445312 C 774.039062 469.203125 774.824219 482.0625 773.960938 495.023438 C 771.882812 525.78125 761.671875 553.746094 745.765625 579.863281 C 735.398438 596.738281 723.289062 612.261719 709.441406 626.425781 C 707.8125 628.089844 706.066406 629.625 704.210938 631.03125 C 703.902344 631.25 703.566406 631.40625 703.203125 631.503906 C 702.839844 631.597656 702.46875 631.625 702.09375 631.585938 C 701.71875 631.542969 701.367188 631.4375 701.03125 631.269531 C 700.695312 631.097656 700.398438 630.871094 700.148438 630.59375 C 699.929688 630.355469 699.757812 630.089844 699.625 629.792969 C 699.496094 629.5 699.417969 629.191406 699.386719 628.871094 C 699.355469 628.550781 699.378906 628.234375 699.453125 627.921875 C 699.523438 627.609375 699.648438 627.3125 699.816406 627.039062 C 700.703125 625.589844 701.722656 624.234375 702.867188 622.980469 C 705.578125 619.980469 708.351562 617.070312 711.054688 614.078125 C 712.460938 612.523438 713.761719 610.863281 715.171875 609.1875 C 714.371094 607.425781 713.6875 605.898438 712.984375 604.375 C 709.160156 596.269531 706.5625 587.785156 705.191406 578.929688 C 704.9375 576.828125 705 574.734375 705.378906 572.65625 C 705.4375 572.117188 705.578125 571.605469 705.796875 571.113281 C 706.019531 570.625 706.316406 570.179688 706.683594 569.785156 C 707.046875 569.390625 707.46875 569.0625 707.9375 568.804688 C 708.410156 568.542969 708.914062 568.367188 709.441406 568.269531 C 711.8125 567.820312 713.632812 569.183594 714.742188 571.050781 C 716.03125 573.007812 716.933594 575.132812 717.453125 577.417969 C 718.453125 583.253906 719.109375 589.152344 719.753906 595.015625 C 719.871094 597.234375 719.871094 599.449219 719.753906 601.667969 C 720.761719 601.347656 721.492188 601.355469 721.785156 600.992188 C 728.625 592.582031 734.730469 583.675781 740.105469 574.265625 C 740.265625 573.785156 740.367188 573.289062 740.402344 572.78125 Z M 740.402344 572.78125 " fill-opacity="1" fill-rule="nonzero"/><path fill="#f5edd5" d="M 444.488281 752.664062 C 445.417969 750.820312 446.277344 748.953125 447.277344 747.152344 C 456.941406 729.726562 466.695312 712.347656 476.289062 694.878906 C 489.464844 670.875 501.335938 646.273438 510.226562 620.3125 C 518.011719 597.585938 524.011719 574.421875 527.152344 550.605469 C 530.21875 527.234375 531.980469 503.773438 530.050781 480.1875 C 528.660156 463.265625 525.628906 446.558594 521.816406 430.023438 C 515.15625 400.851562 506.617188 372.238281 496.203125 344.179688 C 485.789062 316.125 473.589844 288.871094 459.601562 262.414062 C 443.71875 232.433594 427.117188 202.859375 409.792969 173.691406 C 408.4375 171.394531 406.40625 169.285156 406.449219 166.367188 C 406.679688 166.230469 406.921875 166.117188 407.171875 166.023438 C 412.523438 164.796875 416.476562 166.46875 419.597656 171.132812 C 424.667969 178.703125 430.46875 185.796875 435.316406 193.464844 C 454.617188 223.949219 472.183594 255.398438 488.019531 287.8125 C 500.261719 313.023438 509.875 339.304688 519.070312 365.746094 C 530.039062 397.023438 538.132812 429.03125 543.347656 461.765625 C 545.691406 476.246094 546.753906 490.824219 546.527344 505.492188 C 545.648438 549.738281 537.949219 592.734375 522.527344 634.289062 C 514.316406 656.398438 504.132812 677.601562 492.738281 698.210938 C 485.867188 710.640625 478.71875 722.917969 471.808594 735.332031 C 471.070312 736.738281 470.140625 738.007812 469.027344 739.140625 C 467.910156 740.269531 466.65625 741.21875 465.261719 741.976562 C 458.570312 745.617188 452.023438 749.515625 445.417969 753.3125 Z M 444.488281 752.664062 " fill-opacity="1" fill-rule="nonzero"/><path fill="#f5edd5" d="M 404.308594 166.46875 C 402.148438 170.332031 400.375 173.675781 398.441406 176.925781 C 383.457031 202.058594 369.328125 227.683594 355.265625 253.332031 C 333.359375 293.261719 316.101562 335.101562 302.222656 378.40625 C 292.691406 408.183594 285.433594 438.402344 281.175781 469.34375 C 279.566406 481.140625 278.941406 492.988281 279.300781 504.890625 C 279.976562 529.308594 282.449219 553.527344 287.730469 577.425781 C 294.851562 609.675781 305.894531 640.523438 320.855469 669.96875 C 328.132812 684.335938 335.972656 698.390625 343.671875 712.570312 C 349.953125 724.117188 356.40625 735.582031 362.761719 747.085938 C 363.757812 748.894531 364.628906 750.765625 365.550781 752.59375 C 364.121094 753.683594 363.304688 752.59375 362.523438 752.167969 C 356.253906 748.609375 350.054688 744.933594 343.777344 741.378906 C 341.859375 740.378906 340.355469 738.945312 339.261719 737.078125 C 323.175781 708.652344 306.507812 680.574219 293.902344 650.347656 C 280.613281 618.480469 271.351562 585.5 266.945312 551.25 C 264.15625 529.589844 262.835938 507.757812 264.101562 485.878906 C 265.035156 469.757812 267.785156 453.886719 271 438.085938 C 279.238281 397.640625 292.664062 358.835938 307.769531 320.523438 C 319.074219 291.839844 333.269531 264.601562 348.484375 237.875 C 357.398438 222.222656 366.667969 206.742188 376.140625 191.429688 C 380.480469 184.417969 385.867188 178.0625 390.4375 171.179688 C 393.726562 166.210938 397.9375 164.742188 404.308594 166.46875 Z M 404.308594 166.46875 " fill-opacity="1" fill-rule="nonzero"/><path fill="#f5edd5" d="M 443.371094 168.398438 C 445.335938 169.007812 447.433594 169.378906 449.242188 170.257812 C 454.203125 172.648438 459.199219 174.996094 463.925781 177.8125 C 489.367188 192.910156 512.847656 210.761719 535.167969 230.050781 C 562.769531 253.914062 589.769531 278.460938 614.988281 304.890625 C 627.171875 317.640625 639.007812 330.648438 649.859375 344.527344 C 676.417969 378.527344 694.167969 416.632812 702.589844 458.992188 C 711.164062 502.082031 707.234375 544.265625 692.746094 585.546875 C 685.003906 607.617188 672.679688 627.121094 657.28125 644.664062 C 645.09375 658.535156 632.441406 671.957031 619.074219 684.707031 C 616.628906 687.121094 613.753906 688.816406 610.457031 689.789062 C 605.375 691.273438 600.300781 692.875 595.246094 694.398438 C 594.277344 694.691406 593.269531 694.847656 591.683594 695.191406 C 592.882812 692.417969 594.746094 691.035156 596.289062 689.457031 C 605.96875 679.640625 615.804688 669.988281 625.285156 660.011719 C 632.867188 652.011719 640.179688 643.730469 647.320312 635.335938 C 668.570312 610.382812 681.375 581.398438 688.035156 549.480469 C 691.386719 533.441406 693.574219 517.253906 693.574219 500.902344 C 693.492188 490.503906 692.703125 480.15625 691.203125 469.867188 C 684.957031 424.683594 666.960938 384.496094 638.785156 348.769531 C 625.960938 332.652344 612.3125 317.261719 597.84375 302.601562 C 572.308594 276.484375 545.679688 251.570312 517.957031 227.859375 C 498.40625 211.210938 477.871094 195.808594 456.84375 181.074219 C 453.542969 178.757812 450.285156 176.390625 447.101562 173.914062 C 445.476562 172.65625 444.082031 171.113281 442.582031 169.695312 Z M 443.371094 168.398438 " fill-opacity="1" fill-rule="nonzero"/><path fill="#f5edd5" d="M 367.722656 168.484375 C 366.269531 171.789062 363.917969 173.296875 361.738281 174.886719 C 353.859375 180.640625 345.902344 186.292969 338.042969 192.03125 C 311.894531 210.953125 286.992188 231.394531 263.335938 253.351562 C 242.242188 273.027344 220.957031 292.523438 201.558594 313.910156 C 190.597656 325.996094 179.765625 338.273438 169.644531 351.050781 C 163.527344 358.734375 157.898438 366.757812 152.75 375.117188 C 147.601562 383.480469 142.976562 392.121094 138.875 401.042969 C 134.773438 409.964844 131.222656 419.101562 128.222656 428.449219 C 125.222656 437.800781 122.800781 447.296875 120.949219 456.941406 C 111.125 507.3125 117.882812 555.648438 140.332031 601.769531 C 147.636719 616.753906 157.792969 629.808594 168.683594 642.292969 C 182.378906 657.953125 196.828125 672.882812 211.722656 687.394531 C 213.976562 689.585938 216.09375 691.914062 218.972656 694.898438 C 217.070312 694.769531 216.230469 694.859375 215.492188 694.636719 C 209.8125 692.917969 204.160156 691.101562 198.480469 689.390625 C 196 688.660156 193.828125 687.394531 191.972656 685.59375 C 176.550781 671 162.007812 655.574219 148.355469 639.316406 C 127.921875 614.871094 115.316406 586.710938 108.753906 555.675781 C 104.355469 534.828125 102.085938 513.78125 103.339844 492.492188 C 105.59375 453.554688 116.535156 417.097656 135.070312 382.851562 C 144.4375 365.664062 155.480469 349.628906 168.203125 334.75 C 188.832031 310.457031 211.179688 287.839844 234.605469 266.273438 C 242.878906 258.652344 251.1875 251.078125 259.53125 243.554688 C 286.53125 219.238281 314.945312 196.773438 346.046875 177.859375 C 351.855469 174.324219 357.777344 171.023438 364.324219 169.0625 C 365.445312 168.800781 366.578125 168.609375 367.722656 168.484375 Z M 367.722656 168.484375 " fill-opacity="1" fill-rule="nonzero"/><path fill="#f5edd5" d="M 384.648438 88.714844 C 384.34375 90.082031 383.9375 91.421875 383.429688 92.726562 C 382.667969 94.238281 381.800781 95.683594 380.832031 97.074219 C 371.351562 110.964844 366.167969 126.476562 363.472656 142.9375 C 363.066406 145.433594 362.613281 147.925781 362.117188 150.421875 C 362.011719 151.476562 361.71875 152.476562 361.238281 153.421875 C 360.722656 154.226562 359.550781 155.347656 358.976562 155.195312 C 357.800781 154.804688 356.925781 154.058594 356.351562 152.960938 C 355.886719 151.761719 355.742188 150.523438 355.917969 149.25 C 357.09375 135.714844 359.300781 122.417969 364.671875 109.828125 C 367.175781 103.710938 370.589844 98.152344 374.921875 93.152344 C 376.65625 91.3125 378.617188 89.753906 380.804688 88.476562 C 381.597656 87.996094 383.03125 88.578125 384.648438 88.714844 Z M 384.648438 88.714844 " fill-opacity="1" fill-rule="nonzero"/><path fill="#f5edd5" d="M 454.027344 147.019531 C 454.007812 149.082031 453.847656 151.132812 453.554688 153.175781 C 453.390625 153.65625 453.128906 154.070312 452.757812 154.417969 C 452.390625 154.765625 451.964844 155.003906 451.476562 155.140625 C 450.976562 155.128906 450.507812 155 450.074219 154.75 C 449.636719 154.503906 449.289062 154.164062 449.027344 153.738281 C 448.269531 151.765625 447.726562 149.734375 447.402344 147.648438 C 445.652344 137.402344 443.648438 127.234375 439.898438 117.46875 C 437.144531 110.304688 433.421875 103.671875 429.339844 97.207031 C 428.082031 95.25 426.953125 93.21875 425.953125 91.117188 C 425.832031 90.726562 425.804688 90.332031 425.871094 89.929688 C 425.941406 89.527344 426.097656 89.164062 426.339844 88.835938 C 426.792969 88.355469 428.058594 88.011719 428.574219 88.300781 C 430.5625 89.445312 432.851562 90.507812 434.191406 92.246094 C 437.636719 96.546875 440.710938 101.097656 443.421875 105.898438 C 448.289062 114.9375 450.699219 124.847656 452.382812 134.929688 C 453.074219 138.855469 453.480469 142.871094 454.027344 147.019531 Z M 454.027344 147.019531 " fill-opacity="1" fill-rule="nonzero"/><path fill="#f5edd5" d="M 412.265625 88.1875 C 415.824219 89.730469 416.753906 92.699219 417.847656 95.351562 C 420.777344 102.648438 422.953125 110.160156 424.382812 117.890625 C 426.339844 127.898438 427.21875 138.023438 428.011719 148.160156 C 428.121094 149.851562 428.035156 151.535156 427.753906 153.203125 C 427.515625 154.738281 426.652344 156.160156 424.9375 156.195312 C 423.226562 156.230469 422.3125 154.992188 422 153.378906 C 421.789062 152.339844 421.664062 151.292969 421.621094 150.234375 C 421.25 133.589844 417.863281 117.449219 413.589844 101.449219 C 412.71875 98.183594 411.84375 94.894531 411.25 91.570312 C 411.074219 90.601562 411.851562 89.492188 412.265625 88.1875 Z M 412.265625 88.1875 " fill-opacity="1" fill-rule="nonzero"/><path fill="#f5edd5" d="M 398.671875 87.460938 C 398.671875 90.296875 398.914062 91.753906 398.621094 93.09375 C 397.84375 96.605469 396.875 100.078125 395.914062 103.542969 C 392.863281 114.796875 390.628906 126.207031 389.210938 137.78125 C 388.75 141.332031 388.90625 144.96875 388.644531 148.554688 C 388.5 150.441406 388.195312 152.304688 387.730469 154.136719 C 387.390625 155.457031 386.238281 156.527344 384.921875 156.074219 C 383.929688 155.734375 383.023438 154.570312 382.511719 153.554688 C 382.128906 152.546875 382.003906 151.507812 382.128906 150.4375 C 382.882812 132.164062 385.082031 114.148438 391.609375 96.910156 C 392.566406 94.550781 393.722656 92.296875 395.082031 90.140625 C 395.535156 89.382812 396.613281 88.964844 398.671875 87.460938 Z M 398.671875 87.460938 " fill-opacity="1" fill-rule="nonzero"/></svg>