<svg xmlns="http://www.w3.org/2000/svg" xmlns:xlink="http://www.w3.org/1999/xlink" width="1080" zoomAndPan="magnify" viewBox="0 0 810 809.999993" height="1080" preserveAspectRatio="xMidYMid meet" version="1.0"><path fill="#ffd2c3" d="M 753.332031 467.628906 C 752.417969 631.371094 640.5625 761.117188 496.945312 798.234375 C 488.269531 800.5 479.355469 801.847656 470.664062 804.066406 C 456.132812 807.777344 441.238281 808.515625 426.425781 809.253906 C 411.804688 810.007812 397.113281 809.960938 382.492188 808.378906 C 374.945312 807.5625 367.402344 807.390625 359.921875 806.167969 C 351.320312 804.757812 342.832031 802.585938 334.324219 800.617188 C 328.0625 799.167969 321.84375 797.539062 315.675781 795.738281 C 309.503906 793.9375 303.390625 791.964844 297.328125 789.824219 C 291.269531 787.679688 285.273438 785.367188 279.34375 782.886719 C 273.414062 780.40625 267.558594 777.761719 261.777344 774.953125 C 255.996094 772.144531 250.300781 769.175781 244.683594 766.046875 C 239.070312 762.921875 233.546875 759.636719 228.117188 756.199219 C 222.6875 752.761719 217.359375 749.171875 212.128906 745.4375 C 206.902344 741.699219 201.78125 737.820312 196.769531 733.792969 C 191.757812 729.769531 186.867188 725.609375 182.089844 721.308594 C 177.3125 717.011719 172.660156 712.582031 168.128906 708.023438 C 163.601562 703.460938 159.203125 698.78125 154.9375 693.972656 C 150.675781 689.167969 146.546875 684.246094 142.558594 679.207031 C 138.570312 674.167969 134.722656 669.023438 131.023438 663.769531 C 127.324219 658.515625 123.773438 653.164062 120.375 647.710938 C 116.976562 642.257812 113.730469 636.714844 110.644531 631.078125 C 107.554688 625.445312 104.628906 619.726562 101.859375 613.929688 C 95.460938 600.402344 89.96875 586.519531 85.382812 572.28125 C 80.796875 558.039062 77.15625 543.558594 74.457031 528.84375 C 71.761719 514.128906 70.035156 499.300781 69.273438 484.359375 C 68.511719 469.417969 68.726562 454.488281 69.914062 439.578125 C 82.460938 288.609375 190.3125 169.667969 326.558594 135.484375 C 341.265625 131.789062 356.082031 128.933594 371.21875 127.945312 C 376.402344 127.597656 381.609375 127.542969 386.800781 127.523438 C 403.339844 127.476562 419.878906 127.558594 436.417969 127.523438 C 463.664062 127.417969 489.929688 133.019531 515.6875 141.308594 C 522.71875 143.574219 529.671875 146.066406 536.539062 148.78125 C 543.410156 151.496094 550.1875 154.429688 556.867188 157.585938 C 563.546875 160.738281 570.121094 164.101562 576.582031 167.679688 C 583.046875 171.257812 589.386719 175.042969 595.605469 179.027344 C 601.824219 183.015625 607.90625 187.199219 613.855469 191.578125 C 619.800781 195.960938 625.601562 200.527344 631.253906 205.28125 C 636.910156 210.035156 642.402344 214.96875 647.734375 220.078125 C 653.070312 225.1875 658.234375 230.464844 663.226562 235.90625 C 668.21875 241.351562 673.03125 246.949219 677.660156 252.703125 C 682.289062 258.457031 686.730469 264.355469 690.980469 270.394531 C 695.230469 276.433594 699.28125 282.605469 703.128906 288.910156 C 706.980469 295.210938 710.625 301.628906 714.058594 308.167969 C 717.496094 314.703125 720.714844 321.347656 723.722656 328.089844 C 726.726562 334.835938 729.511719 341.671875 732.074219 348.597656 C 734.640625 355.523438 736.976562 362.523438 739.089844 369.601562 C 741.199219 376.675781 743.082031 383.8125 744.730469 391.011719 C 750.332031 416.242188 753.199219 441.785156 753.332031 467.628906 Z M 753.332031 467.628906 " fill-opacity="1" fill-rule="nonzero"/><path fill="#f5edd5" d="M 446.511719 135.773438 C 443.496094 132.054688 439.042969 132.355469 437.457031 128.757812 C 437.894531 128.34375 438.214844 127.808594 438.5 127.800781 C 442.03125 127.800781 445.578125 127.679688 449.0625 127.960938 C 450.957031 128.1875 452.757812 128.71875 454.472656 129.550781 C 459.21875 131.652344 464.003906 133.726562 468.589844 136.148438 C 495 150.085938 518.078125 168.3125 538.453125 190.023438 C 558.160156 211.019531 574.523438 234.34375 586.824219 260.425781 C 593.09375 273.722656 598.140625 287.433594 600.761719 301.941406 C 601.128906 303.550781 601.316406 305.183594 601.324219 306.835938 C 601.207031 309.851562 599.339844 311.480469 596.136719 310.953125 C 594 310.597656 592.476562 311.324219 590.851562 312.183594 C 583.722656 315.886719 576.628906 319.664062 569.46875 323.304688 C 555.554688 330.523438 540.949219 335.851562 525.65625 339.292969 C 517.082031 341.171875 508.367188 341.835938 499.667969 342.703125 C 496.613281 343.011719 493.519531 342.996094 490.488281 343.457031 C 483.863281 344.460938 477.855469 342.527344 471.96875 339.898438 C 471.257812 339.59375 470.597656 339.199219 469.996094 338.710938 C 469.390625 338.222656 468.867188 337.660156 468.421875 337.023438 C 467.976562 336.390625 467.625 335.703125 467.375 334.972656 C 467.121094 334.238281 466.972656 333.484375 466.929688 332.710938 C 466.742188 330.117188 466.6875 327.523438 466.773438 324.925781 C 466.847656 319.492188 467.042969 314.0625 467.105469 308.625 C 467.15625 303.902344 467.203125 299.25 468.371094 294.566406 C 469.214844 291.195312 469.171875 287.523438 469.066406 284.007812 C 468.492188 266.90625 465.65625 250.1875 460.5625 233.851562 C 451.847656 205.484375 440.03125 178.5 423.816406 153.578125 C 420.171875 147.972656 420.917969 145.28125 425.671875 140.757812 C 429.046875 137.519531 433.375 136.230469 437.941406 135.824219 C 440.515625 135.589844 443.117188 135.773438 446.511719 135.773438 Z M 446.511719 135.773438 " fill-opacity="1" fill-rule="nonzero"/><path fill="#f5edd5" d="M 384.613281 128.042969 C 383.855469 131 381.8125 131.359375 380.265625 132.304688 C 378.890625 133.140625 377.445312 133.8125 374.765625 135.320312 C 378.574219 135.507812 381.011719 135.566406 383.433594 135.757812 C 388.761719 136.1875 393.664062 137.71875 397.414062 141.789062 C 400.960938 145.613281 401.800781 148.230469 398.59375 153.101562 C 384.625 174.277344 374.175781 197.226562 365.65625 221.109375 C 360.082031 236.734375 355.910156 252.714844 354.054688 269.191406 C 353.1875 276.90625 353.511719 284.75 353.296875 292.566406 C 355.886719 303.976562 354.695312 315.597656 355.191406 327.121094 C 355.621094 337.191406 353.855469 339.292969 344.101562 342.257812 C 340 343.589844 335.808594 344.007812 331.523438 343.507812 C 325.433594 342.71875 319.292969 342.300781 313.171875 341.796875 C 297.726562 340.53125 282.992188 336.429688 268.65625 330.675781 C 256.582031 325.816406 245.191406 319.542969 233.667969 313.53125 C 230.800781 312.023438 228.144531 310.011719 224.449219 311.171875 C 223.121094 311.59375 221.625 310.304688 221.332031 308.835938 C 220.941406 307.003906 220.863281 305.15625 221.097656 303.300781 C 222.535156 294.414062 224.871094 285.773438 228.109375 277.371094 C 237.253906 252.804688 250.433594 230.511719 266.589844 209.925781 C 289.140625 181.148438 315.980469 157.234375 347.910156 139.226562 C 353.253906 136.210938 358.898438 133.742188 364.328125 130.886719 C 370.628906 127.523438 377.300781 127.183594 384.613281 128.042969 Z M 384.613281 128.042969 " fill-opacity="1" fill-rule="nonzero"/><path fill="#f5edd5" d="M 589.925781 674.90625 C 591.382812 679.433594 590.679688 683.40625 589.746094 687.304688 C 587.175781 698.148438 583.367188 708.539062 578.3125 718.472656 C 568.367188 738.269531 555.382812 755.90625 540.226562 771.96875 C 535.207031 777.292969 529.8125 782.261719 524.589844 787.40625 C 521.828125 790.0625 518.617188 791.964844 514.964844 793.117188 C 501.066406 797.851562 486.757812 800.882812 472.402344 803.742188 C 471.011719 804.019531 469.578125 804.132812 468.21875 804.496094 C 456.050781 807.78125 443.488281 807.867188 431.066406 809.019531 C 430.511719 808.945312 429.980469 808.796875 429.46875 808.566406 C 433.242188 802.8125 437.210938 797.253906 440.605469 791.402344 C 443.914062 785.675781 446.863281 779.765625 449.457031 773.679688 C 452.109375 767.367188 454.410156 760.925781 456.359375 754.359375 C 458.269531 748.03125 459.835938 741.613281 461.058594 735.117188 C 462.378906 728.382812 463.304688 721.59375 463.828125 714.753906 C 464.289062 708.238281 465.558594 701.601562 463.140625 695.199219 C 464.3125 691.867188 465.996094 689.378906 469.539062 688.164062 C 471.457031 687.5 473.003906 685.75 474.671875 684.394531 C 480.027344 680.117188 485.234375 675.632812 490.742188 671.574219 C 495.675781 667.945312 500.847656 664.613281 506.105469 661.46875 C 513.339844 657.148438 521.25 656.429688 529.414062 658.007812 C 531.730469 658.453125 534.023438 659.03125 536.300781 659.644531 C 547.484375 662.660156 558.644531 665.675781 569.824219 668.691406 C 574.414062 669.90625 579.050781 671.167969 582.855469 674.023438 C 585.074219 675.765625 587.140625 675.171875 589.925781 674.90625 Z M 589.925781 674.90625 " fill-opacity="1" fill-rule="nonzero"/><path fill="#f5edd5" d="M 232.332031 674.882812 L 236.679688 675.636719 C 241.621094 671.867188 247.65625 669.882812 253.859375 668.253906 C 264.363281 665.496094 274.835938 662.605469 285.347656 659.886719 C 289 658.921875 292.699219 658.167969 296.4375 657.621094 C 299.625 657.125 302.804688 657.167969 305.980469 657.75 C 309.152344 658.335938 312.136719 659.429688 314.9375 661.03125 C 320.46875 664.199219 325.816406 667.652344 330.980469 671.394531 C 336.699219 675.5625 342.070312 680.207031 347.617188 684.621094 C 349.285156 685.941406 350.855469 687.703125 352.761719 688.308594 C 356.160156 689.386719 357.507812 691.898438 358.898438 695.003906 C 356.679688 700.480469 357.53125 706.398438 357.976562 712.222656 C 359.484375 731.875 363.507812 750.996094 370.804688 769.359375 C 375.957031 782.363281 382.304688 794.738281 391.054688 805.753906 C 391.578125 806.492188 392.050781 807.261719 392.472656 808.0625 C 391.34375 809.730469 389.855469 808.875 388.609375 808.960938 C 387.425781 809 386.246094 808.941406 385.070312 808.785156 C 377.320312 808.015625 369.570312 807.230469 361.816406 806.425781 C 360.875 806.371094 359.9375 806.261719 359.011719 806.09375 C 347.511719 803.476562 335.984375 800.957031 324.527344 798.121094 C 318.128906 796.539062 311.867188 794.351562 305.53125 792.519531 C 303.011719 791.726562 300.792969 790.421875 298.882812 788.597656 C 275.492188 767.484375 255.828125 743.554688 242.128906 715.011719 C 237.667969 705.851562 234.34375 696.300781 232.152344 686.355469 C 231.351562 682.652344 230.582031 678.941406 232.332031 674.882812 Z M 232.332031 674.882812 " fill-opacity="1" fill-rule="nonzero"/><path fill="#ffd2c3" d="M 238.074219 275.765625 C 238 274.515625 237.523438 273.113281 237.917969 272.035156 C 239.375 268.050781 240.933594 264.09375 242.785156 260.277344 C 256.207031 232.539062 274.796875 208.507812 296.1875 186.5625 C 304.4375 178.117188 313.1875 170.167969 321.746094 162.015625 C 322.886719 160.816406 324.167969 159.785156 325.585938 158.929688 C 326.414062 158.484375 327.667969 158.847656 329.476562 158.847656 C 328.347656 160.613281 327.78125 161.902344 326.859375 162.851562 C 324.394531 165.394531 321.78125 167.792969 319.230469 170.25 C 302.902344 186.050781 287.734375 202.894531 273.71875 220.777344 C 261.222656 236.613281 251.082031 253.898438 241.984375 271.84375 C 241.230469 273.277344 240.390625 274.644531 239.59375 276.046875 Z M 238.074219 275.765625 " fill-opacity="1" fill-rule="nonzero"/><path fill="#ffd2c3" d="M 582.613281 276.023438 C 577.84375 267.410156 573.332031 258.632812 568.226562 250.222656 C 563.117188 241.816406 557.660156 233.4375 551.792969 225.453125 C 546.070312 217.652344 539.816406 210.234375 533.5 202.894531 C 527.035156 195.355469 520.238281 188.144531 513.523438 180.84375 C 506.808594 173.546875 499.3125 167.269531 491.785156 159.292969 C 494.136719 158.839844 495.171875 158.289062 495.769531 158.589844 C 497.214844 159.378906 498.539062 160.332031 499.746094 161.457031 C 521.875 181.148438 542.238281 202.445312 559.457031 226.636719 C 567.976562 238.609375 574.957031 251.460938 581.445312 264.597656 C 582.648438 267.167969 583.628906 269.820312 584.378906 272.554688 C 584.660156 273.503906 584.214844 274.664062 584.101562 275.738281 Z M 582.613281 276.023438 " fill-opacity="1" fill-rule="nonzero"/><path fill="#ffd2c3" d="M 580.253906 693.789062 C 581.363281 697.808594 580.0625 700.667969 579.023438 703.472656 C 575.78125 712.371094 571.695312 720.867188 566.769531 728.953125 C 554.289062 749.136719 539.117188 767.167969 522.75 784.238281 C 521.503906 785.667969 520.070312 786.882812 518.457031 787.882812 C 517.492188 788.410156 516.003906 787.980469 514.125 787.980469 C 514.878906 786.058594 515.191406 784.660156 515.945312 783.589844 C 517.207031 781.878906 518.578125 780.257812 520.054688 778.726562 C 532.664062 764.949219 544.066406 750.207031 554.945312 735.046875 C 562.738281 724.042969 569.503906 712.441406 575.242188 700.238281 C 576.335938 698.019531 576.878906 695.296875 580.253906 693.789062 Z M 580.253906 693.789062 " fill-opacity="1" fill-rule="nonzero"/><path fill="#ffd2c3" d="M 242.1875 693.019531 C 243.832031 695.285156 244.988281 696.453125 245.621094 697.839844 C 259.445312 728.066406 279.964844 753.644531 301.628906 778.371094 C 303.636719 780.632812 305.453125 783.136719 307.234375 785.613281 C 307.382812 785.917969 307.449219 786.242188 307.429688 786.582031 C 307.40625 786.921875 307.304688 787.234375 307.121094 787.519531 C 306.464844 788.039062 305.324219 788.582031 304.667969 788.339844 C 303.347656 787.828125 302.179688 787.074219 301.167969 786.078125 C 298.152344 783.0625 295.132812 780.089844 292.304688 776.925781 C 279.0625 762.128906 266.355469 746.910156 255.859375 729.980469 C 250.773438 721.710938 246.554688 713.023438 243.207031 703.910156 C 242.097656 700.886719 240.453125 697.832031 242.1875 693.019531 Z M 242.1875 693.019531 " fill-opacity="1" fill-rule="nonzero"/><path fill="#ffd2c3" d="M 382.664062 166.804688 C 381.640625 170.648438 379.171875 173.808594 377.105469 177.121094 C 365.296875 196.105469 356.539062 216.402344 350.824219 238.015625 C 346.921875 252.636719 344.121094 267.46875 342.425781 282.507812 C 342.320312 283.449219 342.328125 284.402344 342.191406 285.328125 C 341.988281 286.738281 341.710938 288.441406 339.859375 288.113281 C 338.191406 287.824219 338.003906 286.113281 338.125 284.671875 C 338.511719 279.96875 338.804688 275.238281 339.46875 270.570312 C 342.804688 246.875 347.980469 223.664062 357.925781 201.742188 C 362.917969 190.730469 368.804688 180.25 376.628906 170.957031 C 378.136719 169.203125 379.753906 167.589844 381.328125 165.914062 Z M 382.664062 166.804688 " fill-opacity="1" fill-rule="nonzero"/><path fill="#ffd2c3" d="M 440.589844 165.90625 C 442.039062 167.371094 443.722656 168.667969 444.890625 170.316406 C 449.363281 176.683594 454.132812 182.898438 457.957031 189.632812 C 467.84375 206.976562 473.878906 225.828125 478.148438 245.300781 C 480.683594 256.832031 482.496094 268.476562 483.589844 280.230469 C 483.832031 282.871094 484.804688 285.835938 482.59375 288.15625 C 479.960938 288.15625 479.953125 286.339844 479.734375 284.753906 C 478.851562 278.210938 478.164062 271.640625 477.09375 265.148438 C 471.8125 232.894531 461.300781 202.554688 443.578125 174.894531 C 441.964844 172.347656 440.007812 169.925781 440.589844 165.90625 Z M 440.589844 165.90625 " fill-opacity="1" fill-rule="nonzero"/><path fill="#ffd2c3" d="M 345.691406 701.25 C 348.808594 704.769531 348.644531 707.824219 349.050781 710.75 C 350.191406 718.910156 351.089844 727.121094 352.753906 735.167969 C 356.898438 755.226562 365.539062 773.515625 375.640625 791.167969 C 376.921875 793.433594 378.234375 795.695312 379.328125 797.957031 C 379.632812 798.589844 379.203125 799.570312 379.003906 801.253906 C 377.121094 799.878906 375.550781 799.214844 374.683594 798.03125 C 371.203125 793.296875 367.484375 788.652344 364.667969 783.523438 C 355.207031 766.269531 347.902344 748.167969 345.671875 728.472656 C 344.824219 721.015625 344.917969 713.441406 344.710938 705.925781 C 344.695312 704.824219 345.171875 703.667969 345.691406 701.25 Z M 345.691406 701.25 " fill-opacity="1" fill-rule="nonzero"/><path fill="#ffd2c3" d="M 442.527344 799.871094 C 442.851562 798.378906 443.316406 796.933594 443.917969 795.527344 C 446.03125 791.578125 448.445312 787.761719 450.550781 783.816406 C 461.542969 763.457031 469.414062 742.113281 472.25 719.046875 C 472.824219 714.363281 473.289062 709.664062 473.953125 704.996094 C 474.097656 704.015625 474.859375 703.117188 475.855469 701.164062 C 477.410156 705.011719 478.0625 709.003906 477.808594 713.140625 C 477.054688 739.269531 468.976562 763.214844 456.191406 785.730469 C 453.757812 790.015625 450.59375 793.90625 447.585938 797.84375 C 446.65625 799.058594 445.140625 799.820312 443.886719 800.792969 Z M 442.527344 799.871094 " fill-opacity="1" fill-rule="nonzero"/><path fill="#d9a604" d="M 593.085938 683.414062 C 591.578125 684.363281 590.453125 685.164062 589.246094 685.878906 C 576.765625 693.300781 563.757812 693.972656 550.464844 688.472656 C 540.359375 684.304688 532.46875 677.273438 526.070312 668.511719 C 524.703125 666.632812 523.300781 664.742188 521.679688 662.578125 L 517.394531 668.683594 C 514.609375 672.679688 511.386719 676.285156 507.726562 679.5 C 504.066406 682.710938 500.078125 685.4375 495.753906 687.683594 C 488.496094 691.453125 480.835938 693.59375 472.582031 693.238281 C 470.953125 693.164062 469.316406 693.238281 467.570312 693.238281 C 466.449219 695.269531 465.496094 697.144531 464.402344 698.941406 C 454.34375 715.492188 440.191406 726.527344 421.046875 730.570312 C 410.078125 732.875 399.355469 731.480469 389.144531 726.949219 C 375.121094 720.691406 364.179688 710.902344 356.785156 697.335938 C 356.21875 696.300781 355.667969 695.261719 355.09375 694.226562 C 354.835938 693.886719 354.554688 693.5625 354.25 693.261719 C 330.253906 694.882812 313.414062 682.703125 300.511719 662.621094 C 299.039062 664.53125 297.78125 666.078125 296.613281 667.699219 C 291.328125 675.089844 285 681.429688 276.992188 685.796875 C 261.632812 694.199219 246.367188 694.484375 231.34375 684.847656 C 230.589844 684.355469 229.777344 683.957031 228.605469 683.339844 C 227.550781 685.117188 226.597656 686.679688 225.679688 688.261719 C 213.539062 709.121094 189.839844 714.835938 168.914062 706.753906 C 165.996094 705.628906 163.453125 703.074219 161.21875 700.71875 C 143.40625 681.929688 128.011719 661.335938 115.035156 638.933594 C 92.609375 600.242188 78.125 558.789062 72.207031 514.4375 C 61.328125 432.902344 77.355469 357.027344 120.292969 286.808594 C 122 284.007812 123.871094 281.316406 125.492188 278.84375 C 132.398438 277.703125 137.242188 281.589844 142.605469 284.121094 C 148.9375 263.761719 160.933594 249.167969 183.046875 247.53125 C 207.246094 245.738281 221.421875 260.003906 229.988281 281.105469 C 230.773438 280.96875 231.546875 280.789062 232.3125 280.5625 C 247.9375 274.621094 261.527344 278.625 273.675781 289.175781 C 277.996094 292.945312 281.285156 297.566406 284.09375 302.546875 C 285.007812 304.175781 285.890625 305.824219 287.113281 308.027344 C 288.90625 306.171875 290.410156 304.519531 292.007812 302.976562 C 304.941406 290.496094 320.175781 286.113281 337.636719 290.515625 C 341.914062 291.59375 345.875 293.902344 350.234375 295.75 C 350.847656 293.238281 351.382812 290.714844 352.078125 288.210938 C 357.359375 269.355469 368.261719 254.628906 386.824219 247.894531 C 408.574219 239.992188 430.109375 241 449.273438 255.925781 C 459.679688 264.023438 466.296875 274.777344 469.820312 287.457031 C 470.574219 290.148438 471.140625 292.894531 471.84375 295.824219 C 495.988281 283.007812 516.59375 287.976562 534.785156 307.679688 C 535.703125 306.261719 536.65625 304.988281 537.402344 303.601562 C 540.359375 298.15625 543.855469 293.042969 548.546875 289.023438 C 560.5 278.730469 573.882812 274.695312 589.292969 280.359375 C 590.136719 280.667969 591.035156 280.828125 592.113281 281.113281 C 600.632812 260.066406 614.6875 245.957031 638.546875 247.480469 C 660.648438 248.882812 672.929688 263.195312 679.367188 283.902344 C 680.632812 283.339844 681.820312 282.832031 682.980469 282.289062 C 684.855469 281.289062 686.777344 280.386719 688.746094 279.582031 C 694.820312 277.472656 696.183594 277.96875 699.730469 283.554688 C 711.089844 301.324219 720.707031 319.988281 728.582031 339.546875 C 736.457031 359.105469 742.457031 379.222656 746.578125 399.902344 C 751.296875 422.90625 753.535156 446.148438 753.292969 469.628906 C 752.253906 541.109375 731.59375 606.335938 690.320312 664.886719 C 682.023438 676.6875 672.507812 687.507812 663.234375 698.578125 C 657.085938 705.902344 649.480469 709.136719 640.507812 709.949219 C 621.011719 711.664062 605.882812 704.507812 595.9375 687.328125 C 595.351562 686.308594 594.753906 685.300781 594.136719 684.3125 C 594.007812 684.0625 593.765625 683.964844 593.085938 683.414062 Z M 593.085938 683.414062 " fill-opacity="1" fill-rule="nonzero"/><path fill="#d9a604" d="M 378.777344 150.304688 C 377.15625 151.53125 375.691406 152.703125 374.160156 153.789062 C 364.503906 160.648438 354.0625 161.828125 343.277344 157.144531 C 332.050781 152.265625 326.347656 143.035156 325.261719 131.125 C 324.691406 124.988281 324.730469 118.851562 325.375 112.71875 C 326.949219 97.929688 329.039062 83.203125 330.957031 68.453125 C 331.160156 67.285156 331.429688 66.132812 331.757812 64.996094 C 333.441406 58.015625 335.53125 55.8125 342.660156 55.074219 C 350.207031 54.320312 357.75 53.90625 365.296875 53.65625 C 372.839844 53.40625 380.402344 53.617188 388 53.542969 C 388.925781 53.542969 389.863281 53.398438 391.394531 53.269531 C 390.699219 51.589844 390.242188 50.148438 389.539062 48.835938 C 386.609375 43.339844 384.726562 37.617188 384.558594 31.296875 C 384.046875 12.003906 405.683594 0.015625 421.898438 7.714844 C 434.78125 13.839844 440.265625 25.578125 436.296875 39.433594 C 435.015625 43.914062 432.8125 48.128906 430.894531 52.789062 C 432.035156 54.011719 433.730469 53.496094 435.238281 53.542969 C 447.992188 53.898438 460.75 54.152344 473.503906 54.574219 C 476.574219 54.679688 479.609375 55.066406 482.609375 55.746094 C 486.578125 56.65625 489.265625 58.980469 489.957031 63.355469 C 491.058594 70.351562 492.78125 77.257812 493.59375 84.28125 C 495.019531 96.707031 496.070312 109.167969 497.058594 121.664062 C 497.628906 127.382812 497.070312 132.988281 495.390625 138.488281 C 488.019531 161.109375 462.804688 164.699219 448.699219 154.324219 C 446.996094 153.0625 445.304688 151.765625 443.261719 150.226562 C 442.257812 151.082031 441.195312 151.886719 440.242188 152.816406 C 432.699219 160.296875 423.769531 164.179688 412.9375 164.269531 C 404.199219 164.335938 395.914062 163.394531 388.601562 158.328125 C 385.335938 156.082031 382.414062 153.304688 378.777344 150.304688 Z M 420.390625 53.367188 C 424.917969 47.667969 426.277344 44.816406 427.734375 38.808594 C 428.265625 36.746094 428.507812 34.652344 428.464844 32.523438 C 428.417969 30.394531 428.085938 28.3125 427.46875 26.273438 C 427.171875 25.382812 426.804688 24.519531 426.371094 23.6875 C 425.933594 22.855469 425.4375 22.0625 424.875 21.308594 C 424.3125 20.554688 423.695312 19.851562 423.019531 19.195312 C 422.34375 18.542969 421.625 17.945312 420.855469 17.40625 C 420.085938 16.863281 419.277344 16.390625 418.429688 15.980469 C 417.585938 15.566406 416.710938 15.226562 415.8125 14.957031 C 414.914062 14.683594 413.996094 14.484375 413.066406 14.359375 C 412.132812 14.234375 411.199219 14.183594 410.257812 14.207031 C 402.96875 14.546875 396.058594 20.097656 394.414062 27.148438 C 392.132812 37.085938 395.492188 45.554688 401.527344 53.617188 C 406.128906 53.617188 410.582031 53.617188 415.042969 53.617188 C 416.890625 53.617188 418.746094 53.460938 420.390625 53.367188 Z M 420.390625 53.367188 " fill-opacity="1" fill-rule="nonzero"/><path fill="#f5edd5" d="M 514.957031 584.707031 C 468.507812 673.496094 352.980469 673 307.378906 585.105469 C 305.378906 587.035156 305.046875 589.632812 304.105469 591.894531 C 292.628906 619.207031 272.964844 637.984375 244.835938 647.109375 C 215.175781 656.703125 187.347656 651.3125 161.71875 634.15625 C 146.242188 623.800781 134.742188 609.863281 126.632812 593.136719 C 125.792969 591.414062 124.953125 589.722656 124.113281 588.0625 C 124.027344 587.902344 123.71875 587.859375 123.039062 587.519531 C 117.074219 596.160156 110.417969 604.277344 99.3125 606.582031 C 90.40625 593.101562 76.660156 546.8125 72.554688 517.890625 C 65.929688 471.703125 68.171875 426.046875 80.101562 380.273438 C 81.570312 381.101562 82.96875 381.488281 83.753906 382.390625 C 88.082031 387.382812 92.324219 392.453125 96.472656 397.59375 C 97.9375 399.398438 99.144531 401.417969 100.382812 403.210938 C 102.417969 403.09375 102.164062 401.628906 102.441406 400.632812 C 105.785156 387.992188 110.835938 376.074219 117.601562 364.878906 C 127.355469 349.089844 139.925781 336.132812 156.359375 327.3125 C 181.035156 314.0625 206.414062 312.929688 232.199219 323.847656 C 252.425781 332.414062 267.789062 346.8125 280.09375 364.707031 C 287.871094 376.117188 293.804688 388.414062 297.894531 401.597656 C 298.460938 403.378906 299.046875 405.152344 299.96875 407.972656 C 300.425781 407.015625 300.828125 406.039062 301.175781 405.039062 C 307.914062 380.738281 321.949219 361.214844 340.96875 345.136719 C 359.070312 329.890625 379.648438 319.820312 403.367188 316.804688 C 408.542969 316.082031 413.71875 316.097656 418.890625 316.851562 C 460.382812 323.320312 490.28125 346.214844 511.347656 381.660156 C 515.960938 389.417969 518.984375 397.875 521.371094 406.929688 C 523.285156 406.175781 523.347656 404.503906 523.769531 403.085938 C 526.203125 394.785156 529.402344 386.789062 533.367188 379.101562 C 537.335938 371.414062 541.996094 364.171875 547.347656 357.378906 C 557.15625 344.980469 568.664062 334.625 582.703125 327.210938 C 615.464844 309.949219 652.382812 313.820312 680.867188 337.492188 C 699.269531 352.785156 710.9375 372.4375 718.027344 395.03125 C 718.78125 397.503906 719.539062 399.992188 720.292969 402.464844 C 720.351562 402.664062 720.585938 402.804688 720.789062 403.03125 C 722.367188 403.460938 722.632812 401.96875 723.257812 401.140625 C 726.96875 396.253906 730.507812 391.222656 734.347656 386.433594 C 736.226562 384.082031 738.324219 381.78125 741.140625 380.402344 C 748.554688 397.617188 754.496094 448.171875 753.152344 479.6875 C 750.804688 535.003906 734.523438 585.339844 722.96875 606.199219 C 714.050781 604.773438 710.429688 601.984375 698.371094 587.066406 L 695.195312 593.453125 C 682.640625 618.746094 663.324219 636.734375 636.636719 646.144531 C 586.4375 663.84375 537.796875 636.695312 519.453125 595.40625 C 518.085938 592.210938 516.757812 588.96875 514.957031 584.707031 Z M 514.957031 584.707031 " fill-opacity="1" fill-rule="nonzero"/><path fill="#f5edd5" d="M 427.777344 105.652344 C 427.984375 111.867188 426.890625 117.847656 424.488281 123.585938 C 422.957031 127.347656 420.742188 130.65625 417.839844 133.5 C 412.414062 138.613281 409.457031 138.59375 404.03125 133.261719 C 402.699219 131.921875 401.507812 130.46875 400.457031 128.902344 C 398.046875 125.34375 396.40625 121.464844 395.53125 117.257812 C 392.949219 105.335938 394.019531 93.8125 399.703125 82.921875 C 401.011719 80.410156 402.664062 78.148438 404.660156 76.136719 C 408.890625 71.90625 413.398438 71.988281 417.652344 76.316406 C 419.429688 78.207031 420.941406 80.292969 422.179688 82.574219 C 425.980469 89.210938 427.664062 96.558594 427.777344 105.652344 Z M 427.777344 105.652344 " fill-opacity="1" fill-rule="nonzero"/><path fill="#f5edd5" d="M 361.71875 135.695312 C 353.109375 129.421875 348.484375 120.792969 346.710938 110.808594 C 344.878906 100.449219 347.140625 90.644531 353.179688 81.875 C 353.949219 80.683594 354.832031 79.585938 355.828125 78.570312 C 359.410156 75.101562 363.710938 75.042969 366.976562 78.714844 C 378.363281 91.535156 382.921875 111.511719 370.296875 129.542969 C 369.265625 131.03125 368.011719 132.300781 366.539062 133.355469 C 365.066406 134.414062 363.460938 135.191406 361.71875 135.695312 Z M 361.71875 135.695312 " fill-opacity="1" fill-rule="nonzero"/><path fill="#f5edd5" d="M 459.625 135.5 C 454.59375 133.621094 451.695312 130.03125 449.355469 125.792969 C 440.183594 109.203125 444.195312 92.167969 453.792969 80.140625 C 458.320312 74.476562 463.347656 74.476562 467.730469 80.34375 C 475.5625 90.828125 477.824219 102.546875 474.273438 115.140625 C 472.265625 122.257812 468.6875 128.621094 463.007812 133.601562 C 462.476562 134.066406 461.914062 134.492188 461.316406 134.875 C 460.773438 135.132812 460.207031 135.339844 459.625 135.5 Z M 459.625 135.5 " fill-opacity="1" fill-rule="nonzero"/><path fill="#ffd2c3" d="M 479.863281 478.820312 C 479.9375 503.210938 476.050781 524.171875 466.953125 544.058594 C 461.484375 556.011719 454.253906 566.683594 444.257812 575.378906 C 436.257812 582.308594 427.316406 587.316406 416.566406 588.636719 C 412.203125 589.191406 407.851562 589.101562 403.515625 588.359375 C 399.175781 587.621094 395.042969 586.269531 391.109375 584.300781 C 380.65625 579.1875 372.539062 571.390625 365.71875 562.152344 C 356.761719 550.007812 350.90625 536.382812 347.253906 521.828125 C 339.03125 489.09375 340.382812 456.761719 351.964844 424.984375 C 356.609375 412.222656 363.214844 400.550781 372.394531 390.4375 C 378.113281 383.992188 384.804688 378.800781 392.472656 374.871094 C 404.972656 368.589844 417.445312 368.625 429.890625 374.984375 C 439.773438 380.03125 447.75 387.300781 454.425781 396.042969 C 464.90625 409.8125 471.390625 425.398438 475.410156 442.117188 C 478.488281 455.027344 480.179688 468.128906 479.863281 478.820312 Z M 479.863281 478.820312 " fill-opacity="1" fill-rule="nonzero"/><path fill="#ffd2c3" d="M 562.914062 484.777344 C 563.59375 460.140625 567.757812 436.339844 577.582031 413.671875 C 581.160156 405.125 585.792969 397.195312 591.488281 389.878906 C 595.703125 384.398438 600.710938 379.765625 606.503906 375.980469 C 621.992188 366.179688 638.945312 368.363281 651.449219 381.8125 C 656.953125 387.8125 661.078125 394.644531 663.824219 402.308594 C 666.96875 410.734375 669.398438 419.363281 671.113281 428.191406 C 672.828125 437.023438 673.808594 445.933594 674.046875 454.921875 C 674.621094 478.007812 671.875 500.652344 664.238281 522.550781 C 660.722656 532.628906 656.324219 542.316406 650.136719 551.042969 C 646.867188 555.675781 643.253906 560.023438 639.292969 564.082031 C 636.261719 567.085938 632.898438 569.660156 629.207031 571.804688 C 615.796875 579.738281 601.445312 578.085938 590.015625 567.558594 C 584.808594 562.632812 580.578125 556.972656 577.332031 550.582031 C 570.738281 538.109375 566.980469 524.722656 565.109375 510.839844 C 563.953125 502.230469 563.621094 493.472656 562.914062 484.777344 Z M 562.914062 484.777344 " fill-opacity="1" fill-rule="nonzero"/><path fill="#ffd2c3" d="M 259.082031 485.117188 C 258.816406 502.28125 256.691406 519.054688 251.226562 535.378906 C 248.816406 542.84375 245.503906 549.882812 241.289062 556.496094 C 238.054688 561.480469 234.332031 566.066406 229.570312 569.675781 C 219.007812 577.6875 207.628906 579.042969 195.617188 573.328125 C 188.222656 569.820312 182.285156 564.429688 177.132812 558.160156 C 170.882812 550.375 165.789062 541.894531 161.859375 532.71875 C 154.988281 517.25 151.191406 500.976562 149.3125 484.226562 C 147.75 470.34375 147.179688 456.445312 148.867188 442.511719 C 150.527344 428.867188 153.328125 415.496094 158.148438 402.601562 C 160.292969 396.527344 163.351562 390.957031 167.324219 385.882812 C 169.765625 382.691406 172.535156 379.8125 175.625 377.242188 C 185.28125 369.699219 196.046875 367.921875 207.675781 372.105469 C 213.730469 374.394531 219.0625 377.8125 223.671875 382.363281 C 231.15625 389.425781 236.761719 397.851562 241.351562 407 C 245.394531 415.167969 248.71875 423.621094 251.316406 432.355469 C 253.917969 441.089844 255.757812 449.984375 256.839844 459.03125 C 257.957031 467.675781 258.363281 476.414062 259.082031 485.117188 Z M 259.082031 485.117188 " fill-opacity="1" fill-rule="nonzero"/><path fill="#d9a604" d="M 415.71875 498.328125 C 415.410156 504.242188 415.050781 510.027344 415.953125 517.078125 C 417.929688 514.308594 419.238281 512.460938 420.570312 510.628906 C 423.785156 506.1875 427.507812 502.265625 432.304688 499.492188 C 433.820312 498.539062 435.445312 497.863281 437.1875 497.460938 C 438.929688 497.0625 440.691406 496.957031 442.46875 497.152344 C 447.183594 497.75 450.121094 501.015625 450.132812 505.757812 C 450.136719 507.664062 449.835938 509.523438 449.226562 511.332031 C 448.617188 513.136719 447.730469 514.800781 446.574219 516.316406 C 443.164062 520.800781 439.640625 525.363281 435.40625 529.015625 C 430.433594 533.304688 424.660156 536.667969 419.207031 540.378906 C 417.863281 541.292969 416.378906 542.007812 414.453125 543.09375 C 414.453125 546.757812 414.453125 550.507812 414.453125 554.253906 C 414.453125 555.664062 414.640625 557.273438 414.074219 558.425781 C 413.511719 559.578125 412.136719 560.777344 411.09375 560.792969 C 410.054688 560.808594 408.550781 559.609375 407.988281 558.53125 C 407.421875 557.453125 407.535156 555.792969 407.519531 554.390625 C 407.464844 550.621094 407.519531 546.851562 407.519531 543.042969 L 402.28125 540.117188 C 393.175781 534.949219 384.851562 528.804688 378.28125 520.507812 C 375.507812 517.203125 373.535156 513.472656 372.367188 509.316406 C 370.351562 501.460938 374.984375 496.074219 383.019531 497.25 C 385.816406 497.773438 388.425781 498.78125 390.851562 500.269531 C 395.21875 502.765625 398.515625 506.511719 401.414062 510.578125 C 402.765625 512.476562 404.09375 514.394531 406.09375 517.226562 C 407.390625 510.296875 406.742188 504.40625 406.523438 498.308594 C 398.722656 494.996094 392.1875 490.011719 386.015625 484.5 C 381.746094 480.730469 377.925781 476.476562 375.347656 471.371094 C 374.050781 468.847656 373.273438 466.171875 373.023438 463.347656 C 372.675781 458.699219 375.949219 455.34375 380.621094 454.765625 C 384.625 454.273438 388.058594 455.730469 391.183594 458.039062 C 395.933594 461.671875 399.804688 466.082031 402.789062 471.265625 C 403.835938 473 404.953125 474.6875 406.765625 477.53125 C 407.453125 473.460938 407.675781 469.363281 407.429688 465.238281 C 407.367188 463.730469 406.191406 462.222656 405.269531 460.917969 C 401.214844 455.042969 398.128906 448.699219 396.011719 441.882812 C 394.132812 435.894531 393.507812 429.816406 396.011719 423.859375 C 397.085938 421.230469 398.523438 418.816406 400.328125 416.621094 C 406.234375 409.734375 416.089844 409.894531 421.960938 416.863281 C 427.832031 423.832031 428.628906 431.785156 426.449219 440.238281 C 424.761719 447.21875 421.808594 453.609375 417.585938 459.417969 C 416.929688 460.246094 416.371094 461.128906 415.902344 462.074219 C 415.4375 463.019531 415.074219 464.003906 414.8125 465.023438 C 414.554688 466.046875 414.402344 467.082031 414.363281 468.136719 C 414.320312 469.1875 414.386719 470.234375 414.566406 471.273438 C 414.785156 472.839844 414.859375 474.433594 415.117188 477.359375 C 416.179688 476.035156 417.171875 474.660156 418.089844 473.234375 C 420.859375 468.226562 424.125 463.574219 428.539062 459.945312 C 430.894531 457.957031 433.503906 456.402344 436.371094 455.277344 C 440.09375 453.914062 443.917969 454.386719 446.875 457.433594 C 449.71875 460.328125 449.773438 463.957031 448.382812 467.351562 C 447.082031 470.652344 445.363281 473.71875 443.222656 476.550781 C 436.109375 485.863281 426.878906 492.71875 415.71875 498.328125 Z M 415.71875 498.328125 " fill-opacity="1" fill-rule="nonzero"/><path fill="#d9a604" d="M 200.152344 491.113281 C 190.214844 488.15625 182.617188 482.28125 175.78125 475.277344 C 173.761719 473.265625 172.011719 471.046875 170.53125 468.613281 C 169.050781 466.179688 167.882812 463.605469 167.03125 460.886719 C 165.785156 456.832031 165.476562 452.902344 169.027344 449.792969 C 171.972656 447.214844 176.355469 447.480469 180.882812 450.421875 C 185.53125 453.4375 188.894531 457.714844 191.898438 462.28125 C 193.40625 464.597656 194.855469 466.972656 197.179688 470.578125 C 197.285156 467.855469 197.453125 466.613281 197.359375 465.390625 C 196.789062 458.050781 195.332031 451.128906 191.070312 444.734375 C 187.96875 440.097656 185.960938 434.652344 183.984375 429.378906 C 183.121094 427.035156 182.605469 424.613281 182.445312 422.117188 C 182.28125 419.621094 182.480469 417.152344 183.03125 414.714844 C 184.472656 408.054688 189.558594 402.972656 195.226562 402.550781 C 200.773438 402.132812 206.242188 405.777344 208.851562 412.042969 C 211.804688 419.109375 211.296875 426.46875 209.378906 433.605469 C 208.039062 438.582031 205.894531 443.371094 203.765625 448.089844 C 202.257812 451.4375 201.238281 454.582031 202.550781 458.257812 C 203.535156 461.023438 202.871094 464.289062 205.15625 467.402344 C 206.175781 464.898438 206.816406 462.878906 207.789062 461.039062 C 209.554688 457.714844 211.238281 454.25 213.484375 451.304688 C 215.414062 448.902344 217.652344 446.835938 220.199219 445.105469 C 223.21875 442.917969 226.75 442.1875 230.160156 444.351562 C 233.359375 446.378906 233.722656 449.734375 233.496094 453.144531 C 233.277344 456.117188 232.605469 458.984375 231.480469 461.746094 C 230.355469 464.503906 228.832031 467.023438 226.910156 469.304688 C 222.734375 474.410156 218.101562 479.152344 213.582031 483.972656 C 211.652344 486.023438 209.507812 487.871094 207.164062 490.09375 C 208.226562 499.097656 208.511719 508.195312 210.535156 518.578125 C 212.042969 515.207031 212.796875 513.003906 213.945312 511.035156 C 216.054688 507.09375 218.371094 503.277344 220.894531 499.589844 C 222.042969 498.0625 223.421875 496.785156 225.03125 495.757812 C 226.640625 494.730469 228.382812 494.019531 230.25 493.625 C 235.472656 492.378906 239.75 495.507812 240.15625 500.886719 C 240.550781 506.035156 238.824219 510.644531 236.136719 514.941406 C 231.300781 522.71875 224.613281 528.628906 217.070312 533.660156 C 215.515625 534.695312 213.902344 535.628906 212.113281 536.730469 C 212.308594 538.726562 212.535156 540.566406 212.632812 542.414062 C 212.769531 543.589844 212.695312 544.746094 212.40625 545.890625 C 212.148438 546.644531 211.109375 547.71875 210.527344 547.65625 C 209.976562 547.597656 209.460938 547.429688 208.980469 547.148438 C 208.5 546.871094 208.097656 546.507812 207.773438 546.058594 C 207.140625 544.875 207.199219 543.328125 206.914062 541.949219 C 206.671875 540.824219 206.355469 539.722656 206.03125 538.433594 C 204.742188 538.09375 203.644531 537.71875 202.515625 537.515625 C 191.195312 535.410156 182.679688 528.933594 175.964844 519.996094 C 173.871094 517.109375 172.351562 513.949219 171.398438 510.515625 C 169.421875 503.609375 174.265625 498.125 181.367188 499.0625 C 183.742188 499.335938 185.929688 500.128906 187.929688 501.445312 C 191.515625 504.109375 194.941406 506.96875 198.207031 510.019531 C 199.714844 511.367188 200.9375 513.035156 203.269531 514.128906 C 202.226562 506.480469 201.195312 498.84375 200.152344 491.113281 Z M 200.152344 491.113281 " fill-opacity="1" fill-rule="nonzero"/><path fill="#d9a604" d="M 616.054688 538.320312 C 615.535156 540.9375 615.140625 543.246094 614.546875 545.507812 C 614.175781 547.015625 613.15625 548.09375 611.527344 547.726562 C 611.171875 547.652344 610.839844 547.515625 610.535156 547.3125 C 610.230469 547.113281 609.972656 546.867188 609.761719 546.570312 C 609.554688 546.269531 609.40625 545.945312 609.320312 545.589844 C 609.230469 545.238281 609.214844 544.878906 609.265625 544.519531 C 609.421875 541.972656 609.761719 539.421875 610.019531 537.203125 C 605.40625 533.8125 601.152344 530.871094 597.109375 527.664062 C 592.472656 523.917969 588.648438 519.476562 585.632812 514.339844 C 583.285156 510.433594 581.738281 506.242188 581.859375 501.601562 C 582.046875 495.570312 586.695312 492.144531 592.503906 493.804688 C 594.242188 494.25 595.859375 494.96875 597.351562 495.960938 C 598.847656 496.953125 600.136719 498.160156 601.21875 499.589844 C 603.648438 503.0625 605.871094 506.660156 607.890625 510.378906 C 609.03125 512.402344 609.808594 514.632812 611.105469 517.550781 C 611.8125 515.863281 612.46875 514.929688 612.613281 513.941406 C 613.367188 507.371094 613.890625 500.78125 614.671875 494.21875 C 615.050781 491.074219 613.917969 488.941406 611.65625 486.835938 C 606.871094 482.3125 602.269531 477.523438 597.808594 472.644531 C 594.292969 468.789062 591.351562 464.425781 589.992188 459.320312 C 589.140625 456.363281 588.761719 453.347656 588.863281 450.269531 C 589.164062 444.789062 593.660156 441.867188 598.902344 443.707031 C 601.328125 444.675781 603.507812 446.027344 605.445312 447.773438 C 609.488281 451.199219 612.078125 455.722656 614.191406 460.519531 C 615.105469 462.59375 615.957031 464.695312 617.480469 468.308594 C 619.261719 460.011719 621.886719 453.707031 617.78125 446.628906 C 615.402344 442.632812 613.664062 438.378906 612.566406 433.859375 C 611.472656 429.339844 611.066406 424.761719 611.355469 420.121094 C 611.421875 418.097656 611.765625 416.125 612.394531 414.203125 C 613.019531 412.28125 613.898438 410.480469 615.035156 408.808594 C 621.34375 399.925781 632.390625 400.609375 637.4375 410.269531 C 638.539062 412.382812 639.265625 414.617188 639.613281 416.972656 C 639.960938 419.332031 639.910156 421.679688 639.460938 424.019531 C 638.109375 431.558594 635.484375 438.710938 631.054688 444.886719 C 625.773438 452.246094 625.019531 460.511719 624.40625 470.246094 C 625.917969 468.464844 626.835938 467.644531 627.425781 466.632812 C 630.316406 461.734375 633.5 457.070312 637.6875 453.152344 C 640.140625 450.851562 642.847656 448.996094 646.183594 448.269531 C 651.410156 447.140625 655.710938 450.4375 655.742188 455.8125 C 655.6875 457.9375 655.3125 460.007812 654.617188 462.019531 C 653.027344 467.070312 650.054688 471.300781 646.429688 475.117188 C 639.210938 482.726562 632.644531 487.101562 622.160156 491.171875 C 620.554688 499.308594 619.445312 507.511719 618.832031 515.78125 C 621.34375 512.882812 622.6875 510.953125 624.40625 509.4375 C 627.699219 506.417969 631.175781 503.625 634.835938 501.058594 C 636.886719 499.820312 639.109375 499.140625 641.503906 499.023438 C 647.949219 498.542969 652.503906 503.691406 650.914062 509.914062 C 650.035156 513.371094 648.5625 516.554688 646.492188 519.460938 C 639.753906 528.714844 631.101562 535.363281 619.519531 537.515625 C 618.597656 537.6875 617.691406 537.9375 616.054688 538.320312 Z M 616.054688 538.320312 " fill-opacity="1" fill-rule="nonzero"/></svg>