<svg xmlns="http://www.w3.org/2000/svg" xmlns:xlink="http://www.w3.org/1999/xlink" width="1080" zoomAndPan="magnify" viewBox="0 0 810 809.999993" height="1080" preserveAspectRatio="xMidYMid meet" version="1.0"><path fill="#e0c5aa" d="M 409.011719 318.96875 C 409.703125 284.039062 416.605469 220.285156 459.394531 160.828125 C 482.855469 128.226562 518.527344 78.652344 572.839844 80.128906 C 616.871094 81.324219 656.683594 115.625 671.011719 154.285156 C 696.402344 222.789062 636.042969 289.472656 614.289062 313.503906 C 607.375 321.140625 519.167969 416.476562 454.304688 384.53125 C 425.398438 370.289062 413.691406 336.96875 409.011719 318.96875 Z M 384.683594 317.496094 C 376.960938 283.421875 357.347656 222.378906 303.445312 172.75 C 273.890625 145.546875 228.953125 104.179688 176.054688 116.574219 C 133.167969 126.617188 101.09375 168.238281 94.855469 208.996094 C 83.800781 281.210938 156.363281 334.355469 182.519531 353.511719 C 190.832031 359.597656 296.4375 435.199219 353.539062 390.832031 C 378.988281 371.066406 383.726562 336.070312 384.683594 317.496094 Z M 430.820312 476.8125 C 431.511719 511.742188 438.414062 575.496094 481.203125 634.953125 C 504.664062 667.554688 540.335938 717.128906 594.648438 715.652344 C 638.679688 714.457031 678.492188 680.15625 692.820312 641.492188 C 718.214844 572.992188 657.851562 506.308594 636.097656 482.273438 C 629.1875 474.640625 540.976562 379.304688 476.113281 411.25 C 447.214844 425.484375 435.511719 458.808594 430.828125 476.8125 Z M 362.609375 410.691406 C 297.742188 378.746094 209.554688 474.078125 202.625 481.71875 C 180.871094 505.753906 120.515625 572.433594 145.902344 640.9375 C 160.222656 679.597656 200.042969 713.898438 244.074219 715.09375 C 298.386719 716.570312 334.058594 666.996094 357.519531 634.394531 C 400.308594 574.9375 407.207031 511.1875 407.902344 476.253906 C 403.226562 458.253906 391.523438 424.929688 362.617188 410.691406 Z M 362.609375 410.691406 " fill-opacity="0.75" fill-rule="nonzero"/><path fill="#e0c5aa" d="M 494.566406 329.882812 C 522.710938 309.175781 577.511719 275.855469 650.746094 273.617188 C 690.898438 272.390625 751.953125 270.527344 783.832031 314.511719 C 809.679688 350.167969 806.679688 402.632812 784.714844 437.523438 C 745.792969 499.355469 656.136719 492.046875 623.820312 489.414062 C 613.554688 488.578125 484.207031 476.613281 470.09375 405.710938 C 463.800781 374.113281 483.128906 344.550781 494.566406 329.882812 Z M 422.042969 348.125 C 491.785156 329.035156 494.59375 199.210938 494.714844 188.910156 C 495.0625 156.496094 496.027344 66.570312 431.59375 32.117188 C 395.226562 12.671875 342.675781 13.378906 308.917969 41.660156 C 267.28125 76.554688 273.449219 137.3125 277.503906 177.269531 C 284.902344 250.140625 322.011719 302.441406 344.644531 329.050781 C 360.101562 339.4375 390.960938 356.628906 422.039062 348.128906 Z M 315.828125 365.398438 C 288.199219 344.011719 234.222656 309.371094 161.070312 305.347656 C 120.957031 303.144531 59.964844 299.792969 27.027344 342.988281 C 0.320312 378.007812 2.039062 430.523438 23.152344 465.941406 C 60.554688 528.703125 150.363281 523.578125 182.730469 521.730469 C 193.015625 521.144531 322.617188 512.332031 338.453125 441.796875 C 345.503906 410.367188 326.902344 380.34375 315.828125 365.402344 Z M 396.582031 456.984375 C 325.484375 470.175781 311.847656 599.3125 310.867188 609.574219 C 307.8125 641.847656 299.335938 731.378906 360.671875 771.09375 C 395.285156 793.503906 447.710938 797.179688 483.714844 771.8125 C 528.117188 740.515625 527.046875 679.457031 526.351562 639.296875 C 525.078125 566.0625 492.453125 510.84375 472.109375 482.441406 C 457.582031 470.816406 428.265625 451.109375 396.582031 456.988281 Z M 396.582031 456.984375 " fill-opacity="0.75" fill-rule="nonzero"/><path fill="#a07e5a" d="M 422.304688 322.226562 C 414.566406 319.796875 378.292969 309.28125 348.128906 328.769531 C 332.871094 338.632812 324.121094 352.964844 317.582031 363.667969 C 310.425781 375.382812 303.554688 386.640625 302.304688 402.925781 C 300.714844 423.550781 309.179688 439.117188 313.214844 446.550781 C 317.152344 453.804688 327.734375 472.667969 350.300781 483.625 C 369.34375 492.875 386.574219 491.476562 402.660156 490.171875 C 414.753906 489.1875 434.378906 487.59375 455.019531 474.902344 C 465.347656 468.539062 486.714844 455.410156 494.289062 429.089844 C 503.816406 396.003906 484.152344 367.757812 481.199219 363.65625 " fill-opacity="1" fill-rule="nonzero"/><path fill="#e0c5aa" d="M 364.777344 451.855469 C 365 452.265625 366.484375 455.101562 365.765625 458.417969 C 365.566406 459.335938 365.207031 460.191406 364.699219 460.984375 C 364.1875 461.773438 363.554688 462.449219 362.800781 463.011719 C 361.644531 463.949219 360.328125 464.457031 358.84375 464.542969 C 357.632812 464.671875 356.328125 464.8125 354.890625 463.886719 C 353.183594 462.785156 352.386719 460.898438 352.089844 460.167969 C 351.472656 458.773438 351.195312 457.316406 351.265625 455.792969 C 351.359375 454.160156 351.878906 453.027344 352.417969 451.855469 C 352.910156 450.785156 353.570312 449.34375 354.722656 448.355469 C 357.003906 446.398438 359.742188 447.457031 360.324219 447.699219 M 397.777344 450.910156 C 397.191406 450.664062 394.453125 449.613281 392.175781 451.566406 C 391.023438 452.554688 390.363281 453.992188 389.871094 455.066406 C 389.328125 456.238281 388.808594 457.367188 388.71875 459.003906 C 388.648438 460.527344 388.921875 461.984375 389.542969 463.378906 C 389.839844 464.105469 390.640625 466 392.339844 467.097656 C 393.78125 468.027344 395.082031 467.882812 396.296875 467.753906 C 397.78125 467.667969 399.097656 467.15625 400.253906 466.222656 C 401.007812 465.660156 401.640625 464.984375 402.152344 464.191406 C 402.660156 463.402344 403.015625 462.546875 403.21875 461.628906 C 403.9375 458.308594 402.449219 455.476562 402.226562 455.066406 M 382.816406 389.175781 C 382.234375 388.929688 379.496094 387.878906 377.21875 389.832031 C 376.066406 390.820312 375.402344 392.257812 374.910156 393.328125 C 374.371094 394.503906 373.851562 395.632812 373.757812 397.269531 C 373.691406 398.789062 373.964844 400.25 374.582031 401.640625 C 374.882812 402.371094 375.679688 404.265625 377.382812 405.359375 C 378.820312 406.289062 380.121094 406.148438 381.339844 406.015625 C 382.820312 405.933594 384.140625 405.421875 385.292969 404.488281 C 386.050781 403.925781 386.683594 403.25 387.191406 402.457031 C 387.703125 401.667969 388.058594 400.8125 388.257812 399.894531 C 388.976562 396.574219 387.492188 393.738281 387.269531 393.328125 M 368.003906 350.28125 C 367.421875 350.035156 364.683594 348.984375 362.40625 350.9375 C 361.253906 351.925781 360.589844 353.363281 360.097656 354.4375 C 359.558594 355.609375 359.039062 356.738281 358.945312 358.375 C 358.878906 359.898438 359.152344 361.355469 359.769531 362.75 C 360.070312 363.476562 360.867188 365.371094 362.570312 366.46875 C 364.007812 367.394531 365.3125 367.253906 366.527344 367.121094 C 368.007812 367.039062 369.328125 366.527344 370.480469 365.59375 C 371.238281 365.03125 371.871094 364.355469 372.378906 363.5625 C 372.890625 362.773438 373.246094 361.917969 373.445312 361 C 374.167969 357.679688 372.679688 354.847656 372.457031 354.4375 M 410.757812 417.863281 C 410.171875 417.617188 407.433594 416.566406 405.15625 418.519531 C 404.003906 419.507812 403.34375 420.945312 402.847656 422.019531 C 402.308594 423.191406 401.789062 424.320312 401.695312 425.957031 C 401.628906 427.480469 401.902344 428.9375 402.519531 430.332031 C 402.820312 431.058594 403.617188 432.953125 405.320312 434.050781 C 406.757812 434.980469 408.0625 434.835938 409.277344 434.707031 C 410.761719 434.621094 412.078125 434.113281 413.230469 433.175781 C 413.988281 432.613281 414.621094 431.9375 415.128906 431.144531 C 415.640625 430.355469 415.996094 429.5 416.199219 428.582031 C 416.917969 425.261719 415.429688 422.429688 415.207031 422.019531 M 432.574219 436.785156 C 431.988281 436.539062 429.253906 435.488281 426.976562 437.441406 C 425.824219 438.429688 425.160156 439.867188 424.667969 440.941406 C 424.128906 442.113281 423.609375 443.242188 423.515625 444.878906 C 423.449219 446.402344 423.722656 447.859375 424.339844 449.253906 C 424.640625 449.980469 425.4375 451.875 427.140625 452.972656 C 428.578125 453.902344 429.878906 453.757812 431.097656 453.628906 C 432.578125 453.542969 433.898438 453.035156 435.050781 452.097656 C 435.804688 451.535156 436.4375 450.859375 436.949219 450.070312 C 437.460938 449.277344 437.816406 448.421875 438.015625 447.503906 C 438.734375 444.183594 437.25 441.351562 437.027344 440.941406 M 464.902344 385.167969 C 464.316406 384.925781 461.578125 383.871094 459.300781 385.824219 C 458.148438 386.8125 457.488281 388.253906 456.996094 389.324219 C 456.453125 390.5 455.933594 391.628906 455.84375 393.261719 C 455.773438 394.785156 456.046875 396.242188 456.667969 397.636719 C 456.964844 398.367188 457.765625 400.257812 459.464844 401.355469 C 460.90625 402.285156 462.207031 402.140625 463.421875 402.011719 C 464.90625 401.925781 466.222656 401.417969 467.378906 400.480469 C 468.132812 399.917969 468.765625 399.242188 469.277344 398.453125 C 469.785156 397.660156 470.140625 396.808594 470.34375 395.886719 C 471.0625 392.570312 469.574219 389.734375 469.351562 389.324219 M 431.089844 362.972656 C 430.503906 362.730469 427.765625 361.675781 425.488281 363.628906 C 424.335938 364.617188 423.675781 366.058594 423.183594 367.128906 C 422.640625 368.300781 422.121094 369.433594 422.03125 371.066406 C 421.960938 372.589844 422.234375 374.046875 422.855469 375.441406 C 423.152344 376.171875 423.953125 378.0625 425.65625 379.160156 C 427.09375 380.089844 428.394531 379.945312 429.609375 379.816406 C 431.09375 379.730469 432.410156 379.222656 433.566406 378.285156 C 434.320312 377.722656 434.953125 377.046875 435.464844 376.257812 C 435.972656 375.464844 436.328125 374.609375 436.53125 373.691406 C 437.25 370.375 435.765625 367.539062 435.539062 367.128906 M 439.898438 400.417969 C 439.316406 400.171875 436.578125 399.121094 434.300781 401.074219 C 433.148438 402.0625 432.484375 403.5 431.992188 404.574219 C 431.453125 405.746094 430.933594 406.875 430.839844 408.511719 C 430.773438 410.035156 431.046875 411.492188 431.664062 412.886719 C 431.964844 413.613281 432.761719 415.507812 434.464844 416.605469 C 435.902344 417.53125 437.203125 417.390625 438.421875 417.257812 C 439.902344 417.175781 441.222656 416.664062 442.375 415.730469 C 443.132812 415.167969 443.765625 414.492188 444.273438 413.699219 C 444.785156 412.910156 445.140625 412.054688 445.339844 411.136719 C 446.0625 407.816406 444.574219 404.984375 444.351562 404.574219 M 460.261719 420.796875 C 459.675781 420.550781 456.941406 419.5 454.660156 421.453125 C 453.507812 422.441406 452.847656 423.878906 452.355469 424.953125 C 451.8125 426.125 451.292969 427.253906 451.203125 428.890625 C 451.132812 430.414062 451.410156 431.871094 452.027344 433.265625 C 452.324219 433.992188 453.125 435.886719 454.828125 436.984375 C 456.265625 437.910156 457.566406 437.769531 458.78125 437.636719 C 460.265625 437.554688 461.585938 437.042969 462.738281 436.109375 C 463.492188 435.546875 464.125 434.871094 464.636719 434.078125 C 465.148438 433.289062 465.503906 432.433594 465.703125 431.515625 C 466.421875 428.195312 464.9375 425.363281 464.714844 424.953125 M 410.734375 342.195312 C 410.148438 341.949219 407.410156 340.894531 405.132812 342.847656 C 403.980469 343.839844 403.320312 345.277344 402.828125 346.347656 C 402.285156 347.523438 401.765625 348.652344 401.675781 350.289062 C 401.605469 351.808594 401.878906 353.269531 402.5 354.660156 C 402.796875 355.390625 403.597656 357.28125 405.296875 358.378906 C 406.738281 359.308594 408.039062 359.167969 409.253906 359.035156 C 410.738281 358.953125 412.054688 358.441406 413.210938 357.503906 C 413.964844 356.945312 414.597656 356.265625 415.109375 355.476562 C 415.617188 354.6875 415.972656 353.832031 416.175781 352.910156 C 416.894531 349.59375 415.40625 346.757812 415.183594 346.347656 M 410.730469 389.535156 C 410.144531 389.289062 407.410156 388.238281 405.128906 390.191406 C 403.976562 391.179688 403.316406 392.617188 402.824219 393.6875 C 402.28125 394.863281 401.761719 395.992188 401.671875 397.628906 C 401.601562 399.152344 401.878906 400.609375 402.496094 402 C 402.792969 402.730469 403.59375 404.625 405.296875 405.722656 C 406.734375 406.648438 408.035156 406.507812 409.25 406.375 C 410.734375 406.292969 412.050781 405.78125 413.207031 404.847656 C 413.960938 404.285156 414.59375 403.609375 415.105469 402.816406 C 415.613281 402.027344 415.972656 401.171875 416.171875 400.253906 C 416.890625 396.933594 415.40625 394.097656 415.183594 393.6875 M 391.679688 359.011719 C 391.09375 358.769531 388.359375 357.714844 386.078125 359.667969 C 384.925781 360.65625 384.265625 362.097656 383.773438 363.167969 C 383.230469 364.34375 382.710938 365.472656 382.621094 367.105469 C 382.550781 368.628906 382.828125 370.085938 383.445312 371.480469 C 383.742188 372.210938 384.542969 374.101562 386.246094 375.199219 C 387.683594 376.128906 388.984375 375.984375 390.199219 375.855469 C 391.683594 375.769531 393 375.261719 394.15625 374.324219 C 394.910156 373.761719 395.542969 373.085938 396.054688 372.296875 C 396.5625 371.503906 396.921875 370.652344 397.121094 369.730469 C 397.839844 366.414062 396.355469 363.578125 396.132812 363.167969 M 336.695312 398.257812 C 336.109375 398.011719 333.371094 396.960938 331.09375 398.914062 C 329.941406 399.902344 329.28125 401.339844 328.789062 402.414062 C 328.246094 403.585938 327.726562 404.714844 327.636719 406.351562 C 327.566406 407.875 327.839844 409.332031 328.460938 410.726562 C 328.757812 411.453125 329.558594 413.347656 331.257812 414.445312 C 332.699219 415.371094 334 415.230469 335.214844 415.097656 C 336.699219 415.015625 338.015625 414.503906 339.171875 413.570312 C 339.925781 413.007812 340.558594 412.332031 341.070312 411.539062 C 341.578125 410.75 341.933594 409.894531 342.136719 408.976562 C 342.855469 405.65625 341.367188 402.824219 341.144531 402.414062 M 354.878906 376.445312 C 354.292969 376.199219 351.558594 375.144531 349.28125 377.097656 C 348.128906 378.089844 347.464844 379.527344 346.972656 380.597656 C 346.433594 381.773438 345.914062 382.902344 345.820312 384.535156 C 345.75 386.058594 346.027344 387.515625 346.644531 388.910156 C 346.945312 389.640625 347.742188 391.53125 349.445312 392.628906 C 350.882812 393.558594 352.183594 393.414062 353.398438 393.285156 C 354.882812 393.203125 356.203125 392.691406 357.355469 391.753906 C 358.109375 391.191406 358.742188 390.515625 359.253906 389.726562 C 359.765625 388.9375 360.121094 388.082031 360.320312 387.160156 C 361.039062 383.84375 359.554688 381.007812 359.332031 380.597656 M 360.644531 405.054688 C 360.058594 404.8125 357.324219 403.757812 355.046875 405.710938 C 353.894531 406.699219 353.230469 408.136719 352.738281 409.210938 C 352.199219 410.382812 351.679688 411.515625 351.585938 413.148438 C 351.519531 414.671875 351.792969 416.128906 352.410156 417.523438 C 352.710938 418.25 353.507812 420.144531 355.210938 421.242188 C 356.648438 422.171875 357.949219 422.027344 359.167969 421.898438 C 360.648438 421.8125 361.96875 421.304688 363.121094 420.367188 C 363.875 419.804688 364.507812 419.128906 365.019531 418.339844 C 365.53125 417.546875 365.886719 416.691406 366.085938 415.773438 C 366.804688 412.457031 365.320312 409.621094 365.097656 409.210938 M 384.339844 419.335938 C 383.753906 419.089844 381.015625 418.039062 378.738281 419.992188 C 377.585938 420.980469 376.925781 422.417969 376.433594 423.492188 C 375.890625 424.664062 375.371094 425.792969 375.28125 427.429688 C 375.210938 428.953125 375.484375 430.410156 376.105469 431.804688 C 376.402344 432.53125 377.203125 434.425781 378.902344 435.523438 C 380.34375 436.453125 381.644531 436.308594 382.859375 436.179688 C 384.34375 436.09375 385.660156 435.585938 386.816406 434.648438 C 387.570312 434.085938 388.203125 433.410156 388.714844 432.621094 C 389.222656 431.828125 389.578125 430.972656 389.78125 430.054688 C 390.5 426.734375 389.011719 423.902344 388.789062 423.492188 M 341.746094 428.054688 C 341.160156 427.8125 338.421875 426.757812 336.144531 428.710938 C 334.992188 429.703125 334.332031 431.140625 333.835938 432.210938 C 333.296875 433.386719 332.777344 434.515625 332.683594 436.148438 C 332.617188 437.671875 332.890625 439.128906 333.507812 440.523438 C 333.808594 441.253906 334.605469 443.144531 336.308594 444.242188 C 337.746094 445.171875 339.050781 445.027344 340.265625 444.898438 C 341.75 444.8125 343.066406 444.304688 344.21875 443.367188 C 344.976562 442.804688 345.609375 442.128906 346.117188 441.339844 C 346.628906 440.546875 346.984375 439.695312 347.1875 438.773438 C 347.90625 435.457031 346.417969 432.621094 346.195312 432.210938 " fill-opacity="0.75" fill-rule="nonzero"/></svg>