<svg xmlns="http://www.w3.org/2000/svg" xmlns:xlink="http://www.w3.org/1999/xlink" width="1080" zoomAndPan="magnify" viewBox="0 0 810 809.999993" height="1080" preserveAspectRatio="xMidYMid meet" version="1.0"><path fill="#36365c" d="M 763.59375 80.972656 C 762.203125 81.136719 760.847656 81.3125 759.457031 81.492188 C 724.167969 86.050781 689.203125 93 654.820312 102.167969 C 653.640625 98.917969 652.574219 95.652344 651.636719 92.355469 C 652.023438 92.257812 652.410156 92.144531 652.800781 92.046875 C 688.023438 82.703125 723.84375 75.71875 760.007812 71.144531 C 760.492188 72.40625 760.960938 73.632812 761.429688 74.910156 C 762.140625 76.933594 762.898438 78.9375 763.59375 80.972656 Z M 763.59375 80.972656 " fill-opacity="1" fill-rule="nonzero"/><path fill="#bebeca" d="M 783 675.03125 C 778.136719 691.503906 771.671875 708.707031 757.90625 718.988281 C 744.140625 729.253906 721.082031 728.558594 712.824219 713.507812 C 704.488281 698.261719 715.121094 680.171875 719.433594 663.328125 C 724.476562 643.6875 724.476562 608.636719 710.710938 593.246094 C 697.539062 578.472656 685.617188 583.546875 667.46875 584.257812 C 613.019531 586.425781 558.46875 585.617188 503.953125 588.332031 C 408.214844 593.039062 312.933594 599.679688 217.097656 603.058594 C 196.15625 603.804688 172.988281 605.453125 158.25 620.359375 C 148.394531 630.300781 144.175781 644.460938 142.09375 658.285156 C 140.007812 672.105469 139.703125 686.25 136 699.734375 C 132.316406 713.199219 124.53125 726.457031 111.863281 732.375 C 99.195312 738.289062 81.453125 734.023438 76.089844 721.121094 C 73.792969 715.609375 73.957031 709.433594 74.035156 703.484375 C 74.777344 647.695312 66.472656 591.824219 49.636719 538.652344 C 34.09375 489.558594 20.246094 441.609375 10.875 390.507812 C 4.023438 353.148438 0.015625 315.171875 0.160156 277.167969 C 0.210938 257.992188 1.375 238.804688 3.765625 219.742188 C 5.234375 208.152344 4.992188 196.191406 8.464844 184.90625 C 9.855469 180.394531 12.601562 172.132812 18.421875 171.988281 C 22.6875 171.890625 31.445312 180.152344 34.5625 183.160156 C 39.78125 188.203125 45.777344 192.324219 50.753906 197.726562 C 60.707031 208.574219 67.652344 223.347656 81.664062 229.734375 C 89.96875 233.515625 99.421875 233.46875 108.550781 233.339844 C 115.191406 233.257812 121.832031 233.160156 128.472656 233.03125 C 151.222656 232.613281 173.988281 232.03125 196.738281 231.285156 C 203.605469 231.058594 210.941406 230.640625 216.5 226.582031 C 219.976562 224.011719 222.367188 220.246094 224.660156 216.589844 C 230.574219 207.132812 264.167969 140.382812 278.953125 170.96875 C 299.570312 213.550781 279.515625 278.105469 317.632812 312.636719 C 328.28125 322.269531 342.46875 325.226562 357.15625 325.679688 C 360.792969 325.808594 364.460938 325.777344 368.09375 325.632812 C 372.621094 325.503906 377.128906 325.210938 381.523438 324.90625 C 393.867188 324.046875 406.226562 323.335938 418.574219 322.789062 C 422.09375 322.625 425.617188 322.480469 429.125 322.351562 C 443.199219 321.816406 457.269531 321.476562 471.359375 321.347656 C 475.011719 321.300781 478.648438 321.300781 482.300781 321.300781 C 519.898438 321.171875 557.515625 322.511719 595.019531 325.246094 C 598.800781 325.503906 602.5625 325.808594 606.3125 326.117188 C 619.691406 327.167969 633.054688 328.429688 646.398438 329.882812 C 649.46875 330.222656 652.554688 330.546875 655.644531 330.933594 C 659.375 331.371094 663.109375 331.839844 666.808594 332.375 C 695.117188 336.335938 723.132812 343.1875 746.0625 359.792969 C 788.042969 390.167969 802.859375 445.941406 806.285156 497.6875 C 810.03125 553.882812 798.980469 621.039062 783 675.03125 Z M 783 675.03125 " fill-opacity="1" fill-rule="nonzero"/><path fill="#bebeca" d="M 805.25 485.113281 L 805.25 485.207031 C 804.894531 494.472656 804.507812 503.816406 804.085938 513.242188 L 678.28125 465.226562 C 704.683594 431.699219 721.4375 391.1875 727.949219 349.007812 L 727.949219 348.976562 C 729.066406 341.929688 729.855469 334.816406 730.339844 327.703125 C 730.601562 324.273438 730.777344 320.847656 730.875 317.4375 C 731.230469 307.476562 730.972656 297.488281 730.132812 287.578125 C 729.871094 284.183594 729.53125 280.789062 729.097656 277.410156 C 727.546875 264.6875 725.023438 252.078125 721.503906 239.773438 C 720.582031 236.460938 719.578125 233.160156 718.464844 229.878906 C 715.589844 221.070312 712.132812 212.453125 708.203125 204.0625 C 706.847656 201.152344 705.425781 198.273438 703.953125 195.414062 C 702.355469 192.292969 700.707031 189.207031 699.011719 186.117188 C 692.371094 173.945312 685.113281 162.015625 678.167969 150.003906 C 676.390625 146.964844 674.660156 143.925781 672.996094 140.886719 C 665.96875 128.292969 659.535156 115.503906 654.800781 102.167969 C 653.621094 98.917969 652.554688 95.652344 651.621094 92.355469 C 650.066406 86.921875 648.808594 81.394531 647.933594 75.75 C 644.105469 50.984375 650.421875 21.367188 672.738281 9.988281 C 691.269531 0.546875 714.863281 7.5 730.195312 21.546875 C 744.527344 34.722656 753.042969 52.859375 759.976562 71.128906 C 760.460938 72.390625 760.929688 73.617188 761.398438 74.894531 C 762.140625 76.933594 762.882812 78.9375 763.578125 80.972656 C 767.277344 91.238281 770.6875 101.441406 773.789062 111.609375 C 774.824219 114.90625 775.824219 118.203125 776.777344 121.503906 C 781.609375 138.105469 785.777344 154.609375 789.316406 171.035156 C 790.042969 174.382812 790.738281 177.726562 791.402344 181.074219 C 793.972656 193.894531 796.183594 206.699219 798.089844 219.46875 C 798.578125 222.863281 799.078125 226.257812 799.511719 229.671875 C 801.46875 243.914062 802.988281 258.121094 804.199219 272.382812 C 804.488281 275.808594 804.765625 279.234375 805.023438 282.648438 C 806.023438 296.289062 806.753906 309.96875 807.238281 323.691406 C 807.367188 327.136719 807.464844 330.5625 807.578125 334.023438 C 808.886719 383.039062 807.382812 432.960938 805.25 485.113281 Z M 805.25 485.113281 " fill-opacity="1" fill-rule="nonzero"/><path fill="#bebeca" d="M 225.226562 578.050781 C 229.410156 621.730469 233.578125 665.398438 237.765625 709.078125 C 238.492188 716.628906 239.492188 724.824219 244.582031 730.175781 C 252.90625 738.921875 268.042969 734.765625 275.492188 725.195312 C 282.941406 715.625 284.914062 702.707031 287.0625 690.519531 C 294.996094 645.511719 308.988281 601.703125 328.476562 560.816406 Z M 225.226562 578.050781 " fill-opacity="1" fill-rule="nonzero"/><path fill="#bebeca" d="M 549.742188 564.859375 C 562.476562 579.214844 566.078125 601.023438 563.976562 620.972656 C 561.878906 640.921875 554.867188 659.769531 548.917969 678.765625 C 546.480469 686.589844 544.265625 695.53125 547.789062 702.839844 C 550.859375 709.191406 557.757812 712.488281 564.285156 712.34375 C 570.8125 712.183594 577.019531 709.109375 582.578125 705.328125 C 606.152344 689.289062 620.757812 660.257812 625.945312 630.25 C 631.113281 600.246094 627.785156 569.191406 621.808594 539.367188 Z M 549.742188 564.859375 " fill-opacity="1" fill-rule="nonzero"/><path fill="#efccb9" d="M 245.488281 353.050781 C 243.792969 361.246094 248.105469 369.863281 254.714844 374.988281 C 262.9375 381.355469 274.960938 382.746094 284.023438 377.671875 C 293.105469 372.59375 298.246094 360.988281 295.140625 351.0625 C 288.453125 329.707031 250.09375 330.742188 245.488281 353.050781 Z M 245.488281 353.050781 " fill-opacity="1" fill-rule="nonzero"/><path fill="#efccb9" d="M 58.507812 375.601562 C 56.8125 383.796875 61.125 392.414062 67.734375 397.539062 C 75.957031 403.910156 87.980469 405.300781 97.0625 400.222656 C 106.140625 395.148438 111.28125 383.539062 108.179688 373.613281 C 101.472656 352.257812 63.113281 353.277344 58.507812 375.601562 Z M 58.507812 375.601562 " fill-opacity="1" fill-rule="nonzero"/><path fill="#ffffff" d="M 276.835938 312.796875 C 274.539062 314.929688 271.582031 316.191406 268.625 317.226562 C 265.636719 318.277344 260.289062 319.472656 254.035156 320.3125 C 237.539062 322.578125 214.609375 322.5625 211.183594 311.566406 C 222.140625 302.804688 238.847656 298.617188 253.777344 297.050781 C 257.347656 296.664062 260.855469 296.4375 264.117188 296.355469 C 267.382812 296.273438 270.726562 296.324219 273.765625 297.519531 C 276.835938 298.699219 279.53125 301.222656 280.097656 304.4375 C 280.648438 307.492188 279.128906 310.679688 276.835938 312.796875 Z M 276.835938 312.796875 " fill-opacity="1" fill-rule="nonzero"/><path fill="#36365c" d="M 276.835938 312.796875 C 274.539062 314.929688 271.582031 316.191406 268.625 317.226562 C 265.636719 318.277344 260.289062 319.472656 254.035156 320.3125 C 251.417969 316.546875 249.949219 312.003906 250.15625 307.398438 C 250.335938 303.695312 251.628906 300.089844 253.792969 297.050781 C 257.363281 296.664062 260.871094 296.4375 264.132812 296.355469 C 267.398438 296.273438 270.742188 296.324219 273.78125 297.519531 C 276.851562 298.699219 279.550781 301.222656 280.113281 304.4375 C 280.648438 307.492188 279.128906 310.679688 276.835938 312.796875 Z M 276.835938 312.796875 " fill-opacity="1" fill-rule="nonzero"/><path fill="#ffffff" d="M 110.3125 324.195312 C 108.015625 326.328125 105.058594 327.589844 102.101562 328.625 C 99.113281 329.675781 93.765625 330.871094 87.511719 331.710938 C 71.015625 333.972656 48.085938 333.957031 44.660156 322.949219 C 55.617188 314.203125 72.324219 310 87.253906 308.433594 C 90.824219 308.042969 94.332031 307.816406 97.59375 307.738281 C 100.859375 307.65625 104.203125 307.703125 107.242188 308.902344 C 110.3125 310.082031 113.007812 312.601562 113.574219 315.820312 C 114.125 318.890625 112.605469 322.09375 110.3125 324.195312 Z M 110.3125 324.195312 " fill-opacity="1" fill-rule="nonzero"/><path fill="#36365c" d="M 110.3125 324.195312 C 108.015625 326.328125 105.058594 327.589844 102.101562 328.625 C 99.113281 329.675781 93.765625 330.871094 87.511719 331.710938 C 84.894531 327.945312 83.421875 323.402344 83.632812 318.777344 C 83.8125 315.074219 85.105469 311.472656 87.269531 308.433594 C 90.839844 308.042969 94.347656 307.816406 97.609375 307.738281 C 100.875 307.65625 104.21875 307.703125 107.257812 308.902344 C 110.328125 310.082031 113.023438 312.601562 113.589844 315.820312 C 114.125 318.890625 112.605469 322.09375 110.3125 324.195312 Z M 110.3125 324.195312 " fill-opacity="1" fill-rule="nonzero"/><path fill="#36365c" d="M 327.054688 334.589844 C 307.339844 334.894531 287.710938 338 268.867188 343.804688 C 267.285156 344.289062 267.964844 346.777344 269.546875 346.292969 C 288.179688 340.554688 307.550781 337.480469 327.054688 337.175781 C 328.71875 337.144531 328.71875 334.554688 327.054688 334.589844 Z M 327.054688 334.589844 " fill-opacity="1" fill-rule="nonzero"/><path fill="#36365c" d="M 324.566406 353.277344 C 306.113281 352.839844 287.660156 353.066406 269.222656 353.988281 C 267.578125 354.070312 267.558594 356.640625 269.222656 356.558594 C 287.660156 355.636719 306.113281 355.394531 324.566406 355.847656 C 326.230469 355.894531 326.230469 353.324219 324.566406 353.277344 Z M 324.566406 353.277344 " fill-opacity="1" fill-rule="nonzero"/><path fill="#36365c" d="M 319.863281 376.023438 C 305.613281 373.5 291.359375 370.996094 277.109375 368.472656 C 275.492188 368.183594 274.800781 370.671875 276.429688 370.960938 C 290.683594 373.484375 304.933594 375.988281 319.183594 378.511719 C 320.800781 378.804688 321.496094 376.3125 319.863281 376.023438 Z M 319.863281 376.023438 " fill-opacity="1" fill-rule="nonzero"/><path fill="#36365c" d="M 19.164062 371.898438 C 38.554688 368.3125 58.394531 367.46875 78.011719 369.441406 C 79.660156 369.605469 79.480469 372.175781 77.832031 372.011719 C 58.425781 370.074219 38.84375 370.882812 19.664062 374.421875 C 18.046875 374.730469 17.53125 372.207031 19.164062 371.898438 Z M 19.164062 371.898438 " fill-opacity="1" fill-rule="nonzero"/><path fill="#36365c" d="M 21.8125 393.5625 C 39.8125 389.488281 57.957031 386.078125 76.199219 383.347656 C 77.832031 383.101562 78.351562 385.625 76.703125 385.867188 C 58.460938 388.601562 40.3125 392.011719 22.3125 396.085938 C 20.714844 396.457031 20.199219 393.933594 21.8125 393.5625 Z M 21.8125 393.5625 " fill-opacity="1" fill-rule="nonzero"/><path fill="#36365c" d="M 38.910156 408.339844 C 52.382812 403.050781 65.859375 397.78125 79.335938 392.496094 C 80.871094 391.898438 82.035156 394.191406 80.5 394.792969 C 67.023438 400.078125 53.546875 405.347656 40.070312 410.632812 C 38.535156 411.25 37.375 408.953125 38.910156 408.339844 Z M 38.910156 408.339844 " fill-opacity="1" fill-rule="nonzero"/><path fill="#36365c" d="M 193.378906 352.566406 C 191.535156 355.507812 189.386719 358.207031 186.898438 360.648438 C 185.671875 361.859375 184.363281 363.007812 182.988281 364.058594 C 181.730469 365.011719 180.113281 366.4375 178.5625 366.871094 C 176.945312 367.324219 175.183594 366.015625 173.859375 365.253906 C 172.261719 364.316406 170.675781 363.347656 169.140625 362.296875 C 165.976562 360.164062 162.984375 357.785156 160.15625 355.214844 C 157.71875 352.984375 154.066406 356.621094 156.523438 358.855469 C 159.914062 361.941406 163.535156 364.769531 167.363281 367.292969 C 169.835938 368.910156 172.84375 371.140625 175.976562 371.867188 C 176.542969 380.257812 177.835938 388.582031 179.917969 396.730469 C 180.742188 399.933594 185.703125 398.574219 184.878906 395.355469 C 182.875 387.5 181.617188 379.515625 181.082031 371.414062 C 184.265625 370.121094 187.304688 367.308594 189.664062 365.125 C 192.828125 362.199219 195.558594 358.804688 197.839844 355.167969 C 199.582031 352.355469 195.140625 349.769531 193.378906 352.566406 Z M 193.378906 352.566406 " fill-opacity="1" fill-rule="nonzero"/><path fill="#36365c" d="M 378.097656 385.1875 C 375.65625 385.851562 372.152344 384.332031 371.761719 381.582031 C 368.984375 362.460938 364.089844 343.707031 357.171875 325.664062 C 360.808594 325.792969 364.476562 325.761719 368.109375 325.617188 C 374.492188 342.832031 379.050781 360.679688 381.667969 378.867188 C 382.089844 381.617188 381.054688 384.398438 378.097656 385.1875 Z M 378.097656 385.1875 " fill-opacity="1" fill-rule="nonzero"/><path fill="#36365c" d="M 437.800781 383.832031 C 435.328125 384.492188 431.902344 382.972656 431.464844 380.226562 C 428.300781 360.84375 424.035156 341.652344 418.605469 322.789062 C 422.128906 322.625 425.648438 322.480469 429.15625 322.351562 C 434.3125 340.472656 438.367188 358.886719 441.386719 377.492188 C 441.839844 380.257812 440.710938 383.007812 437.800781 383.832031 Z M 437.800781 383.832031 " fill-opacity="1" fill-rule="nonzero"/><path fill="#36365c" d="M 495.695312 376.71875 C 496.035156 379.5 493.042969 381.875 490.539062 381.875 C 487.503906 381.875 485.726562 379.480469 485.386719 376.71875 C 482.996094 357.769531 478.210938 339.148438 471.359375 321.332031 C 475.011719 321.285156 478.648438 321.285156 482.300781 321.285156 C 488.910156 339.179688 493.304688 357.753906 495.695312 376.71875 Z M 495.695312 376.71875 " fill-opacity="1" fill-rule="nonzero"/><path fill="#36365c" d="M 548.644531 328.332031 C 547.5625 325.777344 543.78125 325.210938 541.601562 326.488281 C 538.949219 328.042969 538.660156 330.96875 539.757812 333.539062 C 545.996094 348.214844 549.402344 364.09375 549.984375 380.015625 C 550.226562 386.628906 560.519531 386.660156 560.277344 380.015625 C 559.632812 362.136719 555.625 344.773438 548.644531 328.332031 Z M 548.644531 328.332031 " fill-opacity="1" fill-rule="nonzero"/><path fill="#36365c" d="M 616.878906 368.972656 C 617.234375 371.753906 614.230469 374.132812 611.726562 374.132812 C 608.6875 374.132812 606.941406 371.738281 606.570312 368.972656 C 604.648438 353.957031 600.707031 339.246094 595.019531 325.226562 C 598.800781 325.488281 602.5625 325.792969 606.3125 326.101562 C 611.484375 339.90625 614.972656 354.246094 616.878906 368.972656 Z M 616.878906 368.972656 " fill-opacity="1" fill-rule="nonzero"/><path fill="#36365c" d="M 673.851562 381.148438 C 673.933594 387.792969 663.640625 387.757812 663.558594 381.148438 C 663.382812 364.042969 660.699219 347.183594 655.660156 330.917969 C 659.390625 331.355469 663.125 331.824219 666.824219 332.359375 C 671.332031 348.214844 673.675781 364.640625 673.851562 381.148438 Z M 673.851562 381.148438 " fill-opacity="1" fill-rule="nonzero"/><path fill="#36365c" d="M 776.796875 121.484375 C 743.542969 129.601562 710.628906 139.125 678.183594 149.988281 C 676.40625 146.949219 674.675781 143.910156 673.011719 140.867188 C 683.160156 137.441406 693.371094 134.144531 703.617188 130.976562 C 726.835938 123.8125 750.246094 117.347656 773.820312 111.59375 C 774.839844 114.90625 775.84375 118.203125 776.796875 121.484375 Z M 776.796875 121.484375 " fill-opacity="1" fill-rule="nonzero"/><path fill="#36365c" d="M 791.402344 181.074219 C 776.421875 183.386719 761.429688 185.730469 746.449219 188.121094 C 732.425781 190.371094 718.011719 192.261719 703.972656 195.414062 C 702.371094 192.292969 700.722656 189.207031 699.027344 186.117188 C 699.1875 186.085938 699.316406 186.039062 699.464844 186.019531 C 719.644531 181.414062 740.328125 178.714844 760.765625 175.496094 C 770.285156 174.011719 779.816406 172.507812 789.332031 171.035156 C 790.042969 174.382812 790.738281 177.726562 791.402344 181.074219 Z M 791.402344 181.074219 " fill-opacity="1" fill-rule="nonzero"/><path fill="#36365c" d="M 799.511719 229.652344 C 773.417969 232.222656 747.402344 235.601562 721.519531 239.773438 C 720.597656 236.460938 719.597656 233.160156 718.480469 229.878906 C 744.914062 225.613281 771.464844 222.136719 798.109375 219.453125 C 798.59375 222.863281 799.078125 226.257812 799.511719 229.652344 Z M 799.511719 229.652344 " fill-opacity="1" fill-rule="nonzero"/><path fill="#36365c" d="M 805.023438 282.648438 C 779.976562 282.289062 754.917969 283.90625 730.132812 287.59375 C 729.871094 284.199219 729.53125 280.804688 729.097656 277.425781 C 753.980469 273.789062 779.074219 272.089844 804.183594 272.382812 C 804.472656 275.792969 804.765625 279.21875 805.023438 282.648438 Z M 805.023438 282.648438 " fill-opacity="1" fill-rule="nonzero"/><path fill="#36365c" d="M 807.558594 334.007812 C 781.804688 331.890625 756.066406 329.804688 730.324219 327.71875 C 730.582031 324.289062 730.761719 320.863281 730.859375 317.453125 C 756.308594 319.539062 781.738281 321.589844 807.203125 323.675781 C 807.367188 327.136719 807.464844 330.5625 807.558594 334.007812 Z M 807.558594 334.007812 " fill-opacity="1" fill-rule="nonzero"/></svg>