<svg xmlns="http://www.w3.org/2000/svg" xmlns:xlink="http://www.w3.org/1999/xlink" width="1080" zoomAndPan="magnify" viewBox="0 0 810 809.999993" height="1080" preserveAspectRatio="xMidYMid meet" version="1.0"><path fill="#aa2711" d="M 763.59375 80.933594 C 762.203125 81.09375 760.847656 81.273438 759.457031 81.449219 C 724.167969 86.007812 689.203125 92.953125 654.820312 102.117188 C 653.640625 98.867188 652.574219 95.605469 651.636719 92.308594 C 652.023438 92.210938 652.410156 92.097656 652.800781 92 C 688.023438 82.660156 723.84375 75.679688 760.007812 71.109375 C 760.492188 72.367188 760.960938 73.597656 761.429688 74.875 C 762.140625 76.894531 762.898438 78.894531 763.59375 80.933594 Z M 763.59375 80.933594 " fill-opacity="1" fill-rule="nonzero"/><path fill="#f48080" d="M 783 674.691406 C 778.136719 691.15625 771.671875 708.347656 757.90625 718.625 C 744.140625 728.882812 721.082031 728.1875 712.824219 713.144531 C 704.488281 697.910156 715.121094 679.828125 719.433594 662.992188 C 724.476562 643.359375 724.476562 608.328125 710.710938 592.945312 C 697.539062 578.179688 685.617188 583.25 667.46875 583.960938 C 613.019531 586.128906 558.46875 585.320312 503.953125 588.035156 C 408.214844 592.738281 312.933594 599.378906 217.097656 602.753906 C 196.15625 603.496094 172.988281 605.144531 158.25 620.042969 C 148.394531 629.980469 144.175781 644.136719 142.09375 657.949219 C 140.007812 671.765625 139.703125 685.902344 136 699.378906 C 132.316406 712.839844 124.53125 726.089844 111.863281 732.003906 C 99.195312 737.917969 81.453125 733.648438 76.089844 720.757812 C 73.792969 715.246094 73.957031 709.074219 74.035156 703.128906 C 74.777344 647.367188 66.472656 591.523438 49.636719 538.382812 C 34.09375 489.308594 20.246094 441.382812 10.875 390.308594 C 4.023438 352.96875 0.015625 315.011719 0.160156 277.027344 C 0.210938 257.863281 1.375 238.683594 3.765625 219.632812 C 5.234375 208.046875 4.992188 196.089844 8.464844 184.8125 C 9.855469 180.304688 12.601562 172.046875 18.421875 171.902344 C 22.6875 171.804688 31.445312 180.0625 34.5625 183.066406 C 39.78125 188.109375 45.777344 192.230469 50.753906 197.625 C 60.707031 208.46875 67.652344 223.234375 81.664062 229.617188 C 89.96875 233.398438 99.421875 233.351562 108.550781 233.222656 C 115.191406 233.140625 121.832031 233.042969 128.472656 232.914062 C 151.222656 232.496094 173.988281 231.914062 196.738281 231.167969 C 203.605469 230.941406 210.941406 230.523438 216.5 226.46875 C 219.976562 223.898438 222.367188 220.132812 224.660156 216.480469 C 230.574219 207.027344 264.167969 140.3125 278.953125 170.882812 C 299.570312 213.445312 279.515625 277.960938 317.632812 312.476562 C 328.28125 322.105469 342.46875 325.0625 357.15625 325.515625 C 360.792969 325.644531 364.460938 325.613281 368.09375 325.46875 C 372.621094 325.339844 377.128906 325.046875 381.523438 324.738281 C 393.867188 323.882812 406.226562 323.171875 418.574219 322.625 C 422.09375 322.460938 425.617188 322.316406 429.125 322.1875 C 443.199219 321.652344 457.269531 321.316406 471.359375 321.183594 C 475.011719 321.136719 478.648438 321.136719 482.300781 321.136719 C 519.898438 321.007812 557.515625 322.347656 595.019531 325.078125 C 598.800781 325.339844 602.5625 325.644531 606.3125 325.953125 C 619.691406 327.003906 633.054688 328.261719 646.398438 329.71875 C 649.46875 330.054688 652.554688 330.378906 655.644531 330.765625 C 659.375 331.203125 663.109375 331.671875 666.808594 332.207031 C 695.117188 336.164062 723.132812 343.015625 746.0625 359.609375 C 788.042969 389.96875 802.859375 445.714844 806.285156 497.4375 C 810.03125 553.601562 798.980469 620.722656 783 674.691406 Z M 783 674.691406 " fill-opacity="1" fill-rule="nonzero"/><path fill="#f48080" d="M 805.25 484.867188 L 805.25 484.960938 C 804.894531 494.222656 804.507812 503.5625 804.085938 512.980469 L 678.28125 464.992188 C 704.683594 431.480469 721.4375 390.988281 727.949219 348.832031 L 727.949219 348.800781 C 729.066406 341.753906 729.855469 334.644531 730.339844 327.535156 C 730.601562 324.109375 730.777344 320.683594 730.875 317.273438 C 731.230469 307.320312 730.972656 297.335938 730.132812 287.429688 C 729.871094 284.039062 729.53125 280.644531 729.097656 277.269531 C 727.546875 264.550781 725.023438 251.949219 721.503906 239.652344 C 720.582031 236.339844 719.578125 233.042969 718.464844 229.761719 C 715.589844 220.957031 712.132812 212.34375 708.203125 203.960938 C 706.847656 201.050781 705.425781 198.175781 703.953125 195.316406 C 702.355469 192.195312 700.707031 189.109375 699.011719 186.023438 C 692.371094 173.855469 685.113281 161.933594 678.167969 149.925781 C 676.390625 146.890625 674.660156 143.851562 672.996094 140.8125 C 665.96875 128.226562 659.535156 115.445312 654.800781 102.117188 C 653.621094 98.867188 652.554688 95.605469 651.621094 92.308594 C 650.066406 86.878906 648.808594 81.351562 647.933594 75.714844 C 644.105469 50.960938 650.421875 21.359375 672.738281 9.984375 C 691.269531 0.546875 714.863281 7.496094 730.195312 21.535156 C 744.527344 34.703125 753.042969 52.832031 759.976562 71.09375 C 760.460938 72.351562 760.929688 73.582031 761.398438 74.855469 C 762.140625 76.894531 762.882812 78.894531 763.578125 80.933594 C 767.277344 91.191406 770.6875 101.386719 773.789062 111.550781 C 774.824219 114.847656 775.824219 118.144531 776.777344 121.441406 C 781.609375 138.035156 785.777344 154.53125 789.316406 170.949219 C 790.042969 174.292969 790.738281 177.636719 791.402344 180.984375 C 793.972656 193.796875 796.183594 206.59375 798.089844 219.359375 C 798.578125 222.75 799.078125 226.144531 799.511719 229.554688 C 801.46875 243.789062 802.988281 257.992188 804.199219 272.242188 C 804.488281 275.667969 804.765625 279.09375 805.023438 282.503906 C 806.023438 296.140625 806.753906 309.808594 807.238281 323.527344 C 807.367188 326.96875 807.464844 330.394531 807.578125 333.851562 C 808.886719 382.84375 807.382812 432.742188 805.25 484.867188 Z M 805.25 484.867188 " fill-opacity="1" fill-rule="nonzero"/><path fill="#f48080" d="M 225.226562 577.757812 C 229.410156 621.417969 233.578125 665.058594 237.765625 708.71875 C 238.492188 716.265625 239.492188 724.457031 244.582031 729.804688 C 252.90625 738.546875 268.042969 734.394531 275.492188 724.828125 C 282.941406 715.261719 284.914062 702.351562 287.0625 690.167969 C 294.996094 645.183594 308.988281 601.398438 328.476562 560.535156 Z M 225.226562 577.757812 " fill-opacity="1" fill-rule="nonzero"/><path fill="#f48080" d="M 549.742188 564.574219 C 562.476562 578.921875 566.078125 600.71875 563.976562 620.65625 C 561.878906 640.597656 554.867188 659.4375 548.917969 678.421875 C 546.480469 686.242188 544.265625 695.179688 547.789062 702.480469 C 550.859375 708.832031 557.757812 712.128906 564.285156 711.984375 C 570.8125 711.820312 577.019531 708.75 582.578125 704.96875 C 606.152344 688.941406 620.757812 659.921875 625.945312 629.933594 C 631.113281 599.941406 627.785156 568.902344 621.808594 539.09375 Z M 549.742188 564.574219 " fill-opacity="1" fill-rule="nonzero"/><path fill="#efccb9" d="M 245.488281 352.871094 C 243.792969 361.0625 248.105469 369.675781 254.714844 374.796875 C 262.9375 381.164062 274.960938 382.554688 284.023438 377.480469 C 293.105469 372.40625 298.246094 360.804688 295.140625 350.882812 C 288.453125 329.539062 250.09375 330.574219 245.488281 352.871094 Z M 245.488281 352.871094 " fill-opacity="1" fill-rule="nonzero"/><path fill="#efccb9" d="M 58.507812 375.410156 C 56.8125 383.605469 61.125 392.214844 67.734375 397.339844 C 75.957031 403.703125 87.980469 405.09375 97.0625 400.019531 C 106.140625 394.945312 111.28125 383.34375 108.179688 373.425781 C 101.472656 352.078125 63.113281 353.097656 58.507812 375.410156 Z M 58.507812 375.410156 " fill-opacity="1" fill-rule="nonzero"/><path fill="#ffffff" d="M 276.835938 312.636719 C 274.539062 314.769531 271.582031 316.03125 268.625 317.066406 C 265.636719 318.117188 260.289062 319.3125 254.035156 320.152344 C 237.539062 322.414062 214.609375 322.398438 211.183594 311.410156 C 222.140625 302.652344 238.847656 298.46875 253.777344 296.898438 C 257.347656 296.511719 260.855469 296.285156 264.117188 296.207031 C 267.382812 296.125 270.726562 296.171875 273.765625 297.367188 C 276.835938 298.546875 279.53125 301.070312 280.097656 304.285156 C 280.648438 307.339844 279.128906 310.519531 276.835938 312.636719 Z M 276.835938 312.636719 " fill-opacity="1" fill-rule="nonzero"/><path fill="#aa2711" d="M 276.835938 312.636719 C 274.539062 314.769531 271.582031 316.03125 268.625 317.066406 C 265.636719 318.117188 260.289062 319.3125 254.035156 320.152344 C 251.417969 316.386719 249.949219 311.847656 250.15625 307.242188 C 250.335938 303.539062 251.628906 299.9375 253.792969 296.898438 C 257.363281 296.511719 260.871094 296.285156 264.132812 296.207031 C 267.398438 296.125 270.742188 296.171875 273.78125 297.367188 C 276.851562 298.546875 279.550781 301.070312 280.113281 304.285156 C 280.648438 307.339844 279.128906 310.519531 276.835938 312.636719 Z M 276.835938 312.636719 " fill-opacity="1" fill-rule="nonzero"/><path fill="#ffffff" d="M 110.3125 324.027344 C 108.015625 326.164062 105.058594 327.421875 102.101562 328.457031 C 99.113281 329.507812 93.765625 330.703125 87.511719 331.542969 C 71.015625 333.804688 48.085938 333.789062 44.660156 322.785156 C 55.617188 314.042969 72.324219 309.84375 87.253906 308.273438 C 90.824219 307.886719 94.332031 307.660156 97.59375 307.582031 C 100.859375 307.5 104.203125 307.546875 107.242188 308.742188 C 110.3125 309.921875 113.007812 312.445312 113.574219 315.660156 C 114.125 318.730469 112.605469 321.929688 110.3125 324.027344 Z M 110.3125 324.027344 " fill-opacity="1" fill-rule="nonzero"/><path fill="#aa2711" d="M 110.3125 324.027344 C 108.015625 326.164062 105.058594 327.421875 102.101562 328.457031 C 99.113281 329.507812 93.765625 330.703125 87.511719 331.542969 C 84.894531 327.777344 83.421875 323.238281 83.632812 318.617188 C 83.8125 314.917969 85.105469 311.3125 87.269531 308.273438 C 90.839844 307.886719 94.347656 307.660156 97.609375 307.582031 C 100.875 307.5 104.21875 307.546875 107.257812 308.742188 C 110.328125 309.921875 113.023438 312.445312 113.589844 315.660156 C 114.125 318.730469 112.605469 321.929688 110.3125 324.027344 Z M 110.3125 324.027344 " fill-opacity="1" fill-rule="nonzero"/><path fill="#aa2711" d="M 327.054688 334.417969 C 307.339844 334.726562 287.710938 337.828125 268.867188 343.628906 C 267.285156 344.113281 267.964844 346.601562 269.546875 346.117188 C 288.179688 340.382812 307.550781 337.3125 327.054688 337.003906 C 328.71875 336.972656 328.71875 334.386719 327.054688 334.417969 Z M 327.054688 334.417969 " fill-opacity="1" fill-rule="nonzero"/><path fill="#aa2711" d="M 324.566406 353.097656 C 306.113281 352.660156 287.660156 352.886719 269.222656 353.808594 C 267.578125 353.890625 267.558594 356.457031 269.222656 356.378906 C 287.660156 355.457031 306.113281 355.214844 324.566406 355.667969 C 326.230469 355.714844 326.230469 353.144531 324.566406 353.097656 Z M 324.566406 353.097656 " fill-opacity="1" fill-rule="nonzero"/><path fill="#aa2711" d="M 319.863281 375.832031 C 305.613281 373.3125 291.359375 370.808594 277.109375 368.285156 C 275.492188 367.996094 274.800781 370.484375 276.429688 370.773438 C 290.683594 373.296875 304.933594 375.800781 319.183594 378.320312 C 320.800781 378.609375 321.496094 376.121094 319.863281 375.832031 Z M 319.863281 375.832031 " fill-opacity="1" fill-rule="nonzero"/><path fill="#aa2711" d="M 19.164062 371.710938 C 38.554688 368.125 58.394531 367.285156 78.011719 369.253906 C 79.660156 369.417969 79.480469 371.984375 77.832031 371.824219 C 58.425781 369.886719 38.84375 370.695312 19.664062 374.230469 C 18.046875 374.539062 17.53125 372.019531 19.164062 371.710938 Z M 19.164062 371.710938 " fill-opacity="1" fill-rule="nonzero"/><path fill="#aa2711" d="M 21.8125 393.363281 C 39.8125 389.292969 57.957031 385.882812 76.199219 383.152344 C 77.832031 382.910156 78.351562 385.429688 76.703125 385.671875 C 58.460938 388.402344 40.3125 391.8125 22.3125 395.882812 C 20.714844 396.253906 20.199219 393.734375 21.8125 393.363281 Z M 21.8125 393.363281 " fill-opacity="1" fill-rule="nonzero"/><path fill="#aa2711" d="M 38.910156 408.132812 C 52.382812 402.847656 65.859375 397.582031 79.335938 392.296875 C 80.871094 391.699219 82.035156 393.992188 80.5 394.589844 C 67.023438 399.875 53.546875 405.140625 40.070312 410.425781 C 38.535156 411.039062 37.375 408.746094 38.910156 408.132812 Z M 38.910156 408.132812 " fill-opacity="1" fill-rule="nonzero"/><path fill="#aa2711" d="M 193.378906 352.386719 C 191.535156 355.328125 189.386719 358.027344 186.898438 360.464844 C 185.671875 361.675781 184.363281 362.824219 182.988281 363.875 C 181.730469 364.828125 180.113281 366.25 178.5625 366.6875 C 176.945312 367.140625 175.183594 365.828125 173.859375 365.070312 C 172.261719 364.132812 170.675781 363.164062 169.140625 362.113281 C 165.976562 359.980469 162.984375 357.605469 160.15625 355.035156 C 157.71875 352.808594 154.066406 356.441406 156.523438 358.671875 C 159.914062 361.757812 163.535156 364.585938 167.363281 367.105469 C 169.835938 368.722656 172.84375 370.953125 175.976562 371.679688 C 176.542969 380.066406 177.835938 388.386719 179.917969 396.53125 C 180.742188 399.730469 185.703125 398.371094 184.878906 395.15625 C 182.875 387.304688 181.617188 379.320312 181.082031 371.226562 C 184.265625 369.933594 187.304688 367.121094 189.664062 364.941406 C 192.828125 362.015625 195.558594 358.625 197.839844 354.988281 C 199.582031 352.175781 195.140625 349.589844 193.378906 352.386719 Z M 193.378906 352.386719 " fill-opacity="1" fill-rule="nonzero"/><path fill="#aa2711" d="M 378.097656 384.992188 C 375.65625 385.65625 372.152344 384.136719 371.761719 381.390625 C 368.984375 362.273438 364.089844 343.53125 357.171875 325.5 C 360.808594 325.628906 364.476562 325.597656 368.109375 325.453125 C 374.492188 342.660156 379.050781 360.496094 381.667969 378.675781 C 382.089844 381.421875 381.054688 384.203125 378.097656 384.992188 Z M 378.097656 384.992188 " fill-opacity="1" fill-rule="nonzero"/><path fill="#aa2711" d="M 437.800781 383.636719 C 435.328125 384.296875 431.902344 382.78125 431.464844 380.03125 C 428.300781 360.660156 424.035156 341.480469 418.605469 322.625 C 422.128906 322.460938 425.648438 322.316406 429.15625 322.1875 C 434.3125 340.300781 438.367188 358.703125 441.386719 377.300781 C 441.839844 380.066406 440.710938 382.8125 437.800781 383.636719 Z M 437.800781 383.636719 " fill-opacity="1" fill-rule="nonzero"/><path fill="#aa2711" d="M 495.695312 376.527344 C 496.035156 379.304688 493.042969 381.679688 490.539062 381.679688 C 487.503906 381.679688 485.726562 379.289062 485.386719 376.527344 C 482.996094 357.589844 478.210938 338.976562 471.359375 321.167969 C 475.011719 321.121094 478.648438 321.121094 482.300781 321.121094 C 488.910156 339.007812 493.304688 357.574219 495.695312 376.527344 Z M 495.695312 376.527344 " fill-opacity="1" fill-rule="nonzero"/><path fill="#aa2711" d="M 548.644531 328.164062 C 547.5625 325.613281 543.78125 325.046875 541.601562 326.324219 C 538.949219 327.875 538.660156 330.800781 539.757812 333.367188 C 545.996094 348.039062 549.402344 363.90625 549.984375 379.824219 C 550.226562 386.429688 560.519531 386.464844 560.277344 379.824219 C 559.632812 361.953125 555.625 344.597656 548.644531 328.164062 Z M 548.644531 328.164062 " fill-opacity="1" fill-rule="nonzero"/><path fill="#aa2711" d="M 616.878906 368.785156 C 617.234375 371.566406 614.230469 373.941406 611.726562 373.941406 C 608.6875 373.941406 606.941406 371.550781 606.570312 368.785156 C 604.648438 353.777344 600.707031 339.074219 595.019531 325.0625 C 598.800781 325.320312 602.5625 325.628906 606.3125 325.9375 C 611.484375 339.734375 614.972656 354.066406 616.878906 368.785156 Z M 616.878906 368.785156 " fill-opacity="1" fill-rule="nonzero"/><path fill="#aa2711" d="M 673.851562 380.953125 C 673.933594 387.59375 663.640625 387.5625 663.558594 380.953125 C 663.382812 363.859375 660.699219 347.007812 655.660156 330.75 C 659.390625 331.1875 663.125 331.65625 666.824219 332.1875 C 671.332031 348.039062 673.675781 364.457031 673.851562 380.953125 Z M 673.851562 380.953125 " fill-opacity="1" fill-rule="nonzero"/><path fill="#aa2711" d="M 776.796875 121.425781 C 743.542969 129.535156 710.628906 139.050781 678.183594 149.910156 C 676.40625 146.875 674.675781 143.835938 673.011719 140.796875 C 683.160156 137.371094 693.371094 134.074219 703.617188 130.910156 C 726.835938 123.75 750.246094 117.289062 773.820312 111.535156 C 774.839844 114.847656 775.84375 118.144531 776.796875 121.425781 Z M 776.796875 121.425781 " fill-opacity="1" fill-rule="nonzero"/><path fill="#aa2711" d="M 791.402344 180.984375 C 776.421875 183.292969 761.429688 185.636719 746.449219 188.027344 C 732.425781 190.273438 718.011719 192.164062 703.972656 195.316406 C 702.371094 192.195312 700.722656 189.109375 699.027344 186.023438 C 699.1875 185.992188 699.316406 185.941406 699.464844 185.925781 C 719.644531 181.320312 740.328125 178.625 760.765625 175.40625 C 770.285156 173.921875 779.816406 172.417969 789.332031 170.949219 C 790.042969 174.292969 790.738281 177.636719 791.402344 180.984375 Z M 791.402344 180.984375 " fill-opacity="1" fill-rule="nonzero"/><path fill="#aa2711" d="M 799.511719 229.539062 C 773.417969 232.105469 747.402344 235.484375 721.519531 239.652344 C 720.597656 236.339844 719.597656 233.042969 718.480469 229.761719 C 744.914062 225.496094 771.464844 222.023438 798.109375 219.339844 C 798.59375 222.75 799.078125 226.144531 799.511719 229.539062 Z M 799.511719 229.539062 " fill-opacity="1" fill-rule="nonzero"/><path fill="#aa2711" d="M 805.023438 282.503906 C 779.976562 282.148438 754.917969 283.761719 730.132812 287.449219 C 729.871094 284.054688 729.53125 280.660156 729.097656 277.285156 C 753.980469 273.648438 779.074219 271.953125 804.183594 272.242188 C 804.472656 275.652344 804.765625 279.078125 805.023438 282.503906 Z M 805.023438 282.503906 " fill-opacity="1" fill-rule="nonzero"/><path fill="#aa2711" d="M 807.558594 333.835938 C 781.804688 331.71875 756.066406 329.636719 730.324219 327.550781 C 730.582031 324.125 730.761719 320.699219 730.859375 317.292969 C 756.308594 319.375 781.738281 321.429688 807.203125 323.511719 C 807.367188 326.96875 807.464844 330.394531 807.558594 333.835938 Z M 807.558594 333.835938 " fill-opacity="1" fill-rule="nonzero"/></svg>