<svg xmlns="http://www.w3.org/2000/svg" xmlns:xlink="http://www.w3.org/1999/xlink" width="1080" zoomAndPan="magnify" viewBox="0 0 810 809.999993" height="1080" preserveAspectRatio="xMidYMid meet" version="1.0"><path fill="#ffffff" d="M 219.792969 744.566406 C 216.238281 766.128906 212.683594 787.691406 209.132812 809.253906 L 205.355469 809.453125 C 209.585938 788.503906 214.402344 766.875 219.792969 744.566406 Z M 219.792969 744.566406 " fill-opacity="1" fill-rule="nonzero"/><path fill="#ffffff" d="M 482.519531 171.445312 L 470.289062 203.257812 L 469.761719 204.628906 L 445.863281 266.78125 L 445.714844 267.167969 L 268.707031 727.546875 C 258.09375 700.335938 253.90625 673.632812 243.667969 674.429688 C 241.324219 674.613281 239.167969 676.199219 237.195312 678.816406 C 249.21875 636.808594 263.519531 593.046875 280.535156 548.011719 C 342.753906 383.316406 420.082031 257.851562 482.519531 171.445312 Z M 482.519531 171.445312 " fill-opacity="1" fill-rule="nonzero"/><path fill="#4f604d" d="M 718.371094 318.300781 C 726.707031 329.429688 714.375 364.222656 690.804688 385.933594 C 618.21875 452.796875 470.765625 366.347656 453.820312 404.589844 C 450.441406 412.199219 453.960938 420.871094 455.96875 425.816406 C 470.066406 460.566406 534.703125 464.933594 577.105469 459.328125 C 630.925781 452.21875 661.925781 427.324219 670.417969 438.917969 C 676.476562 447.191406 668.496094 470.40625 654.40625 485.316406 C 598.027344 544.957031 458.878906 455.421875 432.21875 500.535156 C 426.363281 510.433594 427.542969 524.09375 431.988281 532.191406 C 447.140625 559.789062 517.085938 553.484375 559.972656 542.828125 C 582.023438 537.351562 595.96875 530.957031 602.0625 538.375 C 610.136719 548.199219 602.449219 579.859375 584.128906 595.546875 C 543.871094 630.035156 482.828125 561.1875 415.386719 592.332031 C 379.902344 608.71875 356.992188 646.152344 362.363281 655.882812 C 366.355469 663.148438 386.617188 655.800781 464.9375 635.605469 C 532.4375 618.199219 541.933594 617.34375 544.992188 622.480469 C 553.242188 636.386719 509.738281 685.847656 467.375 718.957031 C 436.917969 742.761719 355.816406 806.152344 304.148438 775.859375 C 286.480469 765.496094 276.039062 746.398438 268.691406 727.546875 C 258.078125 700.335938 253.886719 673.632812 243.652344 674.429688 C 241.308594 674.613281 239.152344 676.199219 237.179688 678.816406 C 229.828125 688.542969 224.960938 712.492188 221.964844 731.324219 C 221.238281 735.738281 220.511719 740.152344 219.785156 744.5625 C 216.230469 766.125 212.675781 787.6875 209.125 809.25 L 205.347656 809.453125 L 194.535156 810.023438 C 196.300781 777.488281 200.882812 745.355469 208.289062 713.625 C 215.332031 683.375 220.273438 673.511719 215.117188 665.761719 C 196.800781 638.230469 104 716.742188 54.175781 683.082031 C 0.0585938 646.519531 13.242188 488.867188 44.757812 478.988281 C 56.699219 475.246094 76.414062 491.109375 79 507.4375 C 82.023438 526.527344 60.644531 535.375 63.019531 554.441406 C 66.078125 578.984375 104.792969 590.886719 110.960938 592.785156 C 134.78125 600.113281 165.074219 598.820312 168.03125 588.429688 C 169.527344 583.199219 163.730469 576.980469 161.183594 574.230469 C 115.546875 525.085938 55.648438 460.589844 36.03125 409.253906 C 16.589844 358.359375 28.984375 300.09375 41.34375 297.167969 C 52.207031 294.601562 59.824219 340.511719 102.980469 397.359375 C 135.121094 439.699219 181.953125 481.566406 195.023438 471.699219 C 199 468.699219 199.183594 461.425781 198.683594 455.609375 C 170.085938 432.53125 105.914062 374.382812 91.566406 290.984375 C 87.964844 270.054688 82.949219 238.144531 100.695312 213.058594 C 111.191406 198.21875 132.179688 182.296875 148.636719 188.324219 C 169.925781 196.117188 160.980469 233.3125 186.304688 289.75 C 203.929688 329.035156 237.980469 376.847656 262.6875 371.527344 C 270.050781 369.9375 277.058594 363.535156 280.035156 355.882812 C 296.828125 312.71875 173.828125 259.375 179.453125 183.378906 C 181.683594 153.214844 203.707031 125.808594 216.859375 127.316406 C 231.214844 128.960938 229.550781 164.449219 254.789062 215.535156 C 257.808594 221.652344 299.996094 305.480469 334.824219 298.808594 C 346.289062 296.617188 356.125 284.769531 359.582031 272.734375 C 371.125 232.539062 306.855469 206.363281 304.359375 148 C 302.820312 111.992188 325.316406 75.921875 339.253906 77.003906 C 367.941406 79.21875 366.933594 239.34375 399.886719 241.734375 C 408.460938 242.359375 416.699219 232.109375 420.433594 224.613281 C 441.472656 182.332031 364.945312 135.539062 379.203125 73.292969 C 384.363281 50.773438 400.660156 29.492188 411.164062 31.238281 C 439.128906 35.878906 428.4375 203.957031 446.683594 205.207031 C 450.582031 205.476562 454.019531 198.011719 457.335938 190.808594 C 469.46875 164.445312 466.699219 138.328125 462.53125 115.347656 C 458.035156 90.546875 449.476562 55.957031 431.945312 15.847656 C 455.039062 7.976562 488.839844 0.0078125 504.710938 17.703125 C 531.867188 47.953125 493.550781 138.65625 497.863281 140.167969 C 501.789062 141.546875 510.742188 101.625 539.8125 72.441406 C 580.703125 31.398438 648.285156 24.957031 656.238281 41.824219 C 664.757812 59.867188 607.15625 109.003906 582.617188 129.964844 C 565.550781 144.550781 547.617188 157.976562 528.816406 170.242188 C 510.011719 182.511719 490.5 193.515625 470.277344 203.257812 C 468.734375 204 467.222656 204.71875 465.742188 205.417969 C 467.085938 205.160156 468.417969 204.898438 469.738281 204.632812 C 547.820312 188.972656 594.382812 159.980469 622.84375 135.53125 C 653.425781 109.257812 690.476562 84.628906 708.453125 97.492188 C 718.527344 104.703125 720.660156 123 718.179688 136.375 C 711.222656 173.875 663.960938 192.019531 618.875 209.351562 C 588.546875 221.011719 524.164062 241.902344 465.066406 258.828125 C 460.140625 260.242188 447.460938 263.855469 445.828125 266.78125 C 445.757812 266.90625 445.710938 267.035156 445.679688 267.171875 C 445.65625 267.277344 445.648438 267.382812 445.660156 267.488281 C 446.097656 271.570312 473.054688 271.28125 480.761719 271.199219 C 571.21875 270.222656 709.507812 185.835938 724.710938 208.128906 C 731.914062 218.6875 712.222656 247.269531 702.203125 259.546875 C 654.546875 317.957031 569.539062 317.125 548.109375 316.957031 C 497.472656 316.566406 457.652344 301.871094 444.523438 323.144531 C 443.78125 324.34375 438.476562 333.195312 441.101562 341.691406 C 445.433594 355.722656 468.296875 358.863281 476.90625 360.046875 C 548.542969 369.886719 698.945312 292.351562 718.371094 318.300781 Z M 718.371094 318.300781 " fill-opacity="1" fill-rule="nonzero"/><path fill="#ffffff" d="M 285.433594 474.355469 C 281.503906 481.160156 267.515625 480.433594 254.183594 472.738281 C 240.851562 465.042969 233.226562 453.285156 237.15625 446.484375 C 241.085938 439.683594 255.078125 440.402344 268.410156 448.101562 C 281.742188 455.796875 289.363281 467.546875 285.433594 474.355469 Z M 329.09375 376.1875 C 315.761719 368.480469 301.773438 367.765625 297.84375 374.570312 C 293.914062 381.375 301.535156 393.121094 314.867188 400.824219 C 328.199219 408.53125 342.191406 409.246094 346.117188 402.441406 C 350.046875 395.632812 342.429688 383.878906 329.097656 376.179688 Z M 231.691406 544.902344 C 218.359375 537.199219 204.367188 536.480469 200.4375 543.289062 C 196.507812 550.09375 204.128906 561.835938 217.460938 569.542969 C 230.792969 577.246094 244.785156 577.964844 248.714844 571.15625 C 252.644531 564.351562 245.023438 552.597656 231.691406 544.902344 Z M 409.214844 409.921875 C 394.070312 412.691406 382.941406 421.199219 384.355469 428.929688 C 385.765625 436.65625 399.191406 440.679688 414.316406 437.910156 C 429.441406 435.144531 440.589844 426.632812 439.175781 418.90625 C 437.765625 411.179688 424.359375 407.148438 409.214844 409.914062 Z M 408.53125 336.824219 C 399.140625 338.535156 392.289062 344.074219 393.21875 349.191406 C 394.152344 354.304688 402.527344 357.054688 411.914062 355.339844 C 421.300781 353.625 428.160156 348.089844 427.226562 342.972656 C 426.292969 337.859375 417.914062 335.109375 408.53125 336.824219 Z M 584.835938 84.164062 C 575.445312 85.878906 568.589844 91.417969 569.523438 96.53125 C 570.457031 101.644531 578.828125 104.394531 588.21875 102.679688 C 597.605469 100.964844 604.460938 95.429688 603.53125 90.316406 C 602.597656 85.199219 594.214844 82.449219 584.824219 84.164062 Z M 663.082031 141.238281 C 653.691406 142.953125 646.835938 148.492188 647.769531 153.605469 C 648.703125 158.71875 657.074219 161.46875 666.460938 159.753906 C 675.851562 158.039062 682.707031 152.503906 681.773438 147.390625 C 680.839844 142.273438 672.460938 139.515625 663.074219 141.230469 Z M 663.082031 368.425781 C 653.691406 370.140625 646.835938 375.679688 647.769531 380.792969 C 648.703125 385.90625 657.074219 388.65625 666.460938 386.941406 C 675.851562 385.226562 682.707031 379.691406 681.773438 374.578125 C 680.839844 369.460938 672.460938 366.703125 663.074219 368.414062 Z M 441.980469 683.207031 C 432.589844 684.917969 425.734375 690.457031 426.667969 695.570312 C 427.601562 700.683594 435.972656 703.4375 445.359375 701.722656 C 454.75 700.007812 461.605469 694.46875 460.671875 689.355469 C 459.738281 684.242188 451.367188 681.488281 441.980469 683.207031 Z M 354.6875 157.238281 C 349.488281 149.234375 341.738281 145.039062 337.378906 147.875 C 333.019531 150.707031 333.707031 159.492188 338.90625 167.496094 C 344.109375 175.5 351.859375 179.695312 356.21875 176.863281 C 360.578125 174.027344 359.890625 165.230469 354.6875 157.238281 Z M 132.90625 255.453125 C 127.707031 247.449219 119.957031 243.253906 115.597656 246.085938 C 111.238281 248.921875 111.925781 257.707031 117.128906 265.710938 C 122.328125 273.714844 130.078125 277.910156 134.4375 275.074219 C 138.796875 272.242188 138.109375 263.457031 132.90625 255.449219 Z M 64.707031 615.425781 C 59.503906 607.421875 51.757812 603.226562 47.398438 606.0625 C 43.039062 608.894531 43.726562 617.679688 48.925781 625.683594 C 54.128906 633.6875 61.875 637.882812 66.238281 635.050781 C 70.597656 632.214844 69.902344 623.429688 64.699219 615.425781 Z M 369.273438 473.84375 C 354.128906 476.609375 343 485.121094 344.414062 492.847656 C 345.824219 500.578125 359.25 504.601562 374.375 501.832031 C 389.5 499.0625 400.648438 490.554688 399.234375 482.828125 C 397.824219 475.097656 384.410156 471.070312 369.265625 473.835938 Z M 319.433594 583.125 C 304.289062 585.894531 293.160156 594.402344 294.570312 602.132812 C 295.984375 609.859375 309.410156 613.882812 324.535156 611.117188 C 339.660156 608.347656 350.808594 599.835938 349.394531 592.109375 C 347.984375 584.382812 334.566406 580.351562 319.425781 583.121094 Z M 319.433594 583.125 " fill-opacity="1" fill-rule="nonzero"/></svg>